<mxfile host="Electron" modified="2024-07-26T08:39:51.504Z" agent="Mozilla/5.0 (Windows NT 10.0; Win64; x64) AppleWebKit/537.36 (KHTML, like Gecko) draw.io/24.5.3 Chrome/124.0.6367.207 Electron/30.0.6 Safari/537.36" etag="giRPhL-EQ3NQ9VkJ3VDT" version="24.5.3" type="device">
  <diagram id="KNkAfDMtus3OYxsUXtEe" name="Page-2">
    <mxGraphModel dx="3772" dy="2491" grid="0" gridSize="10" guides="1" tooltips="1" connect="1" arrows="1" fold="1" page="1" pageScale="1" pageWidth="1169" pageHeight="827" math="0" shadow="0">
      <root>
        <mxCell id="0" />
        <mxCell id="1" parent="0" />
        <mxCell id="8l6RRYxQaxA69R045GtP-1" value="&amp;lt;&amp;lt;" style="rounded=1;whiteSpace=wrap;html=1;strokeColor=#0070F2;fillColor=#EBF8FF;arcSize=16;absoluteArcSize=1;imageWidth=64;imageHeight=64;strokeWidth=1.5;" parent="1" vertex="1">
          <mxGeometry x="-2046" y="-1602" width="636" height="438" as="geometry" />
        </mxCell>
        <mxCell id="8l6RRYxQaxA69R045GtP-2" value="&amp;lt;&amp;lt;&amp;lt;&amp;lt;&amp;lt;&amp;lt;&amp;lt;&amp;lt;&amp;lt;&amp;lt;&amp;lt;&amp;lt;&amp;lt;&amp;lt;" style="rounded=1;whiteSpace=wrap;html=1;strokeColor=#0070F2;strokeWidth=1.5;arcSize=16;fillColor=#FFFFFF;perimeterSpacing=0;absoluteArcSize=1;" parent="1" vertex="1">
          <mxGeometry x="-2026" y="-1524" width="606" height="340" as="geometry" />
        </mxCell>
        <mxCell id="hYUSkcnEFoUa8Ber-fzS-27" value="" style="endArrow=none;html=1;rounded=0;entryX=0;entryY=0.5;entryDx=0;entryDy=0;strokeColor=#475f75;strokeWidth=1.5;edgeStyle=elbowEdgeStyle;" parent="1" source="8Uogrh9DGqOY0QzcngNR-39" target="hYUSkcnEFoUa8Ber-fzS-26" edge="1">
          <mxGeometry width="50" height="50" relative="1" as="geometry">
            <mxPoint x="-1571" y="-1063.86" as="sourcePoint" />
            <mxPoint x="-1511" y="-1073.86" as="targetPoint" />
            <Array as="points">
              <mxPoint x="-1561" y="-1164" />
            </Array>
          </mxGeometry>
        </mxCell>
        <mxCell id="hYUSkcnEFoUa8Ber-fzS-91" value="" style="endArrow=none;html=1;strokeColor=#475E75;bendable=1;rounded=0;endFill=0;endSize=4;startArrow=none;startFill=0;startSize=4;jumpStyle=none;jumpSize=0;targetPerimeterSpacing=15;strokeWidth=1.5;entryX=0.5;entryY=0;entryDx=0;entryDy=0;exitX=0.5;exitY=1;exitDx=0;exitDy=0;dashed=1;" parent="1" source="8l6RRYxQaxA69R045GtP-4" target="4bXTCHI5SMZw4-VJFfMM-4" edge="1">
          <mxGeometry width="50" height="50" relative="1" as="geometry">
            <mxPoint x="-1771" y="-1224" as="sourcePoint" />
            <mxPoint x="-1771" y="-1165" as="targetPoint" />
          </mxGeometry>
        </mxCell>
        <mxCell id="8l6RRYxQaxA69R045GtP-8" value="&lt;font style=&quot;font-size: 14px;&quot; face=&quot;arial&quot; color=&quot;#5b738b&quot;&gt;&lt;b style=&quot;font-size: 14px;&quot;&gt;NETWORK&lt;/b&gt;&lt;/font&gt;" style="text;html=1;align=center;verticalAlign=middle;resizable=0;points=[];autosize=1;strokeColor=none;fillColor=none;fontSize=14;fontColor=default;fontFamily=Helvetica;" parent="1" vertex="1">
          <mxGeometry x="-2312.5000000000005" y="-1150.9999999999995" width="90" height="29" as="geometry" />
        </mxCell>
        <mxCell id="8l6RRYxQaxA69R045GtP-26" value="&lt;b style=&quot;border-color: var(--border-color); color: rgb(0, 112, 242); font-family: arial; font-size: 16px;&quot;&gt;API managed integration&lt;/b&gt;" style="text;html=1;align=left;verticalAlign=middle;resizable=0;points=[];autosize=1;strokeColor=none;fillColor=none;fontSize=12;fontColor=#1d2d3e;fontFamily=Helvetica;" parent="1" vertex="1">
          <mxGeometry x="-2314" y="-1639.9999999999998" width="206" height="31" as="geometry" />
        </mxCell>
        <mxCell id="8l6RRYxQaxA69R045GtP-11" value="" style="shape=image;verticalLabelPosition=bottom;labelBackgroundColor=default;verticalAlign=top;aspect=fixed;imageAspect=0;image=data:image/svg+xml,PHN2ZyB4bWxuczp4bGluaz0iaHR0cDovL3d3dy53My5vcmcvMTk5OS94bGluayIgeG1sbnM9Imh0dHA6Ly93d3cudzMub3JnLzIwMDAvc3ZnIiB2aWV3Qm94PSIwIDAgMTQ0Ljc0NyAzOS44MzIiIGlkPSJhIj48ZGVmcz48bGluZWFyR3JhZGllbnQgZ3JhZGllbnRVbml0cz0idXNlclNwYWNlT25Vc2UiIHkyPSIzOS44MzIiIHgyPSI0MC4yNTgiIHkxPSIwIiB4MT0iNDAuMjU4IiBpZD0iYiI+PHN0b3Agc3RvcC1jb2xvcj0iIzAwYjhmMSIgb2Zmc2V0PSIwIi8+PHN0b3Agc3RvcC1jb2xvcj0iIzAwYjVlZiIgb2Zmc2V0PSIuMDE2Ii8+PHN0b3Agc3RvcC1jb2xvcj0iIzBkOTBkOCIgb2Zmc2V0PSIuMzA4Ii8+PHN0b3Agc3RvcC1jb2xvcj0iIzE2NzVjOCIgb2Zmc2V0PSIuNTc4Ii8+PHN0b3Agc3RvcC1jb2xvcj0iIzFjNjRiZSIgb2Zmc2V0PSIuODE3Ii8+PHN0b3Agc3RvcC1jb2xvcj0iIzFlNWZiYiIgb2Zmc2V0PSIxIi8+PC9saW5lYXJHcmFkaWVudD48L2RlZnM+PHBvbHlsaW5lIGZpbGwtcnVsZT0iZXZlbm9kZCIgZmlsbD0idXJsKCNiKSIgcG9pbnRzPSIwIDM5LjgzMiA0MC42OTIgMzkuODMyIDgwLjUxNyAwIDAgMCAwIDM5LjgzMiIvPjxwYXRoIGZpbGwtcnVsZT0iZXZlbm9kZCIgZmlsbD0iI2ZmZiIgZD0ibTQ3Ljc4Miw3LjQ4OWwtNy45MjUtLjAwNXYxOC44NDVsLTYuOTI0LTE4Ljg0NWgtNi44NjVsLTUuOTEyLDE1Ljc1OWMtLjYzLTMuOTczLTQuNzQtNS4zNDUtNy45NzQtNi4zNzQtMi4xMzUtLjY4Ni00LjQwMS0xLjY5NC00LjM4LTIuODA5LjAxNy0uOTE1LDEuMjE1LTEuNzY1LDMuNTg5LTEuNjM3LDEuNTk1LjA4NCwzLjAwMS4yMTMsNS44LDEuNTYzbDIuNzUzLTQuNzk1Yy0yLjU1NS0xLjMtNi4wODYtMi4xMjEtOC45NzgtMi4xMjRoLS4wMTdjLTMuMzc0LDAtNi4xODUsMS4wOTMtNy45MjgsMi44OTQtMS4yMTQsMS4yNTgtMS44NjksMi44NTYtMS44OTYsNC42MjMtLjA0NCwyLjQzMi44NDgsNC4xNTcsMi43MjEsNS41MzMsMS41ODMsMS4xNiwzLjYwNiwxLjkxMiw1LjM5LDIuNDY1LDIuMjAxLjY4MSwzLjk5NiwxLjI3NCwzLjk3NSwyLjUzOS0uMDE2LjQ1OS0uMTkxLjg4OC0uNTIxLDEuMjM2LS41NDguNTY2LTEuMzkxLjc3OS0yLjU1NS43OTktMi4yNDQuMDQ4LTMuOTEtLjMwMy02LjU2Mi0xLjg3bC0yLjQ0OCw0Ljg2MWMyLjY0NCwxLjUwNiw1Ljc3NiwyLjM4OCw4Ljk3MiwyLjM4OGwuNDExLS4wMDZjMi43ODItLjA1LDUuMDI2LS44NDIsNi44Mi0yLjI4Ni4xMDMtLjA4MS4xOTYtLjE2Ni4yOTEtLjI1bC0uNzk1LDIuMTIzaDcuMmwxLjIwOC0zLjY3NGMxLjI2NS40MzMsMi43MDQuNjcxLDQuMjMyLjY3MSwxLjQ4NywwLDIuODg5LS4yMjksNC4xMzEtLjYzNWwxLjE2NCwzLjYzN2gxMS43NDJ2LTcuNjA3aDIuNTYxYzYuMTg4LDAsOS44NTEtMy4xNTQsOS44NTEtOC40MzYsMC01Ljg4NS0zLjU1Ny04LjU4NS0xMS4xMzItOC41ODVabS0xOC4zMTcsMTYuMTI0Yy0uOTI1LDAtMS43OTItLjE2LTIuNTM5LS40NDNsMi41MTItNy45MjZoLjA0OGwyLjQ2OCw3Ljk0OGMtLjc0Mi4yNjMtMS41ODkuNDIxLTIuNDg4LjQyMVptMTguNzgzLTQuNTUzaC0xLjc0NnYtNi4zODZoMS43NDZjMi4zMjgsMCw0LjE4NS43NzMsNC4xODUsMy4xNTEsMCwyLjQ2MS0xLjg1NywzLjIzNi00LjE4NSwzLjIzNiIvPjxwYXRoIGZpbGw9IiMwMDJhODYiIGQ9Im04MC4yMTcsNy40MDFoMTAuMDYzYzUuNTk1LDAsOC42NzQsMS45MTcsOC42NzQsNi4xNTgsMCwyLjkwMy0xLjUxMyw1LjAxNC00LjMxMSw1LjcsMy4yOS40NTgsNS4yNzgsMi41ODYsNS4yNzgsNS44OTQsMCw1LjAxNC00LjA2NCw3LjAzNy05LjE4NCw3LjAzN2gtMTAuNTIxVjcuNDAxWm0xMy45NjksNi44MjZjMC0yLjE2NC0xLjQ5Ni0yLjk3My00LjI0LTIuOTczaC01LjA0OXY2LjI5OGg0Ljg5MWMzLjIwMiwwLDQuMzk4LTEuMTYxLDQuMzk4LTMuMzI1Wm0xLjAyMSwxMC41MjFjMC0yLjM1Ny0xLjc3Ny0zLjQ2Ni00LjgzOS0zLjQ2NmgtNS40NzF2Ny4wNTVoNS41MDZjMi44MTUsMCw0LjgwNC0uNzc0LDQuODA0LTMuNTg5WiIvPjxwYXRoIGZpbGw9IiMwMDJhODYiIGQ9Im0xMDkuMDUxLDExLjVoLTcuNTgzdi00LjA5OWgxOS44NDZ2NC4wOTloLTcuNTY1djIwLjY5aC00LjY5N1YxMS41WiIvPjxwYXRoIGZpbGw9IiMwMDJhODYiIGQ9Im0xMjUuMTQ4LDcuNDAxaDEwLjUwNGM2LjE5MiwwLDkuMDk2LDMuMTg1LDkuMDk2LDcuODk5LDAsNC4zOTgtMi44MzMsOC4xNDYtOC44NSw4LjE0NmgtNi4wN3Y4Ljc0NGgtNC42OFY3LjQwMVptMTQuOTAyLDcuOTUyYzAtMi41NTEtMS42ODktMy45MjMtNC45NDQtMy45MjNoLTUuMjc4djguMDRoNS40MTljMy4yNzIsMCw0LjgwNC0xLjU4Myw0LjgwNC00LjExN1oiLz48L3N2Zz4=;strokeWidth=1.5;" parent="1" vertex="1">
          <mxGeometry x="-2035.9999999999998" y="-1591.9999999999998" width="67.25" height="18.55" as="geometry" />
        </mxCell>
        <mxCell id="8l6RRYxQaxA69R045GtP-80" value="" style="endArrow=none;html=1;strokeColor=#5B738B;bendable=1;rounded=1;endFill=0;endSize=3;strokeWidth=3;jumpStyle=gap;" parent="1" edge="1">
          <mxGeometry width="50" height="50" relative="1" as="geometry">
            <mxPoint x="-2311" y="-1154" as="sourcePoint" />
            <mxPoint x="-1161" y="-1152" as="targetPoint" />
            <Array as="points" />
          </mxGeometry>
        </mxCell>
        <mxCell id="zLkr8Fda_o7fLGSxankt-88" value="" style="group" parent="1" vertex="1" connectable="0">
          <mxGeometry x="-2270.75" y="-1596" width="318.7500000000001" height="349.50000000000034" as="geometry" />
        </mxCell>
        <mxCell id="dRn98VZPlsFJSJt_BaqV-47" value="" style="group" parent="zLkr8Fda_o7fLGSxankt-88" vertex="1" connectable="0">
          <mxGeometry x="-13.250000000000213" y="189" width="223.92000000000002" height="91.00000000000011" as="geometry" />
        </mxCell>
        <mxCell id="zLkr8Fda_o7fLGSxankt-89" value="" style="rounded=1;whiteSpace=wrap;html=1;strokeColor=#6d7f91;strokeWidth=1.5;arcSize=16;fillColor=#FFFFFF;perimeterSpacing=0;absoluteArcSize=1;align=center;" parent="dRn98VZPlsFJSJt_BaqV-47" vertex="1">
          <mxGeometry y="18" width="157.48" height="73" as="geometry" />
        </mxCell>
        <mxCell id="zLkr8Fda_o7fLGSxankt-90" value="&lt;font face=&quot;arial&quot;&gt;&lt;span style=&quot;font-size: 16px;&quot;&gt;&lt;b&gt;Client&lt;br&gt;Applications&lt;/b&gt;&lt;/span&gt;&lt;/font&gt;" style="text;html=1;align=left;verticalAlign=middle;resizable=0;points=[];autosize=1;strokeColor=none;fillColor=none;fontSize=12;fontColor=#1d2d3e;fontFamily=Helvetica;" parent="dRn98VZPlsFJSJt_BaqV-47" vertex="1">
          <mxGeometry x="22.739999999999995" y="34.5" width="120" height="50" as="geometry" />
        </mxCell>
        <UserObject label="&lt;span style=&quot;color: rgb(85, 107, 130); font-family: arial;&quot;&gt;&lt;font style=&quot;font-size: 12px;&quot;&gt;API consumers&lt;/font&gt;&lt;/span&gt;" placeholders="1" name="Variable" id="dRn98VZPlsFJSJt_BaqV-4">
          <mxCell style="text;html=1;strokeColor=none;fillColor=none;align=center;verticalAlign=middle;whiteSpace=wrap;overflow=hidden;fontColor=#1D2D3E;" parent="dRn98VZPlsFJSJt_BaqV-47" vertex="1">
            <mxGeometry x="33.739999999999995" y="-2" width="90" height="18" as="geometry" />
          </mxCell>
        </UserObject>
        <mxCell id="dRn98VZPlsFJSJt_BaqV-12" value="&lt;font color=&quot;#475f75&quot; size=&quot;1&quot;&gt;&lt;b style=&quot;&quot;&gt;OData/REST/SOAP&lt;/b&gt;&lt;/font&gt;" style="rounded=1;whiteSpace=wrap;html=1;arcSize=50;strokeColor=#475f75;fillColor=default;strokeWidth=1.5;" parent="dRn98VZPlsFJSJt_BaqV-47" vertex="1">
          <mxGeometry x="106.75000000000021" y="45.37000000000012" width="102" height="16" as="geometry" />
        </mxCell>
        <mxCell id="dRn98VZPlsFJSJt_BaqV-101" value="" style="shape=image;verticalLabelPosition=bottom;labelBackgroundColor=default;verticalAlign=top;imageAspect=0;image=data:image/svg+xml,PHN2ZyB4bWxucz0iaHR0cDovL3d3dy53My5vcmcvMjAwMC9zdmciIGZpbGw9Im5vbmUiIHZpZXdCb3g9IjAgMCAxNyAxMiIgaGVpZ2h0PSIxMiIgd2lkdGg9IjE3Ij4mI3hhOzxwYXRoIGZpbGw9InVybCgjcGFpbnQwX2xpbmVhcl83MjRfMTQpIiBkPSJNMTIuMzQ2MSAxMS45OTc0SDMuODE0ODVDMy4zNTY1MiAxMS45OTc0IDIuOTE5MDIgMTEuOTAzNiAyLjUwMjM1IDExLjcxNjJDMi4wODU2OCAxMS41MDc4IDEuNzIxMSAxMS4yMzcgMS40MDg2IDEwLjkwMzZDMS4wOTYxIDEwLjU0OTUgMC44NDYxIDEwLjE0MzIgMC42NTg2IDkuNjg0OTFDMC40OTE5MyA5LjIyNjYxIDAuNDA4NiA4LjczNzAxIDAuNDA4NiA4LjIxNjIxQzAuNDA4NiA3LjcxNjE2IDAuNDkxOTMgNy4yMzY5OSAwLjY1ODYgNi43Nzg2NkMwLjg0NjEgNi4zMjAzMyAxLjA4NTY4IDUuOTI0NDkgMS4zNzczNSA1LjU5MTE2QzEuNjY5MDIgNS4yMzY5OSAyLjAxMjc3IDQuOTY2MTYgMi40MDg2IDQuNzc4NjZDMi44MjUyNyA0LjU3MDMzIDMuMjYyNzcgNC40NjYxNiAzLjcyMTEgNC40NjYxNkMzLjgyNTI3IDMuODQxMTYgNC4wMTI3NyAzLjI1NzgzIDQuMjgzNiAyLjcxNjE2QzQuNTU0NDMgMi4xNTM2NiA0Ljg5ODE4IDEuNjc0NDkgNS4zMTQ4NSAxLjI3ODY2QzUuNzMxNTIgMC44ODI4MzQgNi4yMDAyNyAwLjU3MDMzNCA2LjcyMTEgMC4zNDExNjRDNy4yNjI3NyAwLjExMTk5NCA3LjgyNTI3IC0wLjAwMjU4NjM2IDguNDA4NiAtMC4wMDI1ODYzNkM5LjMwNDQzIC0wLjAwMjU4NjM2IDEwLjEzNzcgMC4yNjgyNDQgMTAuOTA4NiAwLjgwOTkxNEMxMS42Nzk0IDEuMzUxNTggMTIuMjczMSAyLjA4MDc0IDEyLjY4OTggMi45OTc0MUMxMy4yMTA2IDMuMDM5MDggMTMuNzAwMiAzLjE4NDkxIDE0LjE1ODYgMy40MzQ5MUMxNC42MTY5IDMuNjg0OTEgMTUuMDEyOCA0LjAxODI0IDE1LjM0NjEgNC40MzQ5MUMxNS42Nzk1IDQuODMwNzQgMTUuOTM5OCA1LjI4OTA4IDE2LjEyNzMgNS44MDk5MUMxNi4zMTQ4IDYuMzMwNzQgMTYuNDA4NiA2Ljg5MzI0IDE2LjQwODYgNy40OTc0MUMxNi40MDg2IDguMTIyNDEgMTYuMzA0NSA4LjcxNjIxIDE2LjA5NjEgOS4yNzg2MUMxNS44ODc4IDkuODIwMzEgMTUuNTk2MSAxMC4yOTk1IDE1LjIyMTEgMTAuNzE2MkMxNC44NjcgMTEuMTEyIDE0LjQzOTggMTEuNDI0NSAxMy45Mzk4IDExLjY1MzZDMTMuNDM5OCAxMS44ODI4IDEyLjkwODcgMTEuOTk3NCAxMi4zNDYxIDExLjk5NzRaTTMuODE0ODUgNi4wNTk5MUMzLjMxNDg1IDYuMDU5OTEgMi44ODc3NyA2LjI2ODI0IDIuNTMzNiA2LjY4NDkxQzIuMTc5NDMgNy4xMDE1OCAyLjAwMjM1IDcuNjExOTkgMi4wMDIzNSA4LjIxNjIxQzIuMDAyMzUgOC44MjAzMSAyLjE3OTQzIDkuMzQxMjEgMi41MzM2IDkuNzc4NjFDMi44ODc3NyAxMC4xOTUzIDMuMzE0ODUgMTAuNDAzNiAzLjgxNDg1IDEwLjQwMzZIMTIuMzQ2MUMxMy4wMzM3IDEwLjQwMzYgMTMuNjE3IDEwLjEyMjQgMTQuMDk2MSA5LjU1OTkxQzE0LjU3NTMgOC45OTc0MSAxNC44MTQ4IDguMzA5OTEgMTQuODE0OCA3LjQ5NzQxQzE0LjgxNDggNi42NjQwOCAxNC41NzUzIDUuOTY2MTYgMTQuMDk2MSA1LjQwMzY2QzEzLjYxNyA0Ljg0MTE2IDEzLjAzMzcgNC41NTk5MSAxMi4zNDYxIDQuNTU5OTFIMTIuMTI3M0MxMS43NzMxIDQuNTU5OTEgMTEuNTIzMSA0LjM4MjgzIDExLjM3NzMgNC4wMjg2NkMxMS4xMjczIDMuMjk5NDkgMTAuNzMxNSAyLjcxNjE2IDEwLjE4OTggMi4yNzg2NkM5LjY0ODE1IDEuODIwMzMgOS4wNTQ0MyAxLjU5MTE2IDguNDA4NiAxLjU5MTE2QzcuOTcxMSAxLjU5MTE2IDcuNTY0ODUgMS42OTUzMyA3LjE4OTg1IDEuOTAzNjZDNi44MTQ4NSAyLjA5MTE2IDYuNDgxNTIgMi4zNTE1OCA2LjE4OTg1IDIuNjg0OTFDNS45MTkwMiAyLjk5NzQxIDUuNzAwMjcgMy4zODI4MyA1LjUzMzYgMy44NDExNkM1LjM2NjkzIDQuMjc4NjYgNS4yODM2IDQuNzQ3NDEgNS4yODM2IDUuMjQ3NDFDNS4yODM2IDUuNDc2NTggNS4yMDAyNyA1LjY3NDQ5IDUuMDMzNiA1Ljg0MTE2QzQuODg3NzcgNS45ODY5OSA0LjcwMDI3IDYuMDU5OTEgNC40NzExIDYuMDU5OTFIMy44MTQ4NVoiLz4mI3hhOzxkZWZzPiYjeGE7PGxpbmVhckdyYWRpZW50IGdyYWRpZW50VW5pdHM9InVzZXJTcGFjZU9uVXNlIiB5Mj0iMTAuMzM3MyIgeDI9IjE0LjI2MDIiIHkxPSIxLjEyNjIzIiB4MT0iMi40NzY0NiIgaWQ9InBhaW50MF9saW5lYXJfNzI0XzE0Ij4mI3hhOzxzdG9wIHN0b3AtY29sb3I9IiMyMzk1RkYiLz4mI3hhOzxzdG9wIHN0b3AtY29sb3I9IiMwMDU3RDIiIG9mZnNldD0iMSIvPiYjeGE7PC9saW5lYXJHcmFkaWVudD4mI3hhOzwvZGVmcz4mI3hhOzwvc3ZnPg==;strokeWidth=1.5;aspect=fixed;" parent="dRn98VZPlsFJSJt_BaqV-47" vertex="1">
          <mxGeometry x="5.979818032992625" y="22.63348871260996" width="27.76320130228494" height="17.738702546352773" as="geometry" />
        </mxCell>
        <mxCell id="MNoCtDz5ZO1DFXrK31TN-10" value="&lt;p style=&quot;line-height: 100%; font-size: 16px;&quot;&gt;&lt;b style=&quot;font-size: 16px;&quot;&gt;&lt;font color=&quot;#ffffff&quot; style=&quot;font-size: 16px;&quot; face=&quot;arial black&quot;&gt;1&lt;/font&gt;&lt;/b&gt;&lt;/p&gt;" style="ellipse;whiteSpace=wrap;html=1;aspect=fixed;rotation=0;gradientColor=#0057D2;strokeColor=none;gradientDirection=east;fillColor=#2395FF;rounded=0;pointerEvents=0;fontFamily=Helvetica;fontSize=16;fontColor=default;spacingTop=4;spacingBottom=4;spacingLeft=4;spacingRight=4;verticalAlign=middle;container=0;" parent="dRn98VZPlsFJSJt_BaqV-47" vertex="1">
          <mxGeometry x="194" y="4.579999999999927" width="29.92" height="29.9212" as="geometry" />
        </mxCell>
        <mxCell id="hYUSkcnEFoUa8Ber-fzS-3" value="&lt;font color=&quot;#556b82&quot;&gt;configure and monitor&lt;/font&gt;" style="text;html=1;align=center;verticalAlign=middle;resizable=0;points=[];autosize=1;strokeColor=none;fillColor=none;fontStyle=0;fontSize=12;" parent="1" vertex="1">
          <mxGeometry x="-1768" y="-1131" width="134" height="26" as="geometry" />
        </mxCell>
        <mxCell id="hYUSkcnEFoUa8Ber-fzS-26" value="&lt;p style=&quot;line-height: 114%;&quot;&gt;&lt;font color=&quot;#475f75&quot; size=&quot;1&quot;&gt;&lt;b style=&quot;&quot;&gt;HTTPS&lt;/b&gt;&lt;/font&gt;&lt;/p&gt;" style="rounded=1;whiteSpace=wrap;html=1;arcSize=50;strokeColor=#475f75;fillColor=#f5f6f7;fontColor=#266f3a;strokeWidth=1.5;" parent="1" vertex="1">
          <mxGeometry x="-1542" y="-1041.86" width="41.99" height="16" as="geometry" />
        </mxCell>
        <mxCell id="hYUSkcnEFoUa8Ber-fzS-94" value="" style="endArrow=blockThin;html=1;strokeColor=#475e75;bendable=1;rounded=0;endFill=1;endSize=4;startArrow=none;startFill=0;startSize=4;jumpStyle=none;jumpSize=0;targetPerimeterSpacing=15;dashed=1;strokeWidth=1.5;exitX=0.5;exitY=0;exitDx=0;exitDy=0;entryX=0.458;entryY=0.984;entryDx=0;entryDy=0;entryPerimeter=0;" parent="1" source="8l6RRYxQaxA69R045GtP-4" target="zLkr8Fda_o7fLGSxankt-243" edge="1">
          <mxGeometry width="50" height="50" relative="1" as="geometry">
            <mxPoint x="-1770" y="-1480" as="sourcePoint" />
            <mxPoint x="-1770" y="-1542" as="targetPoint" />
          </mxGeometry>
        </mxCell>
        <UserObject label="&lt;span style=&quot;color: rgb(85, 107, 130); font-family: arial;&quot;&gt;&lt;font style=&quot;font-size: 12px;&quot;&gt;API consumers&lt;/font&gt;&lt;/span&gt;" placeholders="1" name="Variable" id="dRn98VZPlsFJSJt_BaqV-18">
          <mxCell style="text;html=1;strokeColor=none;fillColor=none;align=center;verticalAlign=middle;whiteSpace=wrap;overflow=hidden;fontColor=#1D2D3E;" parent="1" vertex="1">
            <mxGeometry x="-2245.26" y="-1032" width="90" height="18" as="geometry" />
          </mxCell>
        </UserObject>
        <UserObject label="&lt;span style=&quot;font-family: arial;&quot;&gt;&lt;font color=&quot;#556b82&quot; style=&quot;font-size: 12px;&quot;&gt;API providers&lt;/font&gt;&lt;/span&gt;" placeholders="1" name="Variable" id="dRn98VZPlsFJSJt_BaqV-20">
          <mxCell style="text;html=1;strokeColor=none;fillColor=none;align=center;verticalAlign=middle;whiteSpace=wrap;overflow=hidden;fontColor=#1D2D3E;" parent="1" vertex="1">
            <mxGeometry x="-1383.4655298013245" y="-1131" width="90" height="18" as="geometry" />
          </mxCell>
        </UserObject>
        <mxCell id="dRn98VZPlsFJSJt_BaqV-28" value="" style="group" parent="1" vertex="1" connectable="0">
          <mxGeometry x="-1419.501059602649" y="-1603" width="207.56999999999994" height="91" as="geometry" />
        </mxCell>
        <mxCell id="dRn98VZPlsFJSJt_BaqV-7" value="" style="rounded=1;whiteSpace=wrap;html=1;strokeColor=#6d7f91;strokeWidth=1.5;arcSize=16;fillColor=#FFFFFF;perimeterSpacing=0;absoluteArcSize=1;align=center;" parent="dRn98VZPlsFJSJt_BaqV-28" vertex="1">
          <mxGeometry x="81.08999999999992" y="13" width="157.48" height="73" as="geometry" />
        </mxCell>
        <mxCell id="dRn98VZPlsFJSJt_BaqV-9" value="&lt;font face=&quot;arial&quot;&gt;&lt;span style=&quot;font-size: 16px;&quot;&gt;&lt;b&gt;Data&lt;br&gt;source&lt;/b&gt;&lt;/span&gt;&lt;/font&gt;" style="text;html=1;align=left;verticalAlign=middle;resizable=0;points=[];autosize=1;strokeColor=none;fillColor=none;fontSize=12;fontColor=#1d2d3e;fontFamily=Helvetica;" parent="dRn98VZPlsFJSJt_BaqV-28" vertex="1">
          <mxGeometry x="141.1899999999996" y="23.5" width="80" height="50" as="geometry" />
        </mxCell>
        <UserObject label="&lt;span style=&quot;color: rgb(85, 107, 130); font-family: arial;&quot;&gt;&lt;font style=&quot;font-size: 12px;&quot;&gt;API providers&lt;/font&gt;&lt;/span&gt;" placeholders="1" name="Variable" id="dRn98VZPlsFJSJt_BaqV-10">
          <mxCell style="text;html=1;strokeColor=none;fillColor=none;align=center;verticalAlign=middle;whiteSpace=wrap;overflow=hidden;fontColor=#1D2D3E;" parent="dRn98VZPlsFJSJt_BaqV-28" vertex="1">
            <mxGeometry x="114.8299999999997" y="-7" width="90" height="18" as="geometry" />
          </mxCell>
        </UserObject>
        <mxCell id="dRn98VZPlsFJSJt_BaqV-25" value="&lt;font color=&quot;#475f75&quot; size=&quot;1&quot;&gt;&lt;b style=&quot;&quot;&gt;OData/REST/SOAP&lt;/b&gt;&lt;/font&gt;" style="rounded=1;whiteSpace=wrap;html=1;arcSize=50;strokeColor=#475f75;fillColor=default;strokeWidth=1.5;" parent="dRn98VZPlsFJSJt_BaqV-28" vertex="1">
          <mxGeometry x="31" y="40.5" width="102" height="16" as="geometry" />
        </mxCell>
        <mxCell id="dRn98VZPlsFJSJt_BaqV-98" value="" style="shape=image;verticalLabelPosition=bottom;labelBackgroundColor=default;verticalAlign=top;imageAspect=0;image=data:image/svg+xml,PHN2ZyB4bWxucz0iaHR0cDovL3d3dy53My5vcmcvMjAwMC9zdmciIGZpbGw9Im5vbmUiIHZpZXdCb3g9IjAgMCAxNyAxMiIgaGVpZ2h0PSIxMiIgd2lkdGg9IjE3Ij4mI3hhOzxwYXRoIGZpbGw9InVybCgjcGFpbnQwX2xpbmVhcl83MjRfMTQpIiBkPSJNMTIuMzQ2MSAxMS45OTc0SDMuODE0ODVDMy4zNTY1MiAxMS45OTc0IDIuOTE5MDIgMTEuOTAzNiAyLjUwMjM1IDExLjcxNjJDMi4wODU2OCAxMS41MDc4IDEuNzIxMSAxMS4yMzcgMS40MDg2IDEwLjkwMzZDMS4wOTYxIDEwLjU0OTUgMC44NDYxIDEwLjE0MzIgMC42NTg2IDkuNjg0OTFDMC40OTE5MyA5LjIyNjYxIDAuNDA4NiA4LjczNzAxIDAuNDA4NiA4LjIxNjIxQzAuNDA4NiA3LjcxNjE2IDAuNDkxOTMgNy4yMzY5OSAwLjY1ODYgNi43Nzg2NkMwLjg0NjEgNi4zMjAzMyAxLjA4NTY4IDUuOTI0NDkgMS4zNzczNSA1LjU5MTE2QzEuNjY5MDIgNS4yMzY5OSAyLjAxMjc3IDQuOTY2MTYgMi40MDg2IDQuNzc4NjZDMi44MjUyNyA0LjU3MDMzIDMuMjYyNzcgNC40NjYxNiAzLjcyMTEgNC40NjYxNkMzLjgyNTI3IDMuODQxMTYgNC4wMTI3NyAzLjI1NzgzIDQuMjgzNiAyLjcxNjE2QzQuNTU0NDMgMi4xNTM2NiA0Ljg5ODE4IDEuNjc0NDkgNS4zMTQ4NSAxLjI3ODY2QzUuNzMxNTIgMC44ODI4MzQgNi4yMDAyNyAwLjU3MDMzNCA2LjcyMTEgMC4zNDExNjRDNy4yNjI3NyAwLjExMTk5NCA3LjgyNTI3IC0wLjAwMjU4NjM2IDguNDA4NiAtMC4wMDI1ODYzNkM5LjMwNDQzIC0wLjAwMjU4NjM2IDEwLjEzNzcgMC4yNjgyNDQgMTAuOTA4NiAwLjgwOTkxNEMxMS42Nzk0IDEuMzUxNTggMTIuMjczMSAyLjA4MDc0IDEyLjY4OTggMi45OTc0MUMxMy4yMTA2IDMuMDM5MDggMTMuNzAwMiAzLjE4NDkxIDE0LjE1ODYgMy40MzQ5MUMxNC42MTY5IDMuNjg0OTEgMTUuMDEyOCA0LjAxODI0IDE1LjM0NjEgNC40MzQ5MUMxNS42Nzk1IDQuODMwNzQgMTUuOTM5OCA1LjI4OTA4IDE2LjEyNzMgNS44MDk5MUMxNi4zMTQ4IDYuMzMwNzQgMTYuNDA4NiA2Ljg5MzI0IDE2LjQwODYgNy40OTc0MUMxNi40MDg2IDguMTIyNDEgMTYuMzA0NSA4LjcxNjIxIDE2LjA5NjEgOS4yNzg2MUMxNS44ODc4IDkuODIwMzEgMTUuNTk2MSAxMC4yOTk1IDE1LjIyMTEgMTAuNzE2MkMxNC44NjcgMTEuMTEyIDE0LjQzOTggMTEuNDI0NSAxMy45Mzk4IDExLjY1MzZDMTMuNDM5OCAxMS44ODI4IDEyLjkwODcgMTEuOTk3NCAxMi4zNDYxIDExLjk5NzRaTTMuODE0ODUgNi4wNTk5MUMzLjMxNDg1IDYuMDU5OTEgMi44ODc3NyA2LjI2ODI0IDIuNTMzNiA2LjY4NDkxQzIuMTc5NDMgNy4xMDE1OCAyLjAwMjM1IDcuNjExOTkgMi4wMDIzNSA4LjIxNjIxQzIuMDAyMzUgOC44MjAzMSAyLjE3OTQzIDkuMzQxMjEgMi41MzM2IDkuNzc4NjFDMi44ODc3NyAxMC4xOTUzIDMuMzE0ODUgMTAuNDAzNiAzLjgxNDg1IDEwLjQwMzZIMTIuMzQ2MUMxMy4wMzM3IDEwLjQwMzYgMTMuNjE3IDEwLjEyMjQgMTQuMDk2MSA5LjU1OTkxQzE0LjU3NTMgOC45OTc0MSAxNC44MTQ4IDguMzA5OTEgMTQuODE0OCA3LjQ5NzQxQzE0LjgxNDggNi42NjQwOCAxNC41NzUzIDUuOTY2MTYgMTQuMDk2MSA1LjQwMzY2QzEzLjYxNyA0Ljg0MTE2IDEzLjAzMzcgNC41NTk5MSAxMi4zNDYxIDQuNTU5OTFIMTIuMTI3M0MxMS43NzMxIDQuNTU5OTEgMTEuNTIzMSA0LjM4MjgzIDExLjM3NzMgNC4wMjg2NkMxMS4xMjczIDMuMjk5NDkgMTAuNzMxNSAyLjcxNjE2IDEwLjE4OTggMi4yNzg2NkM5LjY0ODE1IDEuODIwMzMgOS4wNTQ0MyAxLjU5MTE2IDguNDA4NiAxLjU5MTE2QzcuOTcxMSAxLjU5MTE2IDcuNTY0ODUgMS42OTUzMyA3LjE4OTg1IDEuOTAzNjZDNi44MTQ4NSAyLjA5MTE2IDYuNDgxNTIgMi4zNTE1OCA2LjE4OTg1IDIuNjg0OTFDNS45MTkwMiAyLjk5NzQxIDUuNzAwMjcgMy4zODI4MyA1LjUzMzYgMy44NDExNkM1LjM2NjkzIDQuMjc4NjYgNS4yODM2IDQuNzQ3NDEgNS4yODM2IDUuMjQ3NDFDNS4yODM2IDUuNDc2NTggNS4yMDAyNyA1LjY3NDQ5IDUuMDMzNiA1Ljg0MTE2QzQuODg3NzcgNS45ODY5OSA0LjcwMDI3IDYuMDU5OTEgNC40NzExIDYuMDU5OTFIMy44MTQ4NVoiLz4mI3hhOzxkZWZzPiYjeGE7PGxpbmVhckdyYWRpZW50IGdyYWRpZW50VW5pdHM9InVzZXJTcGFjZU9uVXNlIiB5Mj0iMTAuMzM3MyIgeDI9IjE0LjI2MDIiIHkxPSIxLjEyNjIzIiB4MT0iMi40NzY0NiIgaWQ9InBhaW50MF9saW5lYXJfNzI0XzE0Ij4mI3hhOzxzdG9wIHN0b3AtY29sb3I9IiMyMzk1RkYiLz4mI3hhOzxzdG9wIHN0b3AtY29sb3I9IiMwMDU3RDIiIG9mZnNldD0iMSIvPiYjeGE7PC9saW5lYXJHcmFkaWVudD4mI3hhOzwvZGVmcz4mI3hhOzwvc3ZnPg==;strokeWidth=1.5;aspect=fixed;" parent="dRn98VZPlsFJSJt_BaqV-28" vertex="1">
          <mxGeometry x="86.07087763564184" y="17.00348871260985" width="27.76320130228494" height="17.738702546352773" as="geometry" />
        </mxCell>
        <mxCell id="dRn98VZPlsFJSJt_BaqV-29" value="" style="group" parent="1" vertex="1" connectable="0">
          <mxGeometry x="-1419.501059602649" y="-1506" width="207.56999999999994" height="91" as="geometry" />
        </mxCell>
        <mxCell id="dRn98VZPlsFJSJt_BaqV-30" value="" style="rounded=1;whiteSpace=wrap;html=1;strokeColor=#6d7f91;strokeWidth=1.5;arcSize=16;fillColor=#FFFFFF;perimeterSpacing=0;absoluteArcSize=1;align=center;" parent="dRn98VZPlsFJSJt_BaqV-29" vertex="1">
          <mxGeometry x="81.08999999999992" y="23" width="157.48" height="73" as="geometry" />
        </mxCell>
        <mxCell id="dRn98VZPlsFJSJt_BaqV-32" value="&lt;font face=&quot;arial&quot;&gt;&lt;span style=&quot;font-size: 16px;&quot;&gt;&lt;b&gt;Data&lt;br&gt;source&lt;/b&gt;&lt;/span&gt;&lt;/font&gt;" style="text;html=1;align=left;verticalAlign=middle;resizable=0;points=[];autosize=1;strokeColor=none;fillColor=none;fontSize=12;fontColor=#1d2d3e;fontFamily=Helvetica;" parent="dRn98VZPlsFJSJt_BaqV-29" vertex="1">
          <mxGeometry x="141.1899999999996" y="34.5" width="80" height="50" as="geometry" />
        </mxCell>
        <mxCell id="dRn98VZPlsFJSJt_BaqV-102" value="" style="shape=image;verticalLabelPosition=bottom;labelBackgroundColor=default;verticalAlign=top;imageAspect=0;image=data:image/svg+xml,PHN2ZyB4bWxucz0iaHR0cDovL3d3dy53My5vcmcvMjAwMC9zdmciIGZpbGw9Im5vbmUiIHZpZXdCb3g9IjAgMCAxNyAxMiIgaGVpZ2h0PSIxMiIgd2lkdGg9IjE3Ij4mI3hhOzxwYXRoIGZpbGw9InVybCgjcGFpbnQwX2xpbmVhcl83MjRfMTQpIiBkPSJNMTIuMzQ2MSAxMS45OTc0SDMuODE0ODVDMy4zNTY1MiAxMS45OTc0IDIuOTE5MDIgMTEuOTAzNiAyLjUwMjM1IDExLjcxNjJDMi4wODU2OCAxMS41MDc4IDEuNzIxMSAxMS4yMzcgMS40MDg2IDEwLjkwMzZDMS4wOTYxIDEwLjU0OTUgMC44NDYxIDEwLjE0MzIgMC42NTg2IDkuNjg0OTFDMC40OTE5MyA5LjIyNjYxIDAuNDA4NiA4LjczNzAxIDAuNDA4NiA4LjIxNjIxQzAuNDA4NiA3LjcxNjE2IDAuNDkxOTMgNy4yMzY5OSAwLjY1ODYgNi43Nzg2NkMwLjg0NjEgNi4zMjAzMyAxLjA4NTY4IDUuOTI0NDkgMS4zNzczNSA1LjU5MTE2QzEuNjY5MDIgNS4yMzY5OSAyLjAxMjc3IDQuOTY2MTYgMi40MDg2IDQuNzc4NjZDMi44MjUyNyA0LjU3MDMzIDMuMjYyNzcgNC40NjYxNiAzLjcyMTEgNC40NjYxNkMzLjgyNTI3IDMuODQxMTYgNC4wMTI3NyAzLjI1NzgzIDQuMjgzNiAyLjcxNjE2QzQuNTU0NDMgMi4xNTM2NiA0Ljg5ODE4IDEuNjc0NDkgNS4zMTQ4NSAxLjI3ODY2QzUuNzMxNTIgMC44ODI4MzQgNi4yMDAyNyAwLjU3MDMzNCA2LjcyMTEgMC4zNDExNjRDNy4yNjI3NyAwLjExMTk5NCA3LjgyNTI3IC0wLjAwMjU4NjM2IDguNDA4NiAtMC4wMDI1ODYzNkM5LjMwNDQzIC0wLjAwMjU4NjM2IDEwLjEzNzcgMC4yNjgyNDQgMTAuOTA4NiAwLjgwOTkxNEMxMS42Nzk0IDEuMzUxNTggMTIuMjczMSAyLjA4MDc0IDEyLjY4OTggMi45OTc0MUMxMy4yMTA2IDMuMDM5MDggMTMuNzAwMiAzLjE4NDkxIDE0LjE1ODYgMy40MzQ5MUMxNC42MTY5IDMuNjg0OTEgMTUuMDEyOCA0LjAxODI0IDE1LjM0NjEgNC40MzQ5MUMxNS42Nzk1IDQuODMwNzQgMTUuOTM5OCA1LjI4OTA4IDE2LjEyNzMgNS44MDk5MUMxNi4zMTQ4IDYuMzMwNzQgMTYuNDA4NiA2Ljg5MzI0IDE2LjQwODYgNy40OTc0MUMxNi40MDg2IDguMTIyNDEgMTYuMzA0NSA4LjcxNjIxIDE2LjA5NjEgOS4yNzg2MUMxNS44ODc4IDkuODIwMzEgMTUuNTk2MSAxMC4yOTk1IDE1LjIyMTEgMTAuNzE2MkMxNC44NjcgMTEuMTEyIDE0LjQzOTggMTEuNDI0NSAxMy45Mzk4IDExLjY1MzZDMTMuNDM5OCAxMS44ODI4IDEyLjkwODcgMTEuOTk3NCAxMi4zNDYxIDExLjk5NzRaTTMuODE0ODUgNi4wNTk5MUMzLjMxNDg1IDYuMDU5OTEgMi44ODc3NyA2LjI2ODI0IDIuNTMzNiA2LjY4NDkxQzIuMTc5NDMgNy4xMDE1OCAyLjAwMjM1IDcuNjExOTkgMi4wMDIzNSA4LjIxNjIxQzIuMDAyMzUgOC44MjAzMSAyLjE3OTQzIDkuMzQxMjEgMi41MzM2IDkuNzc4NjFDMi44ODc3NyAxMC4xOTUzIDMuMzE0ODUgMTAuNDAzNiAzLjgxNDg1IDEwLjQwMzZIMTIuMzQ2MUMxMy4wMzM3IDEwLjQwMzYgMTMuNjE3IDEwLjEyMjQgMTQuMDk2MSA5LjU1OTkxQzE0LjU3NTMgOC45OTc0MSAxNC44MTQ4IDguMzA5OTEgMTQuODE0OCA3LjQ5NzQxQzE0LjgxNDggNi42NjQwOCAxNC41NzUzIDUuOTY2MTYgMTQuMDk2MSA1LjQwMzY2QzEzLjYxNyA0Ljg0MTE2IDEzLjAzMzcgNC41NTk5MSAxMi4zNDYxIDQuNTU5OTFIMTIuMTI3M0MxMS43NzMxIDQuNTU5OTEgMTEuNTIzMSA0LjM4MjgzIDExLjM3NzMgNC4wMjg2NkMxMS4xMjczIDMuMjk5NDkgMTAuNzMxNSAyLjcxNjE2IDEwLjE4OTggMi4yNzg2NkM5LjY0ODE1IDEuODIwMzMgOS4wNTQ0MyAxLjU5MTE2IDguNDA4NiAxLjU5MTE2QzcuOTcxMSAxLjU5MTE2IDcuNTY0ODUgMS42OTUzMyA3LjE4OTg1IDEuOTAzNjZDNi44MTQ4NSAyLjA5MTE2IDYuNDgxNTIgMi4zNTE1OCA2LjE4OTg1IDIuNjg0OTFDNS45MTkwMiAyLjk5NzQxIDUuNzAwMjcgMy4zODI4MyA1LjUzMzYgMy44NDExNkM1LjM2NjkzIDQuMjc4NjYgNS4yODM2IDQuNzQ3NDEgNS4yODM2IDUuMjQ3NDFDNS4yODM2IDUuNDc2NTggNS4yMDAyNyA1LjY3NDQ5IDUuMDMzNiA1Ljg0MTE2QzQuODg3NzcgNS45ODY5OSA0LjcwMDI3IDYuMDU5OTEgNC40NzExIDYuMDU5OTFIMy44MTQ4NVoiLz4mI3hhOzxkZWZzPiYjeGE7PGxpbmVhckdyYWRpZW50IGdyYWRpZW50VW5pdHM9InVzZXJTcGFjZU9uVXNlIiB5Mj0iMTAuMzM3MyIgeDI9IjE0LjI2MDIiIHkxPSIxLjEyNjIzIiB4MT0iMi40NzY0NiIgaWQ9InBhaW50MF9saW5lYXJfNzI0XzE0Ij4mI3hhOzxzdG9wIHN0b3AtY29sb3I9IiMyMzk1RkYiLz4mI3hhOzxzdG9wIHN0b3AtY29sb3I9IiMwMDU3RDIiIG9mZnNldD0iMSIvPiYjeGE7PC9saW5lYXJHcmFkaWVudD4mI3hhOzwvZGVmcz4mI3hhOzwvc3ZnPg==;strokeWidth=1.5;aspect=fixed;" parent="dRn98VZPlsFJSJt_BaqV-29" vertex="1">
          <mxGeometry x="86.07087763564184" y="27.00348871260985" width="27.76320130228494" height="17.738702546352773" as="geometry" />
        </mxCell>
        <mxCell id="dRn98VZPlsFJSJt_BaqV-35" value="" style="group" parent="1" vertex="1" connectable="0">
          <mxGeometry x="-1419.501059602649" y="-1399.4788732394366" width="207.56999999999994" height="91" as="geometry" />
        </mxCell>
        <mxCell id="dRn98VZPlsFJSJt_BaqV-36" value="" style="rounded=1;whiteSpace=wrap;html=1;strokeColor=#6d7f91;strokeWidth=1.5;arcSize=16;fillColor=#FFFFFF;perimeterSpacing=0;absoluteArcSize=1;align=center;" parent="dRn98VZPlsFJSJt_BaqV-35" vertex="1">
          <mxGeometry x="81.08999999999992" y="9" width="157.48" height="73" as="geometry" />
        </mxCell>
        <mxCell id="dRn98VZPlsFJSJt_BaqV-38" value="&lt;font face=&quot;arial&quot;&gt;&lt;span style=&quot;font-size: 16px;&quot;&gt;&lt;b&gt;Data&lt;br&gt;source&lt;/b&gt;&lt;/span&gt;&lt;/font&gt;" style="text;html=1;align=left;verticalAlign=middle;resizable=0;points=[];autosize=1;strokeColor=none;fillColor=none;fontSize=12;fontColor=#1d2d3e;fontFamily=Helvetica;" parent="dRn98VZPlsFJSJt_BaqV-35" vertex="1">
          <mxGeometry x="141.1899999999996" y="23.5" width="80" height="50" as="geometry" />
        </mxCell>
        <mxCell id="dRn98VZPlsFJSJt_BaqV-99" value="" style="shape=image;verticalLabelPosition=bottom;labelBackgroundColor=default;verticalAlign=top;imageAspect=0;image=data:image/svg+xml,PHN2ZyB4bWxucz0iaHR0cDovL3d3dy53My5vcmcvMjAwMC9zdmciIGZpbGw9Im5vbmUiIHZpZXdCb3g9IjAgMCAxNyAxMiIgaGVpZ2h0PSIxMiIgd2lkdGg9IjE3Ij4mI3hhOzxwYXRoIGZpbGw9InVybCgjcGFpbnQwX2xpbmVhcl83MjRfMTQpIiBkPSJNMTIuMzQ2MSAxMS45OTc0SDMuODE0ODVDMy4zNTY1MiAxMS45OTc0IDIuOTE5MDIgMTEuOTAzNiAyLjUwMjM1IDExLjcxNjJDMi4wODU2OCAxMS41MDc4IDEuNzIxMSAxMS4yMzcgMS40MDg2IDEwLjkwMzZDMS4wOTYxIDEwLjU0OTUgMC44NDYxIDEwLjE0MzIgMC42NTg2IDkuNjg0OTFDMC40OTE5MyA5LjIyNjYxIDAuNDA4NiA4LjczNzAxIDAuNDA4NiA4LjIxNjIxQzAuNDA4NiA3LjcxNjE2IDAuNDkxOTMgNy4yMzY5OSAwLjY1ODYgNi43Nzg2NkMwLjg0NjEgNi4zMjAzMyAxLjA4NTY4IDUuOTI0NDkgMS4zNzczNSA1LjU5MTE2QzEuNjY5MDIgNS4yMzY5OSAyLjAxMjc3IDQuOTY2MTYgMi40MDg2IDQuNzc4NjZDMi44MjUyNyA0LjU3MDMzIDMuMjYyNzcgNC40NjYxNiAzLjcyMTEgNC40NjYxNkMzLjgyNTI3IDMuODQxMTYgNC4wMTI3NyAzLjI1NzgzIDQuMjgzNiAyLjcxNjE2QzQuNTU0NDMgMi4xNTM2NiA0Ljg5ODE4IDEuNjc0NDkgNS4zMTQ4NSAxLjI3ODY2QzUuNzMxNTIgMC44ODI4MzQgNi4yMDAyNyAwLjU3MDMzNCA2LjcyMTEgMC4zNDExNjRDNy4yNjI3NyAwLjExMTk5NCA3LjgyNTI3IC0wLjAwMjU4NjM2IDguNDA4NiAtMC4wMDI1ODYzNkM5LjMwNDQzIC0wLjAwMjU4NjM2IDEwLjEzNzcgMC4yNjgyNDQgMTAuOTA4NiAwLjgwOTkxNEMxMS42Nzk0IDEuMzUxNTggMTIuMjczMSAyLjA4MDc0IDEyLjY4OTggMi45OTc0MUMxMy4yMTA2IDMuMDM5MDggMTMuNzAwMiAzLjE4NDkxIDE0LjE1ODYgMy40MzQ5MUMxNC42MTY5IDMuNjg0OTEgMTUuMDEyOCA0LjAxODI0IDE1LjM0NjEgNC40MzQ5MUMxNS42Nzk1IDQuODMwNzQgMTUuOTM5OCA1LjI4OTA4IDE2LjEyNzMgNS44MDk5MUMxNi4zMTQ4IDYuMzMwNzQgMTYuNDA4NiA2Ljg5MzI0IDE2LjQwODYgNy40OTc0MUMxNi40MDg2IDguMTIyNDEgMTYuMzA0NSA4LjcxNjIxIDE2LjA5NjEgOS4yNzg2MUMxNS44ODc4IDkuODIwMzEgMTUuNTk2MSAxMC4yOTk1IDE1LjIyMTEgMTAuNzE2MkMxNC44NjcgMTEuMTEyIDE0LjQzOTggMTEuNDI0NSAxMy45Mzk4IDExLjY1MzZDMTMuNDM5OCAxMS44ODI4IDEyLjkwODcgMTEuOTk3NCAxMi4zNDYxIDExLjk5NzRaTTMuODE0ODUgNi4wNTk5MUMzLjMxNDg1IDYuMDU5OTEgMi44ODc3NyA2LjI2ODI0IDIuNTMzNiA2LjY4NDkxQzIuMTc5NDMgNy4xMDE1OCAyLjAwMjM1IDcuNjExOTkgMi4wMDIzNSA4LjIxNjIxQzIuMDAyMzUgOC44MjAzMSAyLjE3OTQzIDkuMzQxMjEgMi41MzM2IDkuNzc4NjFDMi44ODc3NyAxMC4xOTUzIDMuMzE0ODUgMTAuNDAzNiAzLjgxNDg1IDEwLjQwMzZIMTIuMzQ2MUMxMy4wMzM3IDEwLjQwMzYgMTMuNjE3IDEwLjEyMjQgMTQuMDk2MSA5LjU1OTkxQzE0LjU3NTMgOC45OTc0MSAxNC44MTQ4IDguMzA5OTEgMTQuODE0OCA3LjQ5NzQxQzE0LjgxNDggNi42NjQwOCAxNC41NzUzIDUuOTY2MTYgMTQuMDk2MSA1LjQwMzY2QzEzLjYxNyA0Ljg0MTE2IDEzLjAzMzcgNC41NTk5MSAxMi4zNDYxIDQuNTU5OTFIMTIuMTI3M0MxMS43NzMxIDQuNTU5OTEgMTEuNTIzMSA0LjM4MjgzIDExLjM3NzMgNC4wMjg2NkMxMS4xMjczIDMuMjk5NDkgMTAuNzMxNSAyLjcxNjE2IDEwLjE4OTggMi4yNzg2NkM5LjY0ODE1IDEuODIwMzMgOS4wNTQ0MyAxLjU5MTE2IDguNDA4NiAxLjU5MTE2QzcuOTcxMSAxLjU5MTE2IDcuNTY0ODUgMS42OTUzMyA3LjE4OTg1IDEuOTAzNjZDNi44MTQ4NSAyLjA5MTE2IDYuNDgxNTIgMi4zNTE1OCA2LjE4OTg1IDIuNjg0OTFDNS45MTkwMiAyLjk5NzQxIDUuNzAwMjcgMy4zODI4MyA1LjUzMzYgMy44NDExNkM1LjM2NjkzIDQuMjc4NjYgNS4yODM2IDQuNzQ3NDEgNS4yODM2IDUuMjQ3NDFDNS4yODM2IDUuNDc2NTggNS4yMDAyNyA1LjY3NDQ5IDUuMDMzNiA1Ljg0MTE2QzQuODg3NzcgNS45ODY5OSA0LjcwMDI3IDYuMDU5OTEgNC40NzExIDYuMDU5OTFIMy44MTQ4NVoiLz4mI3hhOzxkZWZzPiYjeGE7PGxpbmVhckdyYWRpZW50IGdyYWRpZW50VW5pdHM9InVzZXJTcGFjZU9uVXNlIiB5Mj0iMTAuMzM3MyIgeDI9IjE0LjI2MDIiIHkxPSIxLjEyNjIzIiB4MT0iMi40NzY0NiIgaWQ9InBhaW50MF9saW5lYXJfNzI0XzE0Ij4mI3hhOzxzdG9wIHN0b3AtY29sb3I9IiMyMzk1RkYiLz4mI3hhOzxzdG9wIHN0b3AtY29sb3I9IiMwMDU3RDIiIG9mZnNldD0iMSIvPiYjeGE7PC9saW5lYXJHcmFkaWVudD4mI3hhOzwvZGVmcz4mI3hhOzwvc3ZnPg==;strokeWidth=1.5;aspect=fixed;" parent="dRn98VZPlsFJSJt_BaqV-35" vertex="1">
          <mxGeometry x="86.07087763564184" y="17.00348871260985" width="27.76320130228494" height="17.738702546352773" as="geometry" />
        </mxCell>
        <mxCell id="dRn98VZPlsFJSJt_BaqV-41" value="" style="group" parent="1" vertex="1" connectable="0">
          <mxGeometry x="-1419.501059602649" y="-1294" width="207.56999999999994" height="91" as="geometry" />
        </mxCell>
        <mxCell id="dRn98VZPlsFJSJt_BaqV-42" value="" style="rounded=1;whiteSpace=wrap;html=1;strokeColor=#6d7f91;strokeWidth=1.5;arcSize=16;fillColor=#FFFFFF;perimeterSpacing=0;absoluteArcSize=1;align=center;" parent="dRn98VZPlsFJSJt_BaqV-41" vertex="1">
          <mxGeometry x="81.08999999999992" y="18" width="157.48" height="73" as="geometry" />
        </mxCell>
        <mxCell id="dRn98VZPlsFJSJt_BaqV-44" value="&lt;font face=&quot;arial&quot;&gt;&lt;span style=&quot;font-size: 16px;&quot;&gt;&lt;b&gt;Data&lt;br&gt;source&lt;/b&gt;&lt;/span&gt;&lt;/font&gt;" style="text;html=1;align=left;verticalAlign=middle;resizable=0;points=[];autosize=1;strokeColor=none;fillColor=none;fontSize=12;fontColor=#1d2d3e;fontFamily=Helvetica;" parent="dRn98VZPlsFJSJt_BaqV-41" vertex="1">
          <mxGeometry x="141.1899999999996" y="29.5" width="80" height="50" as="geometry" />
        </mxCell>
        <mxCell id="dRn98VZPlsFJSJt_BaqV-100" value="" style="shape=image;verticalLabelPosition=bottom;labelBackgroundColor=default;verticalAlign=top;imageAspect=0;image=data:image/svg+xml,PHN2ZyB4bWxucz0iaHR0cDovL3d3dy53My5vcmcvMjAwMC9zdmciIGZpbGw9Im5vbmUiIHZpZXdCb3g9IjAgMCAxNyAxMiIgaGVpZ2h0PSIxMiIgd2lkdGg9IjE3Ij4mI3hhOzxwYXRoIGZpbGw9InVybCgjcGFpbnQwX2xpbmVhcl83MjRfMTQpIiBkPSJNMTIuMzQ2MSAxMS45OTc0SDMuODE0ODVDMy4zNTY1MiAxMS45OTc0IDIuOTE5MDIgMTEuOTAzNiAyLjUwMjM1IDExLjcxNjJDMi4wODU2OCAxMS41MDc4IDEuNzIxMSAxMS4yMzcgMS40MDg2IDEwLjkwMzZDMS4wOTYxIDEwLjU0OTUgMC44NDYxIDEwLjE0MzIgMC42NTg2IDkuNjg0OTFDMC40OTE5MyA5LjIyNjYxIDAuNDA4NiA4LjczNzAxIDAuNDA4NiA4LjIxNjIxQzAuNDA4NiA3LjcxNjE2IDAuNDkxOTMgNy4yMzY5OSAwLjY1ODYgNi43Nzg2NkMwLjg0NjEgNi4zMjAzMyAxLjA4NTY4IDUuOTI0NDkgMS4zNzczNSA1LjU5MTE2QzEuNjY5MDIgNS4yMzY5OSAyLjAxMjc3IDQuOTY2MTYgMi40MDg2IDQuNzc4NjZDMi44MjUyNyA0LjU3MDMzIDMuMjYyNzcgNC40NjYxNiAzLjcyMTEgNC40NjYxNkMzLjgyNTI3IDMuODQxMTYgNC4wMTI3NyAzLjI1NzgzIDQuMjgzNiAyLjcxNjE2QzQuNTU0NDMgMi4xNTM2NiA0Ljg5ODE4IDEuNjc0NDkgNS4zMTQ4NSAxLjI3ODY2QzUuNzMxNTIgMC44ODI4MzQgNi4yMDAyNyAwLjU3MDMzNCA2LjcyMTEgMC4zNDExNjRDNy4yNjI3NyAwLjExMTk5NCA3LjgyNTI3IC0wLjAwMjU4NjM2IDguNDA4NiAtMC4wMDI1ODYzNkM5LjMwNDQzIC0wLjAwMjU4NjM2IDEwLjEzNzcgMC4yNjgyNDQgMTAuOTA4NiAwLjgwOTkxNEMxMS42Nzk0IDEuMzUxNTggMTIuMjczMSAyLjA4MDc0IDEyLjY4OTggMi45OTc0MUMxMy4yMTA2IDMuMDM5MDggMTMuNzAwMiAzLjE4NDkxIDE0LjE1ODYgMy40MzQ5MUMxNC42MTY5IDMuNjg0OTEgMTUuMDEyOCA0LjAxODI0IDE1LjM0NjEgNC40MzQ5MUMxNS42Nzk1IDQuODMwNzQgMTUuOTM5OCA1LjI4OTA4IDE2LjEyNzMgNS44MDk5MUMxNi4zMTQ4IDYuMzMwNzQgMTYuNDA4NiA2Ljg5MzI0IDE2LjQwODYgNy40OTc0MUMxNi40MDg2IDguMTIyNDEgMTYuMzA0NSA4LjcxNjIxIDE2LjA5NjEgOS4yNzg2MUMxNS44ODc4IDkuODIwMzEgMTUuNTk2MSAxMC4yOTk1IDE1LjIyMTEgMTAuNzE2MkMxNC44NjcgMTEuMTEyIDE0LjQzOTggMTEuNDI0NSAxMy45Mzk4IDExLjY1MzZDMTMuNDM5OCAxMS44ODI4IDEyLjkwODcgMTEuOTk3NCAxMi4zNDYxIDExLjk5NzRaTTMuODE0ODUgNi4wNTk5MUMzLjMxNDg1IDYuMDU5OTEgMi44ODc3NyA2LjI2ODI0IDIuNTMzNiA2LjY4NDkxQzIuMTc5NDMgNy4xMDE1OCAyLjAwMjM1IDcuNjExOTkgMi4wMDIzNSA4LjIxNjIxQzIuMDAyMzUgOC44MjAzMSAyLjE3OTQzIDkuMzQxMjEgMi41MzM2IDkuNzc4NjFDMi44ODc3NyAxMC4xOTUzIDMuMzE0ODUgMTAuNDAzNiAzLjgxNDg1IDEwLjQwMzZIMTIuMzQ2MUMxMy4wMzM3IDEwLjQwMzYgMTMuNjE3IDEwLjEyMjQgMTQuMDk2MSA5LjU1OTkxQzE0LjU3NTMgOC45OTc0MSAxNC44MTQ4IDguMzA5OTEgMTQuODE0OCA3LjQ5NzQxQzE0LjgxNDggNi42NjQwOCAxNC41NzUzIDUuOTY2MTYgMTQuMDk2MSA1LjQwMzY2QzEzLjYxNyA0Ljg0MTE2IDEzLjAzMzcgNC41NTk5MSAxMi4zNDYxIDQuNTU5OTFIMTIuMTI3M0MxMS43NzMxIDQuNTU5OTEgMTEuNTIzMSA0LjM4MjgzIDExLjM3NzMgNC4wMjg2NkMxMS4xMjczIDMuMjk5NDkgMTAuNzMxNSAyLjcxNjE2IDEwLjE4OTggMi4yNzg2NkM5LjY0ODE1IDEuODIwMzMgOS4wNTQ0MyAxLjU5MTE2IDguNDA4NiAxLjU5MTE2QzcuOTcxMSAxLjU5MTE2IDcuNTY0ODUgMS42OTUzMyA3LjE4OTg1IDEuOTAzNjZDNi44MTQ4NSAyLjA5MTE2IDYuNDgxNTIgMi4zNTE1OCA2LjE4OTg1IDIuNjg0OTFDNS45MTkwMiAyLjk5NzQxIDUuNzAwMjcgMy4zODI4MyA1LjUzMzYgMy44NDExNkM1LjM2NjkzIDQuMjc4NjYgNS4yODM2IDQuNzQ3NDEgNS4yODM2IDUuMjQ3NDFDNS4yODM2IDUuNDc2NTggNS4yMDAyNyA1LjY3NDQ5IDUuMDMzNiA1Ljg0MTE2QzQuODg3NzcgNS45ODY5OSA0LjcwMDI3IDYuMDU5OTEgNC40NzExIDYuMDU5OTFIMy44MTQ4NVoiLz4mI3hhOzxkZWZzPiYjeGE7PGxpbmVhckdyYWRpZW50IGdyYWRpZW50VW5pdHM9InVzZXJTcGFjZU9uVXNlIiB5Mj0iMTAuMzM3MyIgeDI9IjE0LjI2MDIiIHkxPSIxLjEyNjIzIiB4MT0iMi40NzY0NiIgaWQ9InBhaW50MF9saW5lYXJfNzI0XzE0Ij4mI3hhOzxzdG9wIHN0b3AtY29sb3I9IiMyMzk1RkYiLz4mI3hhOzxzdG9wIHN0b3AtY29sb3I9IiMwMDU3RDIiIG9mZnNldD0iMSIvPiYjeGE7PC9saW5lYXJHcmFkaWVudD4mI3hhOzwvZGVmcz4mI3hhOzwvc3ZnPg==;strokeWidth=1.5;aspect=fixed;" parent="dRn98VZPlsFJSJt_BaqV-41" vertex="1">
          <mxGeometry x="86.07087763564184" y="21.763488712609842" width="27.76320130228494" height="17.738702546352773" as="geometry" />
        </mxCell>
        <mxCell id="dRn98VZPlsFJSJt_BaqV-114" value="" style="endArrow=blockThin;html=1;strokeColor=#475e75;bendable=1;rounded=0;endFill=1;endSize=4;strokeWidth=1.5;startSize=4;startArrow=none;startFill=0;entryX=0.5;entryY=0;entryDx=0;entryDy=0;entryPerimeter=0;" parent="1" target="8Uogrh9DGqOY0QzcngNR-36" edge="1">
          <mxGeometry width="50" height="50" relative="1" as="geometry">
            <mxPoint x="-1712" y="-1274" as="sourcePoint" />
            <mxPoint x="-1635.65761589404" y="-1240" as="targetPoint" />
            <Array as="points" />
          </mxGeometry>
        </mxCell>
        <mxCell id="8l6RRYxQaxA69R045GtP-4" value="&lt;meta charset=&quot;utf-8&quot;&gt;&lt;span data-metadata=&quot;&lt;!--(figmeta)eyJmaWxlS2V5IjoiN2h3ZTRkMkZNdlR2dHlHVzZIbENmNiIsInBhc3RlSUQiOjcyOTE3OTY2MiwiZGF0YVR5cGUiOiJzY2VuZSJ9Cg==(/figmeta)--&gt;&quot;&gt;&lt;/span&gt;&lt;span data-buffer=&quot;&lt;!--(figma)ZmlnLWtpd2kwAAAAPUYAALW9e5xkSVXgH3Ezsx5d/Zj3i5nhDYqI82J4iEg+blVld74mb2b1zKiTZFXe6ko6K7PMm1XTxbouIiIigiIiIiKyiDi6iIiIiDgiIiIiIiIiIiKyLMuyLsu6LMu6v++JiPvI6h7Wf37z+UxHxIkTJ06cOHHixInIWw969TCK+ufCzuFeqNQ1p5vVRi/oFNsdxX+NZsXvldeLjTU/oKi7gd/OlD2D7Tcq5HNBda1RrJHLB517aj6Zgsn0Al9oLRhcQ7kXnKm2em2/1ixKy8VGs1NdvacXrDe7tUqv21prFyvSfslle5VmQ8rLcbntr7b9YB3QsaDsN/we4NZ6766u374H4EoW2PZbNQEer1RXV0lPlGtVv9Hpldr0Xi4GwtvJDG+nm9024/CFs1NBp+0X67aG8mWubEd8ebXR8dvFcqe6wSBrVRizoqHuirZfbjYafpnBZpiJObzy0tUxr1cZfuilV22U234dfos1al0bMK4uXhhGTMDd5JU00cWtLSYSEBxWes2GIaRM4Wy72hGmdGMyCFs7/SgEDbrFjhklSPXmhsnqs8PxYDg+194fCU6j2bjXbzepUM2KqRcKVlMeT6UPSFWa5a5wSFaXi42NYkDOW2s3uy0yudV2sS54+VKzWfOLjV6zhdA61WYDYGGD4TTb5BZExqSLtaohu+TXatVWINllBt5BrkanjrX9tW6t2O61mrV71gyRFbpqVPyKCCjBO97x7xaWTjAxZQGcDO6pl5qin6eqDTprGCgzWi2fEVFdHqwXW37vbLWz3nNtr3DyNgxeWZa1UKo1y2coXXW2Wlkzen01tOoy0mvqfqVaJHPtenVtvcb/Un1dAAE72Otdtoew27WidHrD2WKwXu116JnSwzaK7WqxZPi/seMyN5lMr4w8KN0co7hV9XCGZ9bKI4pBUA2Y0B6Um12pe+TF+unXjDJR+aiEkHDTphLgo+vNStf0+hiLv0YFpcfaUrt5lsLjgp3+Xnh2ONvphBdmVhluDu7qFts+tQo+3bxpxFFvmqXidehMZobVTTGXFCvNsyKa/KWmsNAqtou1GmaC1VHvtZ1EF+bBNX9VoIt+Y61XKSKsoul8Scost64UlqWwWjVUj5l8s1bxZVZXOiw8/96mGebxVtuv+KsoYKXXajfLfiCqfIIZ8mtSfzJW9V5QdTyeSkD1bq1TbRngZfVio8uCrTZaZiIuX/fvLlpdvaK87m+0TfbKFs0c+Komw7ZZ0Sfh7JpWrSvdX1tsI/d4mNfZUiyL64NuvQ4vvdPdBvNsCNxg1PVhQcv3y+u9UrfEJAO40WgDlg1r1mwXjZW6qTQKx4M6a1rYQYN6nXVmYk0sK7a/XTf2XFeK7TO+kPbcIEV1c7JQWYclzCXFfLlZayalglF/02YhwNKYnFnatKg0WTqUl2yTuLgsiojykj0WNFc7PUOD0sp6sY1au5Kx437bt+v3hH93GTnZkZ9cN7N9Kih2uomJucz0QubyWhdRNYNqR7q4otUfjp32LgVN9BugQqMqVaaF3oRVIDoBSWrkgW0jKyA0VWwRsFwCA8kpfb5at2IuYF9PV8ksbLCMxJwuVnfZcoOt/ii00mfPbPudshH8alXGqdFX01vH6m3O394OtxzH+SqGqc2OWWQBUakq7WYrLerVJmaSmWQHKdW6wqBXKpbPzINysn7LZjdYaKJRVZQDsOq2sNCkutY8azKw0LE8BGhErVcutkQz82mJBdUumx2kIEQr4dZk2p8NJ2PaxPsEPTO/yJW8ZrjVM36qbV4t7MvG05kOdynFbaDdW/fdzOvG/u5mOO2Oh7MIuu2iDFW1qnf7tYCMhmv2UsH0ypNxNJumM7zIzANXUm+GpOtF2To9+HBizwVldn0y+VUoVnq2RcEVDPZCMJtOzofF0fDcmAYJMcWGwsSS0Vhel/Uscrm/h0bG42G4RjV0Yi89u6BFLjKInC36d3WrNbZnDB3AvNMpMWHWMSkgPpQPA5qAFrK7zmK6r/RupbyUKd9GeTlTvp3ysUz5DsormfKTKR/PlO+kfKJcbZezvZ+0oz09GYpk6vgbbaCq5G/4MgIdD9wrTSajsD9u7oWxguS7DbtSESPNZJMkr4NuCdts8t7dZgEbfTXCX59Mh8+djGf9Ec2dZczMLbpspOCd7rK9r1YNh2nrjXA6G7L0BNZsUZVpWmp2Os06Oa8+2Y/C8v40mkyRD9tCEdtHhSq3mwErrdomr/17fFl6qB4lD+/PdNUqMhRsYRkVp5zH0pMUSMrVGrmFulhUabLIFONTk1tK5s8UlzdY7JNpfTidCgPJKjKzTqpNBguEZWRH64gKe5V+tGPtiVdmFwakUgXXxubY9ZBvNdYAqdMtX1IdbEjitSriIef8C3uT6ezoGsrhDWHS2fzcQlExAF/I9K9jQLJkvVr/cLI/W5sOB5ZI3i6rjMRTBj27ynJpm1Z/NgunY6rAqrbMCsFGG1utzXzuzybtMBo+F9KJiAw7RjIJHzrJedKsM90fbzn18yrVQPwgoalwudlNyehgdjgKg9CNnalrB01nHzscAUh0Ge2yusJpBFejUZaNJdfx6y02WOPn52MyCHMWJpK8aL8hq+PdAsPR3zpvpzEZ0zoG+l6kazjQbJS4rSZvsY1e091F0rUi9UoomZgY8jnToDzZh6Gpa7fwUO0Qu5ucXLHbkZ0rnyFVMKRO70ez4fYhxYek0iqW8T03fHsoydlyye+ctY4BUoJOYGfRGFyAnEqC6r1+r9PEyhgBzQFQOia5Wm/h3lOSGnCsNFqTaCiTy34CyDGuiiXE3rUHIYN2diq2mb2GA1KxBVi51FZnReSmD+yY2tExaFDGLFm6tZO8HE8dpsD6XXKYpqy7bTNxJTZk0ly51jQeax6Pvhd75ZQL3Rb+rN8zx4peu9voVM1BaoFVVqmKd2MUYDHbrIcDLzhLVfid9jPsXMa5A5tgulTFVVjqCT32K8q63uRkj79K3rN5W5Gj1br4ZeTztgIPQ9AKtmTc+QWwcJ2Nt7zohr1UwcckXabujH9P3OwYxY2mPZGtkLeDWzcTfDwpswwpn7BdxNp00hY5Q25I61OdaX9s59mO8AZ2Yc4OnR7bBvuxCAg0xfJm3k0TvUrwgNSzx5nVdjM5PuQyoHj7yGdgdqMoZCDJTrHQ6gbrFuaILaaQmNZSCrKkllNAQumYHMMtzFFaSSExpeMpyFJCTDEgoXTSMsokghQTOzUHjOldNge1JC+fgyVUrzA9OagjemUWFtO8Kgu0JK/OghKK12DzqmW01szPtTiURGCKDUyhWafXcXZo4mKmkOv9fsSytjN+kiBJuVuqlqlQQjou6GojW/TEXlk3nRay7pKqvODNQQq27RxswZr6pLwYtNp2n1haQz1Zdwlg2aEmgGM2ZxYIK9WujpV5YOes2JTjR4DrnJsAnwi2ppPRqDKcWvMC026NfYNdAQkbq23bYptmYg3CAZZtFlLv391ig7SGtgwF8bRMSa912Zq0FxFMojPyi0qPJrhLJuuVJyP8EZ2fqmWlz/GPt8k/uT7/5K3LQuMLlPQh/3htQGCngPv5J7fDP3lDKZhN9miwJXn1bKX3nOkGwav3Z9PhBaUXdm+5hbLeveVWEm/3lttIcru3CjC/e6sAC7u3CnCh1Z9ipqvjQUg779z+cKDuyxBdUZ49Q1B50B/th7TR++Y8caPyVpFSo78bKp3b7u8OR4fg60g2cDIeRGbR1nS4N6OUE9yN/nTYp8n+bjgdbq0Oz+1PES1btjs3K9SO+SSjCTeYWCh5081802Cvv4VSz7Ul/oAXIUbMlDWBDXfUvASBVZlcGWCWAoaUiILJ42ShzmZ+s63L/b0IZU6bsP7MmVOT9OKC1/I5/wnrOQC9pCR+O/FTyRYAMdg1sgsZ+q1Y7lm28Ov5F/cel4qM4ScwQmZyEqwqOm2Wmg7CXUgNt86Gw3M7szkkwnkypASlyoFguDWHktLhxGE2itWwPzMT9Y+6xfGSKlW+rWVQ3Gi8cisQeE5GRWoGSlpwsdAFoj/iJy8225UG6VJxtS31y5WGMWrHGt26DG0Fb17igcfZd0U0Jyo2PSluPukpTsOSXlYsmpPF5WWbXsHRStIrA1u+qr1hgipXywInvSY4a2Lf15aDs5JexyQL/Ppy2QQibwisy/awdQKCpDc65+imZrsh/N0sQiF9OPukyO8RlY45QD9ytVaUcTyqvtYWN+HRATpL+hiOKtL/Y1fxrEkft27Tx6/bfr+pY8vffJdNn9Cy6bfI8Yv0ibXVkpS/tdky6ZPaHZN+W8u2v6V1piFyurWGGSK9jVT4vL3dqUn5DlIpP7lYam+Q3lksbUj5KaTC91M3LJ2nbcAQ6dNLtbMyP99OKnjPIBW87yieWZdxPLN82hwrv7O8ahbUs8otUy6Wu23BK+EySLmMkZS0smrp+0QGhZ9V0ttI10hvJ12nW+mvSir0T6/b8dDbmvBTW2+eFr3BPTZ+TqOKQ0LaPN16ylNJW6dbTxU6d51uPe0W0vbp1i13kAa103Vp1yHmLPhddkeZlw1xkkjPkgofd9fP1AV+T6Nm3Lt7G90zHdLvYiMRvr6bNCD9ng0ETnpfK+gIvEcq8Ge3z7Sl3G+31iXdbHdLMu9bAd416aBj+Qg7DXPw2WaaZP7ObRBnI93ZsPXDDTvu52ycMfpyfqPdaZOOSG8j3Q0CLLhSY1IpT0hvJ90jvYP0e0mfTDolvZM0In0K6YxU5LRP+jTSgyDA9it1P6nQu0Aq9A5Jhd5zSYXevyEVet9HKvT+LanQ+35SoffvSIXe83QQ3CYEf0CXNwyHz5eMkPxByQjNF0hGiP6QZITqCyUjZH9YMkL3RZIRwj8iGaH8YjKG1R+VjFB+iWSE8o9JRii/VDJC+WWSEco/Lhmh/BOSEcovl4xQ/knJCOVXkDE8/5RkhPIrJSOUf1oyQvlVkhHKPyMZofxqyQjln5WMUH6NZITyz0lGKL+WzO1C+eclI5RfJxmh/AuSEcqvl4xQ/veSEcpvkIxQ/kXJCOU3SkYo/5JkhPKbyNwhlH9ZMkL5AckI5V+RjFD+VckI5f8gGaH8ZskI5V+TjFB+i2SE8q9LRii/lcyThfJvSEYov00yQvk3JSOU3y4ZofxbkhHK75CMUP5tyQjld0pGKP+OZITyu8jcKZR/VzJC+d2SEcq/Jxmh/KBkhPLvS0Yov0cyQvkPJCOU3ysZofyHkhHK7yPzFKH8R5IRyu+XjFD+Y8kI5Q9IRij/iWSE8gclI5T/VDJC+UOSEcp/Jhmh/GEyTxXKfy4ZofwRyQjlv5CMUP6oZITyX0pGKH9MMkL5ryQjlD8uGaH815IRyp8gY0zU30hGKH9SMkL5byUjlD8lGaH8d5IRyp+WjFD+e8kI5c9IRij/g2SE8mf10aATLtqM7VrdoXTsqnnim9b7e3viLGlvezrZFfduNuFfrzSabCqtNw9nYaRy2ka7lJfjunNHymPx7PDjBv1Z3+AuqtzGcBBOlOfFONHt3elIkFr9aBYGk/3pFiS8aIp3h4Mi7uB0qyGRGToExBm7LJ5rcfAcgiBKL82EcXzKaKc/mNwfkfV2cFsIIezgY+K1DsJZfzgilw8ZbySOCN7rASGGkFAX+YVZuGtio7Zq8WC4yTkXNpY5Q4pcbLfu0l55x/7/7XIL72yKMMgvb06F5pieKR0zzCjvGjNJlym9JYJQz1beRLzZmTj7uYNhNNxEcFrlSdxN00lViPD6I7WtF6A9jrYn0121oxaHZsZepNWSyXV2cNXHwjqg5f4YIAeYqlQJ5DILwb3E+2VqF9XllLOXKleoYxayM9kfDcrCX70/BgA/10wnnIRoDJsrkTQhc3zbyNZguil9qVYn9mSkq6YK26xOhruT5wzL9NAi2o2MF/WpA6NIL9bqCiLT54ZjTkvS89nhYMbA1JVz0HXryS6qq7akJ5xl9UBeXS2OcJ25qqCgyiucDw/VWOltoLXhOG7E7AqkMjwXwl2Okwol6z4/V+Wl4PzkAlcXlCA+tOP0cv0Lw6jTP0fHWrINkRq6Hq8uEyC3nV+5tdOXI0U4jcDQScl0VK3IkL1I8s2DcEqcNuz0mV/1Tk/nRiZ4a2J5m8w6t0sjuI/YRHTh3Ohwbydi99ALg+SGKGLv0IubHDHPf+/+RBbvG7W+zJLZgAFQ4Hhpm8Ek0nmF1svb/dFokzDdKhWRGutjOyjilM7OlyYXoPIarVcokXtdTh+fJRFfTsBTd0IsqBMOHg4S+Z4cTc7J7YBB6UzK8dib29tROMP6qGV9ancYhwSTdpfvUoK+7f21Wl8x4Gh2EA5qhonX5/SVFQtI5XzcDtNJS89Jy0ulxRKekxaLaU5ahW14yQpn4WJZLLqRQmNOAksOnpHA8r9CAseOjnZlYAdXM/wz2uPrGR6Ul98knDqI1IADt7Wx7nSe24nxODQUiDImhFkEaaMoZZooBLYkzueG0QbHPlAIBti2Z1g6i6pQcuJU3hJ2z55EkfL9ZlGykKTuHjI5ySSjz0upGG1BitIiZnIyDWuZ20ms4vZwGs0SuUhfMJQtL6zJ5NHx1mR3t88QSnbHSUMRm8quIAbNGGQCjRbQ/8XE+4MDZ48XLrY9iwZkDEsQztRn8oReE3Vh85oSgUGCGgnG3cle6fQHs3DgrsNK2CGkaMD1/pRpc7LPMmpDPEbPpKUUGuHs/gnoboSIa5f5eC6xJv5JxnmxpZDNnAsepKRFFSJ1n9bB4e7mZOTIR6ZAv+zxNh8TiYSAR+BGto4A3sNVhMX2w2TGZNFT4yd4HroBhT1gOJwEB5DeWjiWDQ8Jub4mWcp6PwpX0YI1cUQYx+HYhGc0zsNwe7s5Hh22EfpBf2SwcxWr+dXd3f2ZjM7sR5auN0+XgrNnXjGKwll1AJeMH12bDsF5u9baVfiADiHQl6IoNHbY5KsD3FTXvh1ug3Le1sbEWVqmEkRvUSQro+8LRNDfQVvW0ozBTfb3qgM8XJUzM0T+3awhK2kKD2q8BNk+GBLF92i1EBcDQ/19mkBolpQXr+n57gJH/aGq4w4fon7DdYoi/D8wmohAhF0d/L8wAwZQeSgknId9uhs8VH1nJ9z9BtwEGCOcF3CcDswkD/4H9NwkpXitqbhD3sJMChsJBn5vyq0Rtzdj63DijJgtjfHrACqLH1Hvj/fZEw+DcMS6DFnKKj+MSpPpwLk0l0AoRPubEtTcZFeSzt0YFlLe5hX0IyjoXJ1PhajpTMowKWM0eTumD8FzgCmTRSSzDP2QCC22zFvexqU+Y1U3MpWICLf6wI5/vY9LTqBVRNzqJ8s54jzI/uec/MJoiKs6PZQ135kEbiygCYAzu17A/u5NxuHYLaHF/fH2SC6V5W4wS3JpGHXjKiOZZct2OW5f73MiiA3fVgy1VPXe/uZoGO1ATDoWdjuTTtjfraXsSSfe0U5yVU47YtpjzQ1mMuzUHAmp5nZwP5xiYByyWDHc7TkW5g3Npelu3Pavosze0B8FmRmJm1jS9hmS8k4Yx/8q4QTdMo6/8Q+w+Lkpu+W+nBLy6QmgQJKcABaivWnYH4CxGO1M7kfWnF1KIRIciHkGfcnS2GBTeiCvlk0nrnDMNnallQsuc/zQZU505FRhttnqeFvOd4bVDaUH+9bo06+Hgs4mUlEJD4Zb8buI+GZFQmbm7YYuE8Q0YV3PwLhskaA8Zey+NGzHBwl2Fte4XD7bM8dkfaQT3CApqE8j5sjtjowFqVUHTOVwe8iGj9LTytL8DGu4ifjxE1vOc+gIAbWUXLIr7tfiyzgt+aTGk1J8JZfjRohxxJh5V0yQCw4Q4y/YN4zkFh0DJZztc1h6cb1YCmy4cEMvyajlHpv7LXvNLFd97iWUvoiAHUPSknBotdKL3+ldjF5ER3GHREE9bzMBGypfQJQpqCxqIrrY6HPANTI0WKrQKG4QjTcXF4rbxrZ9aKiDs+YKwJO0xy2JQci5a0dz05/3OTVLYALKTKdYLTDiZ58gqKC9Zq40CBu3INtr3d7buAOAZ1sGHLOxDBj4Y9H+9jY3WliMofhrhjUW5RZ+/Ux8jRmRR5WLDs6JnTHnM+afYrVi1s1XWEWUmvsz8VHF8FOPiWM68AXFL6G8CMbqhMBFYF5kYbfOR4CX8GmKm9FktD8LnWeHkdvKjuqftDrmWN5Yc10qr7raa/i+uyos1s4W7wnI6Jo5ucgjndgU3Mk+yLFSedjwZNXnxvu7AfaCiYgU3r2zEQQgIgsNZBng2J7bxypOXWnR8MU8Lu2JsZyO1VPVcoaSW+jHLDVXWolsrdBwoOMpVQc5scZ+ghqZwzCsakuCPuPNPNfCMoJwP7aIaTMv4ZcUVm7OkceHkl3Y+MSBZDsiArlLsyotD+NIuHhrN88IxHNvynP+6qp94ZbneqHZllzBPWlawA6y5xh6mZ3S9mXtfOxAuO0x3lwFgZlmrKI5cB8JxDWJmNHYelD2ZLJtlbsexvCyXBA4AKP5MsMM4W6/0ju77rOi16u1Sq+52rPV3PT14mf9jJDVfo+rkYZecbqVcMGhDSEWx+eQIkEqdoBM0RuOccPbxtBTzNlNp8ZRkLb70yEc6sEw2hv1D81iWBEH3BSN7sN/a7RPXMX1tmcKSJJmOOcENWhw3g60Zera4ajPaXfHNsjvGaBtsBvagBpN3FSTxb2q4CxZXylf3x/NhtJ7OF0dhqPBhp0KJmiLBYXsUQadvTfnspwBysGk3pdom1JLsX64Z0RisEk8Z5Vz1giTy8d2uJBY6AVp05u78l9MOvDHgz05ESKG0GVlI4UN3NO9ePI3uT23nLzUU7mkMRlsxaglrRhNBt2uaJqBYnFF8gE5qcdVrlYqNfMkC9tpdJlbrhhkX/HED6Ns0/rQMkc3EUCh8govuwoTbNQAE4YWIxa/VmqetRaIBVV0omFrbtufraSt7DL0ks3L3IKjquR0cTx2+yoWj5jD7NBiX+8Wq9C2i1VzgWneT3jJu8Ect3e9GJyXQlJVqBfvTqrYN+9OqxYtyaR2qcwdrN/ucYFW7cpiWU7MwTExEIjRvhJYMSXurtfoKDvlx1fJ9VaL9ap5S3fCFN0F70lTOBt3foqF6qe8XFbzO2hST16usYKBXM6ksVOngCssoFWsuGeQV1qAe1V2lS0Zrtzmd3VTGptr4mvKzXoL9Tbwaw0r8Wiuu1j0ytMzkf5rmP20FrUY9TdDiQ/pPYspx47XctpPkephX6LYEuwRHQ/EoKu8XUkqWUHarSkvXkm5S1IgRmPMvpbbBCFH3ptNXC4XQ00nr/dUfjYJ+ru2yG5sDFjTKK/YlhlxAJR4gZ0xBq8OL2A92NIszcBECMwW8wCbsjsg1CcHoXNVJ6PBGWOyCFhgz1cTW+1lcNeHRNCnh1UC9zSJzD2FUK+akdhy+cgBAQ80HIlEDaMmUHceGzi2zehvO+1qRJ2zuBIcO981Ebv82eHgXMhWwvrF2HmEekxbuvQHQ4JzMoD8bIgpnfV396rR5Kl3cp0KaXyPKYhCmUEJcjgoSgQ8t4UnHxfyUhEv4VzFlx8UMm/q7Hq145eaxbYsdW2epsnS8djwzjvkYq21LlfP8gpMtJ6cNj/3cD/zcmd6h91ASwGqACXHVMXvMs2PW+KSF2BPUJUAjWF3wqN0jUpd9kJSPYdgB68jU1BvR6kbCIco3pg9xXuZOcaKoCS1Mfgn7+30o1AtKM9kLPDOPbbz+AHTc1QuU7QIT5nJEI6hh6QW9NSxnamCpBb0tGHUskdS0TYU9c2a4xtn4z3hGNx3e6NUmwzvb/TU87JAp2LqTZ7+GbeJ/p7xHIoS65Dww9u0+r/WNWGXWVS3uqzlIBxGwWR75nbPQKpg4y2aa4fJuLs3YNIda78ObHU4GsU4P0fZuq4x5BeANA/sGVRS2Ufiuq9aDjpIQ31dcx9tipW5wf5e7DSR/xWNTC7hMT3P4+o5U5W6X/+iuYsWBSbEiO+ykZB6We6IY/WgN3kOB89gn0WGckxDY56MqyD0/5od76A+mYxHQ250Rodxv5/EDdohhIipcFJAnvcRU3fgjDBMxevjikQOBvxLMdi58EnFm5IKc3JPK345rhAvPgU/EIMz/HCgsGxQ/9s6MsABQEEhDqU+aKfBwCxiXPOnmRphWGAfysAsUwL9swxUOBLYhzPHvVYfuxOpl2v9+/qSHJYSVLh8D0oTsBptcBJN+XvYjostu7UQMMBLbEqALFKvzukvxRpg/NBUBT6q1XOhZqDz6+rfkEsaZONJ35etSHXm+y04sc0ZDfyYVq9ygbB59f1xvR8HjaCe7eQN3A5i6bsPUf3ZOC6FmMRAfMztDDW7ys+YRf2jOYdk5v6v5JxjWbPVH0eM5dsY6V/HxMLE711Rn9D2YrM83+jrKRWRdCXcjtTXPf1i/OQMGPlG6p89/aOeG7VI4Ve1+t60aG2JzA8bqxOmwCUQ9W+5Z8K0xKGrdhhxyvPHMjHirb84jnQRWLENzQBfNs8axowLHvEDIvU1T7+EaAxhy+I0LO1vOkK/nsS/AgmiIRH9VT0HIq72Ca2/Zmx7vLNP4oIdwl7coCa7sCqo3/d20x3pbZ76F3OtGzAEfIWr47xtXGUX6J+b9vd2ZCPAZVlW1xwBWcTTCTR+Ubqsrj0Ks6hnZqzF4ojBZ35L9U3qEZcA2wadpGaDlSP3ReoJ6pEXAS1yV+BldjV1jXpUnLdVG1LMXFBdpx49D7FoZ3E74js5GEtLtvq7RUIN9juuyL85ztuq7zHkRElepdUT4oKtu89pUsdB1au1+o9G8oQHhv0xUZ7d3cm4JqEj/EMJkfy7uVocnwuz/T5n1BTjeazCBKUyZOmGMg5WWBbrB7JYdnMVeWVRnp9FwSrJgwHAP5gFBzhQLMF7w+mEqhdkqxr79i2wfYe8p37oEpVOB9RUvfAStVxcGZdGzdQPZ6vL8k74QL0oC0v2vQvqRzSbPGYsJj5Sv2gxEzvxATD6jMdeoN6g3uOJY0S5xWkceRpCWv15DK4hH8p/wWn1Qo2pl9DR37F9Gu5Yc87H+vQ8yPgx7/DUP3gyS1227JoJUsV8LKo/0VLDBjkabrEJH6l9SW42OUdkYtAcNzur+KXIMWJ69Z/quILbv7maD+nk9lq9K6f+TospEWoP5tRHU8USUKReqfULDGul4WCYdvvTBtax1/ACeoZ6FYKI1vuDdqfWoQ5RvMELj17z/nAusjcx7pnMOpqBrF+UeXWz4LJW+59OZP+8sWmLNmfB354+2FlyWVvxDFomEfvlpGArvyPCPhEZWJHUgr6TGGbymud4UrCVzxrAHgYRPRmrZX0iU7QIxV3ceXi7TFILqki2GjVtvJO6K+YAFmlVYMaMvtVTv5vxF5p2LAzryouAtukaNofzWxKAuipbtijrkfFm3KOaZXVDtmxRGhZkzKB6hLopU7QId1kIq0g9St2cFGxl25bND2cfox6elmx1sI2Lk3o+j0uLtv5e28CCBOPxWYDF+a7Q+FiR+qTW3+LytqaXCqbsIq63HQFZxG3pdy2c7IZy3fc1rW/PAizOOdtzDBSsO+ZBFm9HXiSwzlHLyV4t3MasplJHxD+hswhtEfQRjJenGKXJbDbZvQSVnzyKcylCr0iR0pqhbKl7KDtLGZ37qaM4nQm+BLUpyitNrAKnm9UbsUkwasRvVtpPy9GhuHkk7v58b3MiXg3jWzceCrCfdzDLbQJ+nQPLEBPgLzigGVMCfb2DMrmcF1B0WTJvdEC6skrLsH/JwWxXCfhNDixdJcBfdkDTVQJ9wEEDM78WjP3NCuVXvB22OOtCJDKZqZvVjZeCW9VoRfLDSzEyqqTYA1zBVj7HlGVc7BDwcD5btigjA2r1B7LXgLKbLVsUOgRUZiYwPWaRqlV1wQBP79sfsq6rQ1O2tRX1YW2K6wnbjiAd/Lmtwpgb7yet+IitIGKCP3ha/YUtWheG8kdtucV2iJ8QDJ8rrU6rf5wDm/6rxHgiWPqcrcoybqsq6j+6qp3haOCark0n8kOrz9sax5aZQqD/aQ5qlQDwFyzYkDH0g3C0jXC+aOHxhk8TVVM/xmENYBt3dhqF98rUX2DSX2bB5pe1DfUHtuR4djNFT+/1dodjBh2qt+fVH8omHxfeN9fCcIGOcLSZqZb6K+7PgzG6vdbfZS31p7LAPu6hQO62V47bxsv/UVmQ9uI1kCuIpOIlaUWJfs6ldg7T92M6JWV8iU9p9TMZWIdW3CK/OgOqpBfKP6sJKjI+g3W3ek0Gq4W3EE4PwsDctsD0b3IKIXJofBeD31Zvz4DkB8Ir6rdSXondye3xZ7V6h2axxJevHapUR/1OpqsO0bfJvszyu7KY9T4F/jc26Xc1hbgmM4J3S5CI6xpTZpdlakd9uVJ8MNNBYB7TBijZrGge4IqR+bOU1WpKOlK/mtOfSavMVCAhE0BUb8+p/6XtDYxxxV/k6Q+6skQo8YbsNc2LPf03sWwkuAAN9eOe+nIK8znwA/nvKaTGSE1cAE+KW9MEblqz9bIP/48USnsL++cUVkbrmCzDKvuqp/9PWicuWXKP8UpP/d9MFcNUr/bU//D6SbA5wobr/+btoh64jeIgRrhz+nk5YgFHvqN0XP03baBd9MUZi2X1P5kXc2y5xAuzt2oCVA9ZvcHihAP1Ek99xBuzCI68e3uL5tJ3Czi3mlvna2xy+/iX6hU59YPeCJ8WxT0Yhvcb3PflGKthzrmqeMCasToXvIzAZGjJbvSz3AIPwkkLFdpkqal3EWGT1b27Z8i9N6f+Q9yWbiJiirLkPptXX/buN3FmeXbHoR8hhlgM9RMZcNl+lmORibHAipVAsL85m4bxVzve46mfdPXl/hanpiIEI2YJRrh1sjXV8d7+LLkAfXFO/ZyrkG2e6z4W4msdZH1ygBUzavWgp/491uisgQfY/vMid0b9i4hIFghicGxwL2/RTHNQPu/I1cNZfyCieElOvdDB/AORIT68/mEHaeFZsLsc1sPxvjX4L8/pH/HMPLcn98dWOVIf84gjGDD2bH93PFfzm7aGBlarIvUJjxOUAVr0s7JTGfBvEY90axiTJUcM5nZ7aN4kyET894vqW6wqDlR7HAtjpK94kdQEeyH2etqYiLasqB/KmbdhmOIPaPW/LUpHIKbZB7X6PxkYoSy2XvVCd8wJd/eIcklc0d1S/EhuMJTIxi7dI7XqAPv+n7lgkENdezKZUfyCK8ayoNUXuUI2rWqmRq73zdL7J099Ka5yBM2e9mVP/dcYbpu0+vsRdvQrHm2Is7NgKkNRdZnbr1vZcHD3x/u7qxgEFE69Mqf+t7W5VMhQ44pX5dQPEBRjs0OXj5mM9VKe2TcfNhmzjqF6Mi3Z6pKsKLt5+UnE69RFQItcDk1AmEk0C7Rpn4lcfjHUovsRRrKKPZuah7XYn+vmIRattjtkPLUhCSjXk7iSra7PxKahJOcx+CA8LFu2KM1NVtjcp4Aepx5zFGZR72bloGFZhxFH8rEXQy36PYQRBoT3zbdz6E89ST3xCMgiPtsKISB8ASxiU9HfOg+yeOgdcS4zCZF4Kk9XT5qHWLTNkVEQCV4T2dT62zJli7Fln0yLDhCXV7ekRVs/2EbN0PzoPIEkM4dMVXQR0CJj6kzfk1XmQCs2l6RoEQ7sWEpI3epF3B7s+yVAyaL8qtYv1kjO6KZoAXUv1ZHxVNJPDtyrfp59Qk4/wS5LawfRMKmvc3iERSJiEpvqjdr22BHhRMHGmmQg+GsOkYlinrYI2wbGrH83+9dWCoN7iPwGN5HcmRo/dBqO48W1woWTpZJY6+d76p26716bvMBTfxDvhDbgK+CamYENtw8W1Hv1mLbE3Ciadf8lrf7QhHNHR57YfU6r98UV4pCItYsR4PKP4rpUulWRIiMRhM9r9f6LMYrpQ7YvavXHBgHlMAbtPvWXRhZ9fJcpd0giR3cxJmes4hg/VSZAdt1PWpe8DE26RG4yH6fV36YE5BZKKDwEgU/p8+Ehwbhz55DsO3Pq0/pggofpy/bT2pkSrUXe/6CFU9kwCdTslMLtyRRPlFifDPA+/Z/dbUUNRyFiB9P/Rc+YbondieTVa3LqvzIhMLrT5C6DdQqj+CYT7CKBTPIw8kP4GdEsPRq8iDjXZjgwBN6TUy/1CEvu1EMMsAG9Ko+nh1IwzzLLsOc06b2e+ikvGrJHcIKL7wRa/XE4kuG+xutvMRITC1vv1GuyPN6RV2/2JDjXxuKod+bVr2WQau4Rwlu8A0EBYrp/IE+QKYaUsTr7u4xM3Os99X5P/UZSJ6fW0mHAJk/Nhzycn7hGYFTiG+f1O7JQNsX3afXbCagdEjRAl40yvibPlUdcI6yYmytuefLqdxJ4h1keNzAVMP6pBBpsTfbAfGte/z1bDVvyISpyAX9Qfc4zTwwCcynE0Ui9ILeJVjERG3Fb2BoIW//LO1ID+PN5rky4HWJFWivhX2ArGUgtIv+B3BRDEaOfQcFX1PNzYoUn29sBc7YfiWw+mlf/yWMLpV28uAT8KU/9kQPHbpKAP+sh5t0he7EgWirqXXn1x/CRuW6m+w946AxbOC7lmz31J4ycMx6+1Dbug3pPXv2lZzUT/TFKzHge1HhKW2J12jZYnZq/9+VxjKYWat2CFfU33mCyRdyc8HiW9nvz6m+hzS0PYs++tYgImujPWP+mCNkD6+VwGWeF81mjjMXZbDrcJFYUqQ/l1T+aUZgZNEP5WF79F5zmXRyt5IMY38cdWgxyH8D4fvU/EQgKxEVXREdMo+IeITcIt/v7o9lcBQO/T700t4ewjaa9xVM/Zn8X28J0yawrL9dno9ujCBW9C0v92kQ+26I8DhxG3Lm6QGVYSEstyzNYxX+tYjeQRxO601yTlxYC78VAr24/xpXrNlwu79Ck2EugBfO16NVm+6x9AbJgyqVi+YwDLBqAeU+3hBuL02xcbeupewtMC4GZIU4OgUOtI2MNU0D296r4fasJNsJhZHlgQaaJhRaGUdM2s+UF22/FbT9zxxCP6cGqcKSWZxKYaGO0yXqZB4Wi3enPLN7naT1f6VNzCKnzRlfS543xAqu4FZLS+AA0jtT6VEEkJydB+ywBfg4yOGLgEsNhMT7oqdzGHEQ9ul4N5OkM8lZH37Np+TjvWls+Zp0+K/NSYLVRsQ/EcvHLuPh5Wt4+LktbFSzAPUaLH67Ld6IzUPvqa3EeGL/4WpoHJ0/DljeqQbVUE+Wyr+4qxY68HlqJn+kdTx7NnUg+SCxdGSZ6R8d8ch7H9H4R0qkUyfJxaVqXXYR2aXKXl5rtCgDpMBHhFQ7oWibwKx3c9JhAr3JQ20ECvtp8S67R6ckXiPx2p+pLf9dYUZabXXmNmpmla+vV9F3kdfL4MS5cLzWJIG+QqqT0MPM8MHnFeKMpxq8FbzIlw0an2mxI9zenzwwfbmrdi8dH1I6+aXyUPP9KO3pMrLuy6SY7crpKPpxZJVkUn3qWSrIYgLJ82QmT9SLYgO5TXpmc3VVpmKH9UWjP1flUCFFW9Qxnale9LS/03FLuCFVO6GwnnMezu2FK8uOQfEg8HyQhPxzAVfro9yLS4nqBniH7yYvIOhwfhJRkBBAz6RXNxtxyHYCWIfVpSF1U71OZktlzFcKZRa3Owl2z+8gzO/P8TpVq9kPrjljWC0g7+1zSWabepzLtTICEXOKeYjz2hXHfeEr2GepnwOCUiw1vMGNmXnMzYqmce9l3v+Cp/AExDFP4oqcKu/sRu62UvuSpBUu6k6B7eib5Wjg+R/QfG2sRNmIKHt72DP+RjSCtrSck2TAm+BkVYS6CqVkHavUIVK+SDUQksQuRmn2c2LGfjNMOLxvI0PEPHObk7xAtQRfZEHIQUfeYlY8KZx7MtMNt5RXGyMhuBrCPVwGvrIPnTnY3h+Fq3/4uv2HFm9vKNm8kDb+KSLOv6wvlS+OpfGqsVdZYa/kVT7taYT/pBebT/j3YgPlqY91vV7Eu1VrN2hRbkZvrIX35o7x8PAS3GP8FZWCZb5jCA3mVG4Xn+luHbnfvhOnjkfwczYoIZ9kKeWyHTzwIWfdHlhaEjz4azO+ZOXLNq9K2MJNJfV5OLWQFtLg3lQdpnHsMrQhvWi1luVye48WCvZwEVGwe2zWDdVt4lbY/eLEllH2ucUcYkN+Ime9UGbGT6PgXWoiY7aBR9nvysykA861bRxhFn1mucnYwxRWth+6AJj8/dNAX5LRXzYDniUBjJjy9MKfk5IrcvgFyRzCVl32OruAXn1K+fy78auuu+XLcxdGwHxZ1XyhV5udrpFqG3fMrqJL9JYNX7LAJrvsVtAoU+d5q0LN/8UOq8Wi6bJHSUzcLd8+m5wPNKue+NcuS7TbKxY5P1r5Alg2MgmebpQZr7vctNr/BaR41MiAXL25YvcudNSWZDoJkSfTYimaxWJaNlU5U4Itv1jHTms5vha3fiSNngL3Ar+GYmFrnpZMrwKpIynm/2c64O+TsNJnKyR899/CyTQbWZ2gkni1ZN8RsO2GSNbTnQG402TZDMMwwXppTueGWoZm31CP14zldiEzX4aBpYNSyjDr2/Q5rYHEHXQG4hJlis+PKd7LLlseUaFlBeABzVyHqss49LT8ot6vmU3Cq3JJJ0+4LaV45EBOZO13cKCY4eYkwkBZOB0bGC8bzvUtAi617OusGuLQmJnY5MOBjwdmqcW5XzjTl+Tq54+1uIJATpaL51t9Jjk7yIWGzEE9V5QRBvM7PBJkxiPZdelxZQWviSnYkEmNRi0TB5APHD/kUlsnac0DkZE2irFqvg/WoEa0RwhjNEVk0D2qb+4QA7A3Wa3PMEPsNHo9IP37uKL8iCBv7hHamlPKltIHKGy/UrBTVbaQFnRwV2I56NftJvpzlYWxPK96xEVlD5g0YhkgOfFjQgjp2CRbYVCXOkRzqOSkzwDfm1PJgHvQm9GoeJBLFUDyQU/nB5P4xGyZOXdJZAR2MkEU43jpMoQsiHsQ8nTVtdLSgFuWh+zQy/De3a9Sjc0uVdFeRCjswPc+A8KSl1oxVFYwyIA7lxBWLRycCjCGe8aPu6jaNgcmt+0WqyeWDS0lDxV/5VjXz5T7dNh/AxEuYR/NstbLVeBvZaictLHTdfpwbFOXfneTTH0ULZhww9QpD2fs0s0XjN6NGtiJSb8vp+d/hRUwszql8yWkXZGcEEXAhoewbKt7iMO2hA5jLcvaeBDR3K47aJhWZS/Ec200nDZTiBl4UJy0Qv0YDpIF4ajhStFvYlYjIOqF4QJQXE9423AGiY9xN5pqBv4fNuTwZE+yBSH9UNFzIztl3OYRA5MAhyG6f/n69aFCUd1PKhrhPLE3EmcI6oKoNvNwEkh0ll9Ps0AbnbpVPcYR7O6DMKANzxXnkDYD8Dlkuwak3ZNryK94YYl80LElYZnTJcPryxWH5Y2mH7O9ciBOv2poSbaSzFcvvKhfRUq+W9XHWz7RvEdyK21QnZkbGscSNSE7OwzbEvKnX5tUpM2FOmO/21GWQc9236X1mY2Ixx1ygYSLH3emoOm6E93N4AnTFPGn1lpy6ch5kVjezd5XpLDg/3OtMRMTI9+oEVDos7pqzwbK6BhHaOSd8mNfXJsVUR96a09cdYdVKIcPr9UcQqrGqH4SJ5yZx8hvmuQ3ANIfeh83Dk6PvjfNw8M8Y5+ymRDkDMOQirWUeSxB6chs6EfDMTxzSn5ziubjVVgnNmxdVOOPfE//4iw3iTAO/hDhEg/BRrWZsmb671Ly7h6tH3msFd5Dk2FE75XWJYVDKw5WjypI6Hx7KPh+pgmZ5GKjr6x1YnXWYtu95PW/f/OzNvOtnsF4dKcGjtZx0lf2bIM3WPb1KV2xc7MpZZLFB0ljv2nI46KLJ1QF0vQRUOkyAuW2CyGeMEPOR7ejdOc6bMapFrCLLU2JiHDQmYOGLPvusvULxTrgxRNOtrsl5s+EM1aSnWfxw2Fbk75cXAOhcYccGlrFhoRDqIBHqFxP8qjxCdq+Nl7ZZt2hlFibe2wGrRe7sjnHbem6Iusr+RnkFwWcm/rjpYcNacCOAE2iMeyLi5fbNqIDKgRktClwgVUAcKkBMxw4oV2PesBXJmxVvad+MTceDFs8mZo1weJaV/CXHV7jE+BbmMc86uR0VUCzFpQ3Ykbs4fKat/vigH8l1V+geg7L17HHdOXJsswg9U66EsmBNVNo2WrNamK/L36Vhu9yy0eUnKm3rDdHaZKtvxrOpvAw4YPNktduvqg2OUrSU1s3DnTaGleaLnMe5SThP1AAcDvl7Zv1CNThiW8yzIqi4u9nE9HodJp6lhR9+wIKSuwPzixxyrl+9M5lxETFzRS/iIOfysQ1IGtvZLExsyWF9IwLMszVA1djUTcauLu+alTD8e5xLZ9WB/GKnkPQZpBataBra3s1PZXGoV3Eu0cXOZG93gou3RaRfNBJ+sHUZawgMhZuHGUqo3tRd7sVwsaj42JytLsGEVGYZsfH7fz0jkLIW5QgzQhd82NlgSUwCcavK3NCds2x6BYvesGiQHUYtpE+XoqVJIRBFBpJDjySUIfsZwSqd7xue5TGycSMiWa/oEl4aexDTMgikR+zsJn6UY78i/bhpjtRHCAp0kq0rcTOxvel1kGr7BILMjZJGFMbdF842iUHZ0WCDJ7grprNP4EiPw/uTgneRMlREGXLkYrUBgtIMo3WLWR03wvuPDAHtGSTMfVICN3FwYiaClutzobpYTcGxqBFzJCXTiz7abcxeMEcH7qKYTgacNz8kVp9jvxBrWzbLGnWJ5le/sxduNZgfn8gUu7I5YQVxC0QXxXlaM68D/NBv2F7KQdymbYa4iXEFKljNaZnL/z5RMSKc264NisYwyuFoRPy5KpCFBMLZ3EAW5+e0ZYaqcvJJda4JzIlRFbnRsFlCGfV6lasBKXjzTVkL5kENktkzVBCYPFI9x5zKjwLYIWNlxfgGMjlEleVXldiAyDAWS1yP+tEsVjpLXX0KpboYHECGu+rPc7bMks+j9ljNhH5uc14P46VQ5TwrH7v0IoOfWNlcPDT7k2qm6+KuhaNLMBokHDmijolIfZED1xyTxvgTz043F+4/Y2qrIktLknWwQKNEXpH6Qk4vUkcUy35dhTAeioDJQeDsd2xlHVv2NuRclQa75LAjZ4dwUCZQgwbQZD3El9wM+zOmlPXvSzTPBOZUibuppKS7+AN0Kgx5j4zoGZ4R5yKaHxOFU8+5ogSoJfrzbJa4bNv2pFKQvdjs2e9nNe/CZ6g+kFPpYlD36aXJJh0dME6M3fIgxE8IG5bmMWwB5sFsoZH6YE6vWBHH2yaX+zn5Jq2z9U07ydxG5fQJuprC7Yo6aeYsxlm3hoCVcGoO3rrERkfz++T84lBi8hWRLCb18j1KqdJE6ks5fcVWZpb+iXPLwdx8fDmnrmLZn50SfUN2V8sXplc5PQTMNkqk1TUZkxSbNi6DcvraGRPsTNFncuo6KQaJFD+bU9cnk1I0W0fARN2wPdnaj5rjDsiuLYeQnWT+v5Lj6BEPL0h3tKKhWhGOP5rTNx0ML7GtfTynb94aDZkexLSiHm66goq8y0DP7lOPuBRl2Ssz1D+W049MBI4YpLE/CsUht11hKqBqJ1L3x5PxoShRNwYZr4kc9hKrwwEssszhAQRoDqG5/t7OXfvh9DATMZ47bzQ6hIC48uR22/zVON2qdddMUAgXbY4CViViJxf/uUGv9Mnpaw8DhjnZjKl/DcMktZb7KJl4T2+O0HMTOXRWh3Vk5wRfkdEzi4QwzNKxvrZMorsHW8JJsHdKmLIZ8Ha4a22/vc5CczkZADfF3IycyGdR5emoJC5LAW9UrsIWCaih9m3WFfIeBEA7YDOw3T3TeDEC1JUPLXIoqad3aViqlAUaiIKDROfSgBwW4BtTZusPZpM9jhqQSJyXaWOyy7nGjt+bszLDqCwrgRCntCBQ41pYhuZxxymVFxLUKRvFLE0n/cEWTHFLOYe9NS/359FiBq9T9fy8uLyuH/WiPDY7tgutLNheXKoX5NVCHcLIQnmPFiz0Rme78jAPJmOcTacV6p2eNmodl/+ZcPtQaAtDl1wGX82pRxgNUi/UekFypX6ErbLb2c1yB9cfOau52N/aggWVV0uRxFEDfE9bsxyXO8LqM9WxuFzGmaAzA36WWjHv2WC7oI6brNNYAkGmuJqcrU/ajlv9wxGiBnAqmls0crn89Zy+LDP4ZEn8S05dvg2lDXtqZRhXGOpVFI1VxnZ12NyfRSKK8dYIi0+cSvZIdOFKg9hC7MbSXIWmEFvDno7YWkfd8UCs1dZ59ZK8vsaA2mEGdO1mrBeRenFeXzcNt6zpDMLv3Q/ROBdgX1TXm35KU9RwB/ecKMIqDNuh32DqfMJI3A2I3N7iqYftyQHicLxVZB4xRqDdmHzugZvS0Jyx5AvNN+Hnzg7lEWfVXmzWYIkRPHxrNNzblN9kJca9HZ7jXy7p8/qRcIcknQWJ7PS/NK8ehf/VDvcw6QipbOcSYo/2L4Fuz19uMo7Yo6M1yc27JxpnYQl2RqMtjGujvM7LR1qL8nQ+0zXH23MMnKmKv1AGycpwe7u8sy8RopWUFJZCa+tPLihvYD9T16CaRYOPYVzmqlDK27zT7IItVRkkywiVZPgLW0I9Kppf6iKYzg56IiC6WNwk8CmKhqTWhyy86dbOIV3opb2LYcuXQl5jQDKTx/YuDV+R8cULw1sYM4R4hJC024EsZsbo5BCpl+d1Tool6U/Q8puSa5keGvMUCnuXgi6043e+RieV5/7kX6VHYjY4Ff/tbJ2gVmQ5esTRyK/b2IyexpWGzivzeJZ9u4ULtgGqlRIX235RNku1WmsWZUvVQUf++B45r1irFs21nrn6JCNfamz7gfsr44W6ubhdyD46WLSPkuSxAaUluaeL3yksVxsbUBSsYzEr7dAe/1OWlr4xSwkntu9Ctu+Fub4Xs30vxR0Wx/aCjyuzh3gQsKK8babclTj4cJfTj+RiIm8cZAt/tiqEF/amWGmWtgW9nr1k113jqzfm2Yjdg1oLeZArrm1WdiAW24LelFfL0rGM3kJeRbTfT+gmUX11pbzcS66q3R+EtkXNhMif9bTvxOw9obk+d3+dvlIVfSGX9+/qFmsyn4VGk6t8KVFY4PJe/ty9EfliUuhx1x2jLK21fVSwbSooL2fLWcRj9u+orZgpOk4vJCfs5FVXhZuTtGrYvwh8Cn7N9/R6tWbzjHmNcFnDd1+mvbwKF+1uZ10wr0glgpKHSSERz+vySn5v4cDF6bl92XjNRUGi9PV4Zkzcm1m297ngpAsDHFw4A4/UG/Lpg7jVeN5oTSQRv5izDi11P1oVXZF8QkVmE1fTkJH7FD0AYJT71WDB5LzGvwaPJW4ahOZNPK2HYiH12NpGPLS5pzIJvhDZkH64IdMM2WzXb8kwniL41OIBy9d2xDGA+EEGZ24A5pm1UtfIHzkMCOj7ojPm7Yu5brB30QQW5h9ieua5Y/rgMLdmVmheqMgLJMEpmI+lmiKlhWBd/oy6K9n16gpLKE3TfIFy2eZ6sS04Zr8TmZRXXDk2DMfTB5Luk5DOHthvQiYvLU+Zons9eVmtmn0reflFjymvkMch5vlCBnhlCkyu6K8yZFFtYjGsTxn01WVEjk8x619ocd23Le8dVe6sL59KViyYdpP5QKDDpmB79rVGf7TBnsd5xOkjrpuW5xTygw1Viy+ni+1OtWxGp+WvxdMhWa9R3CDJFd1Xp/Pr8vepCuu38e/C+u38u7h+B/8urcvfpFpev5N/j61L1EDmayW5GT++2uSyXHInsD5YmYDsScE5tS7Qy9gKSC6fu1i/wjyUurIr/15V9xtd0qtr8kf6rqkI7NpKh3+vq8iIr1+trnUNjRvIlYstN4CH1TnRkd6I6SK5SQz4zX6dfx8uymBk/4igjmKReaRw9ShmXOg8+i7+eUxlVVo/tlgqCZuPc09UHt+Wnr+pLQP4ZrctPEH+8jPpt5SxQ6RPZOJIvjUomr8f+aQzJeHz2zC4JLcERkC3ymBuE8DtMrg73N8ifHLJ/CnCO0sVmZmnBC1jKZ9qWHjaWZM8vVUtd+yAvz1odtvmg4zPqNZlPN9BHEdG+MxaseTLuL6z2miZvzz9rFK30zFyKdq3R+RKwr972MAC7cSTVyFvZejLaipipsmvNrsdS2uNa0Bst5nJ9To4wlZ1terXKvYj76dr/pp943VGVLgtvwhSz47VrWGvFu8otlrmfs92dXOp2MASkCsTbGzVfKadrkXmFWcvqo1VIeC7Qa66CV5DU+Vb5JbOOoEsm6sGfrFt/nLn6eyzrBOpuj+c5d6tNxJdfTQhAaIAjtJjKlV5Pd40PDyukn6h/PGxoJ4oLe0q/lY7AU9y4rxFUrRJ+LwVx0u4uI2dTHp9Mhqf/fD9U9rNsyRPJYkJP4280DZcPb0jT+PIPLODU1MyulVMplOX1/3yGW5syXvy4euybzQ6hzESjcrDdNdxUojzmTYLMUxMsIh3MZn9pXiebZ/LMcaxoNzmsthCV8wHRCV3MmhVGwlfp+Ca5HISlNgo4xWiTbbXKztt35deyV/FfJeaFn61jID0GpGfBV0rDJJeJ6nt83rDSSysG+hC0Mk+TMiS3iipI3WTSA0/hmypyA234J2pNWW2avVi+66uaVG37wzJoWd1M56mwa5Uixa5leTusopl2Ttur8bJXTZnwh6RWqJHuil5VIWV52CP9eutdWyr9PhNq74JrH8z9ssu7CewfPy2+Su531JtBLBhW31bvNpuF302mwaFO4PYnn07NobJsQ/nnoGl4SYnLn4HLUXc3ynjI31WfBJoi6ahxb1bKQRx4TYKnbhwO4VuXLiDwkZceDIFo6pSuJPC3VIwPN6TWP57ZQ+xU/dd6Q7z3bJ+3dKm+D0yjX7Pyeo+/IA1Y0x69SM/UPP0IBqU5WfN5kOU5suw5khqHa8QF0UcmAdxYLJVPnBcl+TTsdsClwOohKvqE85bQ8JVR4/+ubJ46y33azTluT9OoNI/TkBBVwh6irM4j5zDDBbLYj0u8TcNKHnlS/46jsihtZDK/MCkk/4deG0yApEaAF4R85r8xi09lRTmTiUR9e65MG7fkXPJcOzyBaKEBrE4nfYdoRVdmOtBnDzjbsrft0gOWKgfs09Gx+6UVzVTmrM18eO5/EW08CRnQu4D+LcHpsf340HOoZmfNaaz+mFm9aJ6n0qm1uvHQIbp6H0Qeut9IkGZX0nG6LEm7GTr5Yt3F7XIMPARGPCJ9hj31oUgw7hMA7mh+AQ40bi/F+1wy6A+zvnBTzAcGIrbEsWyyGm1EKAuMukns1X0Y2T1KWQ16tvf06Z0O1KVPRzjaQd4pn7H2EjdxYiQeklYOxfcE1j7m8fEd3rFljgehWbDPA5i1igtyJYdFDd88otFqV8KrJK2OICEHGb6yFpmG+oEF0BQ0pF55W2K2p/7zB5zy6bvU4EXYLyB+LPPlqCVZ54w2Uje7p9Seua+U2FK3HbZUgPJMXwJxMPAp4nPlh8iXgY1GyCRiR5jDiQm47HEM5HEpo1FbaqcieVVJdAisbiHDjzm40NOddDkKG/zci8kvz6H1fSHThQ486OMtpjBea9GcBKKk2PhhtQL10X5AwG6MMNBR4fH0h3TTFBb1upu/wJJfhCa351uGAVfVoVLU7HV2nOkDkyR69gE2x1Fkx/u7BG05F5tuGcuEO+P39vkhlwqEORm1NiHcLYlj3MKBxd1xUVnXi8k1FfFBJpfi4ZxB4xdTtZYVW+7vzscyfmZKYQL7swIGWZoAvlCXhf2I3NolsPMlv29O2y4PgyFtiWuvcloYCHQlBcJScGON5BessgGQLXgxnmLalsaGMFU12LbABtSoE0klbYuUl9heZuGMSDGVl9m+RpU9c8xjlkO8SajNDeo3B3JdbCJd6YoUOEmSz43aeSlI4YuKNx22LaR+hpBQhGOaYSaR1s73AZtJDJmg2ME6p/oeuo4+ypBgtCS/zpr5v8D+QQAAH2Ve2xURRTGz91Xbbul2AfQ9xZKa6QKUlLU7t2dGwyt0rVNoZoahJaylpclgRZSIPQhUgiCETRQtEn5QyQiYAQia/fuLkQjhi1CgQgRTW2aSiAVS5REIKnfmWXxmhi/5HR+3507c8/MnNkqionMZP9o3/EvrQmdRKFOhU6Pm71svXfW0plzPesWrGtqKX21uGzVnDeKKVlJOWkNxqZSBmVRrqIcscWb8Mdujg60KGRBkIksivWF1fXNb3obm8imPNZKRLFk5waSzXjSTbTVjLdJIZkF5ZLFZK2sa/A6nvm/QcmMicp6DMTHeaSCkTbrK976ptVrMDKGHo6N33I57NwyMLY4Mkln+fTTcp7OitrTCZHJUiidn2Qp2ZRD+YpCpo39Fy9uWrF8+aY7o6PcZeY/WI9CBZRpSWuHm2oppBl4teNqONzRPzZGPQonM/B1rInTocm8kBcbm7xrGutWOSoaV7U45tQ1rqtbS7ZoapGM/nNZu5CFTWlLmArPgbmlFjoGRPj7DCeQelL3uTxPzxEEnc0Iqau9CwQ91O+zagU91PYs0tBIvf98meTxE3vUzUdfkryldIer8tjLkrOrV4o7fzRIdtweEYdrWyX/+FetduuDCsllv3i1+yOReQovezVnw0JB0J++Wu1qrRAE7Zk0TdOW6G4gdeTeEE9VVJcAqeLYBG3BmScFQbb257SB7pWCoGcPDIsrd08IgpYdnymiz7fHDIuQ8oOcpyupXcyeGxIEbesOi5ueQUEQc2bCEzKf4pvnhEKLJS8JbBbFtz2SD2Wdd5+66HzE9n6r5Mrsfvfe0W5B0L6fyrXoc2bbN5H3D7sKNLM/Ms+9U6QVDS+SnH51THTkR77bkkTaroZBQdCZifnab0mRPIfeKteWBiLzs0baiwN3pglVATfnhNTS6j06kNifnL9WnzFdqCZwoq9GfXA/LPvYR4XC+peM3oIwyuitCKOM3oYwiv0KT5F649pnagz42oatuutGjcyF/e6jXapv51b1MXD9hrjQz6aWIJDYf+hYIpLrzrljwYVlewIlSp8KRLETLfpquauqoEePA1+faw50tx2Ufex9O20ufE+PBx9oKNKP3Mt0AYn97HShVhU4AnYw+tT0Hfmyjz36dN/O/EACGHO6PIEuOSf7+tYa3fKrXR8Hfm9kyN181uMGEvv6E87Q9vxPg4lg71Ch61JvmrxT7EurL2FMXy+QOq/bVYs/zQ/EDSV6d2i/+1BVvPtxcF+43Bm4Wy772O/vStMTfWlqEtgTqFE/d3jkHOwLy4p0+JJk8IXjNerU14tknuyxn/7mnDZ/Crjz+jt6XzhcAsTPEtdImxPjevnbtwb3B7/LsQeBlIqIagLCKKOfiDAq6mPOj7onoUX+TjRS7Hcfjaw1DTE4dNBt8qe6gdJHlY4wyugzEEZFfZ4vLpSJlteK9fUCif2mOLm+El5P1eaDwdd6U4NA/G/5R9kIo4w+B2EU+ytffBycdzPF7SD8br097Gw2pfuB5CB5LtjfcmcumPOofFApCGIf1WSEUUY/BWEU+2/nfeLeuG1CMA+ct7fVz+sBEnv+FppH65l/YTSooLUg+ExZ7E0IM4Kf893kO8h3je8U3x2+I3wXuOa5trmGuVb5XZ6H64/rjOuJ64bH8Z5yLfCZ89nyGfJZZSAyEfwO58X7yfvmoMg+TEZMQeQh6G8=(/figma)--&gt;&quot;&gt;&lt;/span&gt;&lt;span style=&quot;&quot;&gt;&lt;/span&gt;" style="rounded=1;whiteSpace=wrap;html=1;strokeColor=#0070F2;strokeWidth=1.5;arcSize=16;fillColor=#ECF8FF;perimeterSpacing=0;absoluteArcSize=1;" parent="1" vertex="1">
          <mxGeometry x="-2006.66" y="-1480" width="436.66" height="206" as="geometry" />
        </mxCell>
        <mxCell id="8l6RRYxQaxA69R045GtP-13" value="&lt;font face=&quot;arial&quot; style=&quot;font-size: 16px;&quot;&gt;&lt;b style=&quot;font-size: 16px;&quot;&gt;Subaccount&lt;/b&gt;&lt;/font&gt;" style="text;html=1;align=left;verticalAlign=middle;resizable=0;points=[];autosize=1;strokeColor=none;fillColor=none;fontSize=12;fontColor=#1d2d3e;fontFamily=Helvetica;" parent="1" vertex="1">
          <mxGeometry x="-2021.6600000000003" y="-1527" width="120" height="30" as="geometry" />
        </mxCell>
        <mxCell id="8l6RRYxQaxA69R045GtP-12" value="&lt;font size=&quot;1&quot; face=&quot;arial&quot; style=&quot;&quot;&gt;&lt;span style=&quot;font-size: 12px;&quot;&gt;Multi-Cloud&lt;/span&gt;&lt;/font&gt;" style="text;html=1;align=left;verticalAlign=middle;resizable=0;points=[];autosize=1;strokeColor=none;fillColor=none;fontSize=14;fontColor=#1D2D3E;fontFamily=Helvetica;fontStyle=0" parent="1" vertex="1">
          <mxGeometry x="-2018.6600000000003" y="-1508.75" width="79" height="29" as="geometry" />
        </mxCell>
        <UserObject label="&lt;span style=&quot;color: rgb(85, 107, 130); font-family: arial;&quot;&gt;&lt;font style=&quot;font-size: 12px;&quot;&gt;Use APIs, integrations,&lt;br&gt;adapters&amp;nbsp;&lt;/font&gt;&lt;/span&gt;" placeholders="1" name="Variable" id="dH0JJwmxpSZKomX-R4ox-19">
          <mxCell style="text;html=1;strokeColor=none;fillColor=none;align=left;verticalAlign=middle;whiteSpace=wrap;overflow=hidden;fontColor=#1D2D3E;" parent="1" vertex="1">
            <mxGeometry x="-1774.9976158940399" y="-1519.75" width="206.34" height="32.75" as="geometry" />
          </mxCell>
        </UserObject>
        <mxCell id="8Uogrh9DGqOY0QzcngNR-35" value="" style="group" parent="1" vertex="1" connectable="0">
          <mxGeometry x="-1753" y="-1306" width="110" height="78" as="geometry" />
        </mxCell>
        <mxCell id="8Uogrh9DGqOY0QzcngNR-36" value="SAP Destination&#xa;service" style="shape=image;verticalLabelPosition=bottom;verticalAlign=top;imageAspect=0;aspect=fixed;image=data:image/svg+xml,PHN2ZyB4bWxucz0iaHR0cDovL3d3dy53My5vcmcvMjAwMC9zdmciIGZpbGw9Im5vbmUiIHZpZXdCb3g9IjAgMCAxNiAxNiIgaGVpZ2h0PSIxNiIgd2lkdGg9IjE2Ij4mI3hhOzxjaXJjbGUgc3Ryb2tlLXdpZHRoPSIwLjI4NTcwOCIgc3Ryb2tlPSIjRDVEQUREIiBmaWxsPSJ1cmwoI3BhaW50MF9saW5lYXJfMzUxNF80MDIwNSkiIHI9IjcuODU2OTYiIGN5PSI3Ljk5OTA4IiBjeD0iNy45OTgzNSIvPiYjeGE7PGcgY2xpcC1wYXRoPSJ1cmwoI2NsaXAwXzM1MTRfNDAyMDUpIj4mI3hhOzxwYXRoIGZpbGw9InVybCgjcGFpbnQxX2xpbmVhcl8zNTE0XzQwMjA1KSIgZD0iTTEwLjAwMjUgMy4yMTY4SDcuMzQ2MTlDNy4yNDY3NiAzLjIxNjggNy4xNTE0IDMuMjU2MyA3LjA4MTA5IDMuMzI2NjFDNy4wMTA3OCAzLjM5NjkyIDYuOTcxMjggMy40OTIyOCA2Ljk3MTI4IDMuNTkxNzFWNC45MDc4NkM2Ljk3MTI4IDUuMjE1MzMgNi44NjE0NyA1LjQ3ODg3IDYuNjQxODUgNS42OTg0OUM2LjQyMjIzIDUuOTE4MTEgNi4xNTg2OSA2LjAyNzkyIDUuODUxMjIgNi4wMjc5Mkg0LjUzNTA3QzQuNDM1NjQgNi4wMjc5MiA0LjM0MDI4IDYuMDY3NDIgNC4yNjk5NyA2LjEzNzczQzQuMTk5NjYgNi4yMDgwNCA0LjE2MDE2IDYuMzAzNCA0LjE2MDE2IDYuNDAyODNWMTEuMjk5MkM0LjE2MDE2IDExLjc5NjMgNC41NjMxIDEyLjE5OTIgNS4wNjAxNiAxMi4xOTkySDcuMzk4OUM3LjIzMDIgMTIuMDMxMiA3LjA3NjM2IDExLjg0ODMgNi45Mzk1MSAxMS42NTI2QzYuODMyNjkgMTEuNDk5OCA2Ljg2OTk0IDExLjI4OTQgNy4wMjI2OSAxMS4xODI2QzcuMTc1NDUgMTEuMDc1OCA3LjM4NTg3IDExLjExMyA3LjQ5MjY4IDExLjI2NThDNy43MTc5NSAxMS41ODc5IDcuOTk4NjEgMTEuODY4NiA4LjMyMDc2IDEyLjA5MzhDOC4zNjE4IDEyLjEyMjUgOC4zOTQ0OSAxMi4xNTg3IDguNDE4MyAxMi4xOTkySDEwLjAwMjVDMTAuNDIxNCAxMi4xOTkyIDEwLjc3MzUgMTEuOTEzIDEwLjg3MzggMTEuNTI1NEMxMC43NDUgMTEuNTQ5IDEwLjYxMjEgMTEuNTYwOCAxMC40NzU2IDExLjU2MDhIMTAuMDE0MkM5Ljc1NDIgMTEuNTYwOCA5LjUzMTk0IDExLjQ1MTkgOS4zNjU3NSAxMS4yODU3QzkuMjI5NjggMTEuMTQ5NyA5LjE0MjQ0IDEwLjk4MDkgOS4xMTIzOSAxMC43OTQ2TDguNzUwNTMgMTAuNzk4NkM4LjUxNTcyIDEwLjc5ODYgOC4yNzg1NyAxMC43MjAxIDguMDkyMDIgMTAuNTMzNUM3LjkwNTQ3IDEwLjM0NyA3LjgyNjk3IDEwLjEwOTggNy44MjY5NyA5Ljg3NTAzQzcuODI2OTcgOS42OTgzMyA3Ljg3MTQyIDkuNTIwMzIgNy45NzI5MSA5LjM2MzUzQzcuODcxNDIgOS4yMDY3NCA3LjgyNjk3IDkuMDI4NzIgNy44MjY5NyA4Ljg1MjAzQzcuODI2OTcgOC42MTcyMiA3LjkwNTQ3IDguMzgwMDcgOC4wOTIwMiA4LjE5MzUyQzguMjgzMTkgOC4wMDIzNCA4LjUyNDc3IDcuOTM4NSA4Ljc0MDUgNy45Mzg1TDkuMTEzNDUgNy45Mzg1QzkuMTQyNCA3Ljc1ODg4IDkuMjIxOTkgNy41ODUwNyA5LjM2NTc1IDcuNDQxMzJDOS41NDI0NiA3LjI2NDYgOS43NzQ3OSA3LjE2NzE4IDEwLjAzMTIgNy4xNzU5OEwxMC40NjkzIDcuMTY2MjRIMTAuNDc1NkMxMC42MjIxIDcuMTY2MjQgMTAuNzY0NyA3LjE3OTI3IDEwLjkwMjUgNy4yMDU4MVY2LjA2NzYxQzEwLjg3NTEgNi4wNjk2IDEwLjg0NzEgNi4wNjgyOCAxMC44MTg5IDYuMDYzMjlDMTAuNjI4OSA2LjAyOTcxIDEwLjQzMzIgNi4wMTIxNiAxMC4yMzMxIDYuMDEyMTZDMTAuMDMyOSA2LjAxMjE2IDkuODM3MTcgNi4wMjk3MSA5LjY0NzE4IDYuMDYzMjlDOS40NjM2MyA2LjA5NTczIDkuMjg4NTQgNS45NzMyMyA5LjI1NjEgNS43ODk2OEM5LjIyMzY2IDUuNjA2MTMgOS4zNDYxNiA1LjQzMTAzIDkuNTI5NzEgNS4zOTg1OUM5Ljc1ODMxIDUuMzU4MTkgOS45OTMzNiA1LjMzNzE2IDEwLjIzMzEgNS4zMzcxNkMxMC40NjA5IDUuMzM3MTYgMTAuNjg0NiA1LjM1NjE3IDEwLjkwMjUgNS4zOTI3NVY0LjExNjhDMTAuOTAyNSAzLjYxOTc0IDEwLjQ5OTUgMy4yMTY4IDEwLjAwMjUgMy4yMTY4Wk04LjQwMzk1IDYuMTQzMTFDOC41MTA3NiA2LjI5NTg2IDguNDczNTIgNi41MDYyOCA4LjMyMDc2IDYuNjEzMUM3Ljk5ODYxIDYuODM4MzcgNy43MTc5NSA3LjExOTAyIDcuNDkyNjggNy40NDExOEM3LjM4NTg3IDcuNTkzOTMgNy4xNzU0NSA3LjYzMTE4IDcuMDIyNjkgNy41MjQzNkM2Ljg2OTk0IDcuNDE3NTUgNi44MzI2OSA3LjIwNzEzIDYuOTM5NTEgNy4wNTQzN0M3LjIxMDA2IDYuNjY3NDUgNy41NDcwMyA2LjMzMDQ4IDcuOTMzOTUgNi4wNTk5MkM4LjA4NjcxIDUuOTUzMTEgOC4yOTcxMyA1Ljk5MDM1IDguNDAzOTUgNi4xNDMxMVpNNi42NjkyNyA4LjM3NjUxQzYuODUyODIgOC40MDg5NSA2Ljk3NTMyIDguNTg0MDUgNi45NDI4OCA4Ljc2NzZDNi45MDkzIDguOTU3NTkgNi44OTE3NSA5LjE1MzM0IDYuODkxNzUgOS4zNTM0N0M2Ljg5MTc1IDkuNTUzNiA2LjkwOTMgOS43NDkzNSA2Ljk0Mjg4IDkuOTM5MzRDNi45NzUzMiAxMC4xMjI5IDYuODUyODIgMTAuMjk4IDYuNjY5MjcgMTAuMzMwNEM2LjQ4NTcyIDEwLjM2MjkgNi4zMTA2MiAxMC4yNDA0IDYuMjc4MTggMTAuMDU2OEM2LjIzNzc4IDkuODI4MjEgNi4yMTY3NSA5LjU5MzE2IDYuMjE2NzUgOS4zNTM0N0M2LjIxNjc1IDkuMTEzNzggNi4yMzc3OCA4Ljg3ODczIDYuMjc4MTggOC42NTAxM0M2LjMxMDYyIDguNDY2NTcgNi40ODU3MiA4LjM0NDA3IDYuNjY5MjcgOC4zNzY1MVoiIGNsaXAtcnVsZT0iZXZlbm9kZCIgZmlsbC1ydWxlPSJldmVub2RkIi8+JiN4YTs8cGF0aCBmaWxsPSJ1cmwoI3BhaW50Ml9saW5lYXJfMzUxNF80MDIwNSkiIGQ9Ik04LjQ4OTk0IDguNTkxMjlDOC40MjMwOCA4LjY1ODE1IDguMzg5NjUgOC43NDUwNyA4LjM4OTY1IDguODUyMDVDOC4zODk2NSA4Ljk1OTAzIDguNDIzMDggOS4wNDU5NSA4LjQ4OTk0IDkuMTEyODFDOC41NTY4MSA5LjE3OTY4IDguNjQzNzMgOS4yMTMxMSA4Ljc1MDcxIDkuMjEzMTFMOS42NjMzOCA5LjIwMzA4TDkuNjYzMzggOS41MjQwMkw4Ljc1MDcxIDkuNTEzOTlDOC42NDM3MyA5LjUxMzk5IDguNTU2ODEgOS41NDc0MiA4LjQ4OTk0IDkuNjE0MjhDOC40MjMwOCA5LjY4MTE1IDguMzg5NjUgOS43NjgwNyA4LjM4OTY1IDkuODc1MDVDOC4zODk2NSA5Ljk4MjAzIDguNDIzMDggMTAuMDY4OSA4LjQ4OTk0IDEwLjEzNThDOC41NTY4MSAxMC4yMDI3IDguNjQzNzMgMTAuMjM2MSA4Ljc1MDcxIDEwLjIzNjFMOS42NjMzOCAxMC4yMjYxVjEwLjY0NzNDOS42NjMzOCAxMC43NDA5IDkuNjk2ODEgMTAuODIxMiA5Ljc2MzY3IDEwLjg4OEM5LjgzNzIyIDEwLjk2MTYgOS45MjA4IDEwLjk5ODMgMTAuMDE0NCAxMC45OTgzSDEwLjQ3NThDMTAuODYzNiAxMC45OTgzIDExLjE5NDUgMTAuODc0NiAxMS40Njg3IDEwLjYyNzNDMTEuNzQyOCAxMC4zNzk5IDExLjg5OTkgMTAuMDY4OSAxMS45NCA5LjY5NDUyTDEyLjg0MTMgOS42OTQ1MUMxMi45NDgzIDkuNjk0NTEgMTMuMDM1MiA5LjY2MTA4IDEzLjEwMjEgOS41OTQyMUMxMy4xNjIzIDkuNTM0MDQgMTMuMTkyNCA5LjQ1MDQ2IDEzLjE5MjQgOS4zNDM0OEMxMy4xOTI0IDkuMjM2NSAxMy4xNTg5IDkuMTQ5NTggMTMuMDkyMSA5LjA4MjcyQzEzLjAyNTIgOS4wMTU4NSAxMi45MzgzIDguOTgyNDIgMTIuODMxMyA4Ljk4MjQyTDExLjkzIDguOTgyNDNDMTEuODc2NSA4LjYyMTM3IDExLjcxNjEgOC4zMjA0OSAxMS40NDg2IDguMDc5NzlDMTEuMTg3OCA3Ljg0NTc3IDEwLjg2MzYgNy43Mjg3NiAxMC40NzU4IDcuNzI4NzZMMTAuMDI0NCA3LjczODc5QzkuOTI0MTQgNy43MzIxIDkuODM3MjIgNy43NjU1MyA5Ljc2MzY3IDcuODM5MDhDOS42OTY4MSA3LjkwNTk1IDkuNjYzMzggNy45OTI4NyA5LjY2MzM4IDguMDk5ODVMOS42NjMzOCA4LjUwMTAyTDguNzQwNjggOC41MDEwMkM4LjYzMzcgOC41MDEwMiA4LjU1MDEyIDguNTMxMTEgOC40ODk5NCA4LjU5MTI5WiIvPiYjeGE7PHBhdGggZmlsbD0idXJsKCNwYWludDNfbGluZWFyXzM1MTRfNDAyMDUpIiBkPSJNNi41NTQzMSA0Ljg1MTM4VjMuODUzNTJMNC43OTY4OCA1LjYxMDk1SDUuNzk0NzRDNi4wMDMyNSA1LjYxMDk1IDYuMTgxOTcgNS41MzY0OCA2LjMzMDkxIDUuMzg3NTVDNi40Nzk4NCA1LjIzODYxIDYuNTU0MzEgNS4wNTk4OSA2LjU1NDMxIDQuODUxMzhaIi8+JiN4YTs8L2c+JiN4YTs8ZGVmcz4mI3hhOzxsaW5lYXJHcmFkaWVudCBncmFkaWVudFVuaXRzPSJ1c2VyU3BhY2VPblVzZSIgeTI9IjE0Ljc0NyIgeDI9IjEzLjY4NjQiIHkxPSIyLjI3MDE2IiB4MT0iMS40NDk0NiIgaWQ9InBhaW50MF9saW5lYXJfMzUxNF80MDIwNSI+JiN4YTs8c3RvcCBzdG9wLWNvbG9yPSJ3aGl0ZSIvPiYjeGE7PHN0b3Agc3RvcC1jb2xvcj0iI0VBRUNFRSIgb2Zmc2V0PSIxIi8+JiN4YTs8L2xpbmVhckdyYWRpZW50PiYjeGE7PGxpbmVhckdyYWRpZW50IGdyYWRpZW50VW5pdHM9InVzZXJTcGFjZU9uVXNlIiB5Mj0iOS4wOTUyMSIgeDI9IjExLjIxMDciIHkxPSI0LjU2MDA2IiB4MT0iNS4xNzA4NiIgaWQ9InBhaW50MV9saW5lYXJfMzUxNF80MDIwNSI+JiN4YTs8c3RvcCBzdG9wLWNvbG9yPSIjMDE5NUZGIi8+JiN4YTs8c3RvcCBzdG9wLWNvbG9yPSIjMTE0N0U5IiBvZmZzZXQ9IjAuOTkxMDI4Ii8+JiN4YTs8L2xpbmVhckdyYWRpZW50PiYjeGE7PGxpbmVhckdyYWRpZW50IGdyYWRpZW50VW5pdHM9InVzZXJTcGFjZU9uVXNlIiB5Mj0iMTEuMzQ1NCIgeDI9IjExLjIyNTIiIHkxPSI4LjIwOTc5IiB4MT0iOS4wOTk3IiBpZD0icGFpbnQyX2xpbmVhcl8zNTE0XzQwMjA1Ij4mI3hhOzxzdG9wIHN0b3AtY29sb3I9IiMxMzQ4RkYiLz4mI3hhOzxzdG9wIHN0b3AtY29sb3I9IiMwNjIzOEQiIG9mZnNldD0iMSIvPiYjeGE7PC9saW5lYXJHcmFkaWVudD4mI3hhOzxsaW5lYXJHcmFkaWVudCBncmFkaWVudFVuaXRzPSJ1c2VyU3BhY2VPblVzZSIgeTI9IjUuMzQ3MzEiIHgyPSI2LjI4NjYzIiB5MT0iNC4xMTIwNyIgeDE9IjUuMDU2NyIgaWQ9InBhaW50M19saW5lYXJfMzUxNF80MDIwNSI+JiN4YTs8c3RvcCBzdG9wLWNvbG9yPSIjMTM0OEZGIi8+JiN4YTs8c3RvcCBzdG9wLWNvbG9yPSIjMDYyMzhEIiBvZmZzZXQ9IjEiLz4mI3hhOzwvbGluZWFyR3JhZGllbnQ+JiN4YTs8Y2xpcFBhdGggaWQ9ImNsaXAwXzM1MTRfNDAyMDUiPiYjeGE7PHJlY3QgdHJhbnNmb3JtPSJ0cmFuc2xhdGUoNC4xOTg0OSAzLjE5OTIyKSIgZmlsbD0id2hpdGUiIGhlaWdodD0iOSIgd2lkdGg9IjkiLz4mI3hhOzwvY2xpcFBhdGg+JiN4YTs8L2RlZnM+JiN4YTs8L3N2Zz4=;points=[[0,0,0,0,0],[0,0.25,0,0,0],[0,0.5,0,0,0],[0,0.75,0,0,0],[0.25,0,0,0,0],[0.5,0,0,0,0],[0.75,0,0,0,0],[1,0,0,0,0],[1,0.25,0,0,0],[1,0.5,0,0,0],[1,0.75,0,0,0]];" parent="8Uogrh9DGqOY0QzcngNR-35" vertex="1">
          <mxGeometry x="24.5" y="50" width="32" height="32" as="geometry" />
        </mxCell>
        <mxCell id="8Uogrh9DGqOY0QzcngNR-39" value="SAP Connectivity&#xa;service" style="shape=image;verticalLabelPosition=bottom;verticalAlign=top;imageAspect=0;aspect=fixed;image=data:image/svg+xml,PHN2ZyB4bWxucz0iaHR0cDovL3d3dy53My5vcmcvMjAwMC9zdmciIGZpbGw9Im5vbmUiIHZpZXdCb3g9IjAgMCAxNiAxNiIgaGVpZ2h0PSIxNiIgd2lkdGg9IjE2Ij4mI3hhOzxjaXJjbGUgc3Ryb2tlLXdpZHRoPSIwLjI4NTcwOCIgc3Ryb2tlPSIjRDVEQUREIiBmaWxsPSJ1cmwoI3BhaW50MF9saW5lYXJfMzUxNF80MDIwMikiIHI9IjcuODU2OTYiIGN5PSI3Ljk5OTA4IiBjeD0iNy45OTkzMyIvPiYjeGE7PGcgY2xpcC1wYXRoPSJ1cmwoI2NsaXAwXzM1MTRfNDAyMDIpIj4mI3hhOzxwYXRoIGZpbGw9InVybCgjcGFpbnQxX2xpbmVhcl8zNTE0XzQwMjAyKSIgZD0iTTguNTgyOTIgNC4xMTQ3NEM4LjU4MjkyIDMuODM4NiA4LjgwNjc4IDMuNjE0NzUgOS4wODI5MiAzLjYxNDc1SDEwLjYyNjRDMTEuNTkyOSAzLjYxNDc1IDEyLjM3NjQgNC4zOTgyNSAxMi4zNzY0IDUuMzY0NzRWNi42OTM5NUMxMi4zNzY0IDYuOTcwMSAxMi4xNTI1IDcuMTkzOTUgMTEuODc2NCA3LjE5Mzk1QzExLjYwMDIgNy4xOTM5NSAxMS4zNzY0IDYuOTcwMSAxMS4zNzY0IDYuNjkzOTVWNS4zNjQ3NEMxMS4zNzY0IDQuOTUwNTMgMTEuMDQwNiA0LjYxNDc0IDEwLjYyNjQgNC42MTQ3NEg5LjA4MjkyQzguODA2NzggNC42MTQ3NCA4LjU4MjkyIDQuMzkwODkgOC41ODI5MiA0LjExNDc0Wk00LjEyMTU4IDguNTMzMjRDNC4zOTc3MiA4LjUzMzI0IDQuNjIxNTggOC43NTcxIDQuNjIxNTggOS4wMzMyNFYxMC42MjgxQzQuNjIxNTggMTEuMDQyMyA0Ljk1NzM2IDExLjM3ODEgNS4zNzE1OCAxMS4zNzgxSDcuMDY5MjVDNy4zNDUzOSAxMS4zNzgxIDcuNTY5MjUgMTEuNjAxOSA3LjU2OTI1IDExLjg3ODFDNy41NjkyNSAxMi4xNTQyIDcuMzQ1MzkgMTIuMzc4MSA3LjA2OTI1IDEyLjM3ODFINS4zNzE1OEM0LjQwNTA4IDEyLjM3ODEgMy42MjE1OCAxMS41OTQ2IDMuNjIxNTggMTAuNjI4MVY5LjAzMzI0QzMuNjIxNTggOC43NTcxIDMuODQ1NDQgOC41MzMyNCA0LjEyMTU4IDguNTMzMjRaIiBjbGlwLXJ1bGU9ImV2ZW5vZGQiIGZpbGwtcnVsZT0iZXZlbm9kZCIvPiYjeGE7PHBhdGggZmlsbD0idXJsKCNwYWludDJfbGluZWFyXzM1MTRfNDAyMDIpIiBkPSJNMTIuODQzMiAxMS45MzI4QzEyLjk0NzQgMTIuMDM3IDEyLjk5OTUgMTIuMTQ3NyAxMi45OTk1IDEyLjI2NDlDMTIuOTk5NSAxMi4zOTUxIDEyLjk0NzQgMTIuNTEyMyAxMi44NDMyIDEyLjYxNjRDMTIuNzM5MSAxMi43MjA2IDEyLjYyMTkgMTIuNzcyNyAxMi40OTE3IDEyLjc3MjdDMTIuMzc0NSAxMi43NzI3IDEyLjI2MzggMTIuNzIwNiAxMi4xNTk2IDEyLjYxNjRMMTAuNzcyOSAxMS4yMjk3QzEwLjM2OTMgMTEuNTgxMyA5LjkxMzU2IDExLjc1MDYgOS40MDU3NSAxMS43Mzc1QzguODk3OTQgMTEuNzExNSA4LjQ1NTI0IDExLjUwOTcgOC4wNzc2MyAxMS4xMzIxTDcuNjI4NDIgMTAuNjgyOEM3LjUyNDI1IDEwLjU3ODcgNy40NzIxNyAxMC40NjggNy40NzIxNyAxMC4zNTA4QzcuNDcyMTcgMTAuMjIwNiA3LjUyNDI1IDEwLjEwMzQgNy42Mjg0MiA5Ljk5OTI2TDEwLjE2NzUgNy40NjAyQzEwLjI3MTYgNy4zNTYwNCAxMC4zODg4IDcuMzAzOTYgMTAuNTE5IDcuMzAzOTZDMTAuNjQ5MiA3LjMwMzk2IDEwLjc2NjQgNy4zNTYwNCAxMC44NzA2IDcuNDYwMkwxMS4zMTk4IDcuOTA5NDJDMTEuNjk3NCA4LjI4NzAyIDExLjg5MjcgOC43MjMyMiAxMS45MDU3IDkuMjE4MDFDMTEuOTMxOCA5LjY5OTc4IDExLjc4MiAxMC4xMzYgMTEuNDU2NSAxMC41MjY2TDEyLjg0MzIgMTEuOTMyOFoiIGNsaXAtcnVsZT0iZXZlbm9kZCIgZmlsbC1ydWxlPSJldmVub2RkIi8+JiN4YTs8cGF0aCBmaWxsPSJ1cmwoI3BhaW50M19saW5lYXJfMzUxNF80MDIwMikiIGQ9Ik03LjcxNTE4IDguNzA0MDZDNy42MTEwMSA4LjgwODIzIDcuNDkzODIgOC44NjAzMSA3LjM2MzYxIDguODYwMzFDNy4yNDY0MiA4Ljg2MDMxIDcuMTM1NzUgOC44MDgyMyA3LjAzMTU4IDguNzA0MDZMNi4xMzMxNCA3LjgwNTYzTDUuNzQyNTIgOC4xOTYyNUM1LjYzODM1IDguMzAwNDIgNS41MjExNiA4LjM1MjUgNS4zOTA5NSA4LjM1MjVDNS4yNDc3MyA4LjM1MjUgNS4xMzA1NCA4LjMwMDQyIDUuMDM5MzkgOC4xOTYyNUw0LjU5MDE3IDcuNzY2NTdDNC4yMTI1NyA3LjM4ODk2IDQuMDEwNzUgNi45NTkyOCAzLjk4NDcgNi40Nzc1MUMzLjk1ODY2IDUuOTgyNzIgNC4wOTUzOCA1LjUzMzUgNC4zOTQ4NiA1LjEyOTg2TDMuMTU1NzYgMy44NTgzOUMzLjA1MTYgMy43NTQyMyAyLjk5OTUxIDMuNjM3MDQgMi45OTk1MSAzLjUwNjgzQzIuOTk5NTEgMy4zNzY2MyAzLjA1MTYgMy4yNTk0NCAzLjE1NTc2IDMuMTU1MjdDMy4yNTk5MyAzLjA1MTExIDMuMzcwNjEgMi45OTkwMiAzLjQ4Nzc5IDIuOTk5MDJDMy42MTggMi45OTkwMiAzLjczNTE5IDMuMDUxMTEgMy44MzkzNiAzLjE1NTI3TDUuMDc4NDUgNC40MjY3NEM1LjQ4MjEgNC4xMDEyMiA1LjkzNzgzIDMuOTUxNDggNi40NDU2NCAzLjk3NzUyQzYuOTUzNDYgNC4wMDM1NiA3LjM5NjE2IDQuMjA1MzggNy43NzM3NyA0LjU4Mjk5TDguMjIyOTkgNS4wMzIyQzguMzE0MTMgNS4xMjMzNSA4LjM1OTcxIDUuMjQwNTMgOC4zNTk3MSA1LjM4Mzc2QzguMzU5NzEgNS41MTM5NyA4LjMxNDEzIDUuNjI0NjUgOC4yMjI5OSA1LjcxNTc5TDcuODEyODMgNi4xMjU5NUw4LjcxMTI3IDcuMDA0ODVDOC44MTU0NCA3LjEwOTAyIDguODY3NTIgNy4yMjYyIDguODY3NTIgNy4zNTY0MUM4Ljg2NzUyIDcuNDg2NjIgOC44MTU0NCA3LjYwMzgxIDguNzExMjcgNy43MDc5N0M4LjYwNzEgNy44MTIxNCA4LjQ4OTkyIDcuODY0MjIgOC4zNTk3MSA3Ljg2NDIyQzguMjI5NSA3Ljg2NDIyIDguMTEyMzEgNy44MTIxNCA4LjAwODE0IDcuNzA3OTdMNy4xMjkyNCA2LjgwOTU0TDYuODE2NzQgNy4xMjIwNEw3LjI2NTk2IDcuNTYxNDlMNy43MTUxOCA4LjAwMDk0QzcuODE5MzQgOC4xMDUxMSA3Ljg3MTQzIDguMjIyMjkgNy44NzE0MyA4LjM1MjVDNy44NzE0MyA4LjQ4MjcxIDcuODE5MzQgOC41OTk5IDcuNzE1MTggOC43MDQwNloiLz4mI3hhOzwvZz4mI3hhOzxkZWZzPiYjeGE7PGxpbmVhckdyYWRpZW50IGdyYWRpZW50VW5pdHM9InVzZXJTcGFjZU9uVXNlIiB5Mj0iMTQuNzQ3IiB4Mj0iMTMuNjg3NCIgeTE9IjIuMjcwMTYiIHgxPSIxLjQ1MDQzIiBpZD0icGFpbnQwX2xpbmVhcl8zNTE0XzQwMjAyIj4mI3hhOzxzdG9wIHN0b3AtY29sb3I9IndoaXRlIi8+JiN4YTs8c3RvcCBzdG9wLWNvbG9yPSIjRUFFQ0VFIiBvZmZzZXQ9IjEiLz4mI3hhOzwvbGluZWFyR3JhZGllbnQ+JiN4YTs8bGluZWFyR3JhZGllbnQgZ3JhZGllbnRVbml0cz0idXNlclNwYWNlT25Vc2UiIHkyPSIxMS4wNTc0IiB4Mj0iMTEuMDciIHkxPSI0LjkyNTI1IiB4MT0iNC45MzM5NiIgaWQ9InBhaW50MV9saW5lYXJfMzUxNF80MDIwMiI+JiN4YTs8c3RvcCBzdG9wLWNvbG9yPSIjMDE5NUZGIi8+JiN4YTs8c3RvcCBzdG9wLWNvbG9yPSIjMTE0N0U5IiBvZmZzZXQ9IjAuOTkxMDI4Ii8+JiN4YTs8L2xpbmVhckdyYWRpZW50PiYjeGE7PGxpbmVhckdyYWRpZW50IGdyYWRpZW50VW5pdHM9InVzZXJTcGFjZU9uVXNlIiB5Mj0iMTEuOTkxOCIgeDI9IjEyLjEyODQiIHkxPSI4LjEyNDQ0IiB4MT0iOC4yOTkzOCIgaWQ9InBhaW50Ml9saW5lYXJfMzUxNF80MDIwMiI+JiN4YTs8c3RvcCBzdG9wLWNvbG9yPSIjMDBCQkZGIi8+JiN4YTs8c3RvcCBzdG9wLWNvbG9yPSIjMDA4QkZGIiBvZmZzZXQ9IjEiLz4mI3hhOzwvbGluZWFyR3JhZGllbnQ+JiN4YTs8bGluZWFyR3JhZGllbnQgZ3JhZGllbnRVbml0cz0idXNlclNwYWNlT25Vc2UiIHkyPSI3Ljk4NTcxIiB4Mj0iNy45NjkwMiIgeTE9IjMuODYxMzQiIHgxPSIzLjg2NzA2IiBpZD0icGFpbnQzX2xpbmVhcl8zNTE0XzQwMjAyIj4mI3hhOzxzdG9wIHN0b3AtY29sb3I9IiMxMzQ4RkYiLz4mI3hhOzxzdG9wIHN0b3AtY29sb3I9IiMwNjIzOEQiIG9mZnNldD0iMSIvPiYjeGE7PC9saW5lYXJHcmFkaWVudD4mI3hhOzxjbGlwUGF0aCBpZD0iY2xpcDBfMzUxNF80MDIwMiI+JiN4YTs8cmVjdCB0cmFuc2Zvcm09InRyYW5zbGF0ZSgyLjk5OTI3IDIuOTk5MDIpIiBmaWxsPSJ3aGl0ZSIgaGVpZ2h0PSI5Ljk5OTk2IiB3aWR0aD0iOS45OTk5NiIvPiYjeGE7PC9jbGlwUGF0aD4mI3hhOzwvZGVmcz4mI3hhOzwvc3ZnPg==;points=[[0,0,0,0,0],[0,0.25,0,0,0],[0,0.5,0,0,0],[0,0.75,0,0,0],[0.25,0,0,0,0],[0.5,0,0,0,0],[0.75,0,0,0,0],[1,0,0,0,0],[1,0.25,0,0,0],[1,0.5,0,0,0],[1,0.75,0,0,0]];" parent="1" vertex="1">
          <mxGeometry x="-1633" y="-1256" width="32" height="32" as="geometry" />
        </mxCell>
        <mxCell id="dRn98VZPlsFJSJt_BaqV-1" value="" style="group" parent="1" vertex="1" connectable="0">
          <mxGeometry x="-1922.75" y="-1364" width="342.67" height="139" as="geometry" />
        </mxCell>
        <mxCell id="zLkr8Fda_o7fLGSxankt-202" value="Cloud Integration" style="shape=image;verticalLabelPosition=bottom;labelBackgroundColor=none;verticalAlign=top;aspect=fixed;imageAspect=0;image=data:image/svg+xml,PHN2ZyB4bWxucz0iaHR0cDovL3d3dy53My5vcmcvMjAwMC9zdmciIGZpbGw9Im5vbmUiIHZpZXdCb3g9IjAgMCAxNiAxNiIgaGVpZ2h0PSIxNiIgd2lkdGg9IjE2Ij4mI3hhOzxjaXJjbGUgc3Ryb2tlLXdpZHRoPSIwLjI4NTcwOCIgc3Ryb2tlPSIjRDVEQUREIiBmaWxsPSJ1cmwoI3BhaW50MF9saW5lYXJfMzUxNF80MDI3MSkiIHI9IjcuODU2OTYiIGN5PSI3Ljk5NzYyIiBjeD0iNy45OTc2MiIvPiYjeGE7PGcgY2xpcC1wYXRoPSJ1cmwoI2NsaXAwXzM1MTRfNDAyNzEpIj4mI3hhOzxwYXRoIGZpbGw9InVybCgjcGFpbnQxX2xpbmVhcl8zNTE0XzQwMjcxKSIgZD0iTTcuMjYwOTUgMy4zOTc3MUM2LjAxNzkzIDMuMzk3NzEgNS4xMzQ3NyA0LjQwOTUzIDQuOTg3NjMgNS40NjU4OUM0LjU4Nzc5IDUuNDg5NjkgNC4yMzQ3MyA1LjYzOTk2IDMuOTYwNTEgNS44OTIzNkMzLjU4OTU1IDYuMjMzODEgMy4zOTc5NSA2LjcyOTQzIDMuMzk3OTUgNy4yNTIwOUMzLjM5Nzk1IDcuNzM3ODIgMy41NDUyOSA4LjE5Njk0IDMuODc2MDggOC41MzYzOUM0LjIwOTEgOC44NzgxMyA0LjY4MTg5IDkuMDUxMjQgNS4yMzg1OCA5LjA1MTI0SDYuMjE4NDFDNi4zMjIwOCA4LjQ4MTQyIDYuODIwOTIgOC4wNDkzOCA3LjQyMDY2IDguMDQ5MzhINy43NTc4NEM3Ljc2OTc0IDguMDQ5MzggNy43ODE2IDguMDQ5NTUgNy43OTM0MSA4LjA0OTg4QzcuNzc0NjQgNy45NjQ3NSA3Ljc2NDc0IDcuODc2MjkgNy43NjQ3NCA3Ljc4NTUxVjcuNDQ2NTFDNy43NjQ3NCA2Ljc3MTYgOC4zMTE4NyA2LjIyNDQ3IDguOTg2NzggNi4yMjQ0N0g5LjMyMzk1QzkuOTk4ODYgNi4yMjQ0NyAxMC41NDYgNi43NzE2IDEwLjU0NiA3LjQ0NjUxVjcuNzI5NDJDMTAuNzA3MyA3LjUzOTc2IDEwLjkyNTUgNy40IDExLjE3NDIgNy4zMzY1M0MxMS4xOTggNy4yMDI4NSAxMS4yMTA0IDcuMDYyNiAxMS4yMTA0IDYuOTE2MjJDMTEuMjEwNCA1Ljc1OTgzIDEwLjM4NCA0Ljg3MTE2IDkuMzg5MDEgNC43NzcxN0M4Ljk5MDE3IDMuOTUyNDIgOC4yNDk4MiAzLjM5NzcxIDcuMjYwOTUgMy4zOTc3MVoiLz4mI3hhOzxwYXRoIGZpbGw9InVybCgjcGFpbnQyX3JhZGlhbF8zNTE0XzQwMjcxKSIgZD0iTTkuMzIzNyA2LjcyNDYxQzkuNzIyNDcgNi43MjQ2MSAxMC4wNDU3IDcuMDQ3ODggMTAuMDQ1NyA3LjQ0NjY1VjcuNzg1NjVDMTAuMDQ1NyA4LjAwODk1IDkuOTQ0MzcgOC4yMDg1NyA5Ljc4NTE0IDguMzQxMDJMOS45NTIyMyA5LjAwMzY2SDkuOTc2MzNDMTAuMDQ2MSA5LjAwMzY2IDEwLjExMTggOS4wMjExIDEwLjE2OTMgOS4wNTE4N0wxMC43NTUgOC43NTQ2OFY4LjUyMDg3QzEwLjc1NSA4LjEyMjEgMTEuMDc4MyA3Ljc5ODgzIDExLjQ3NzEgNy43OTg4M0gxMS44MTQyQzEyLjIxMyA3Ljc5ODgzIDEyLjUzNjMgOC4xMjIxIDEyLjUzNjMgOC41MjA4N1Y4Ljg1OTg3QzEyLjUzNjMgOS4yNTg2NCAxMi4yMTMgOS41ODE5IDExLjgxNDIgOS41ODE5SDExLjQ3NzFDMTEuMjcwMiA5LjU4MTkgMTEuMDgzNyA5LjQ5NDkzIDEwLjk1MjEgOS4zNTU1NUwxMC4zODU5IDkuNjQyODFWOS43MTQ0TDEwLjM4NzggOS43MTE1MUwxMC44MTY4IDkuOTkyNjNDMTAuOTQwNSA5Ljg5MzIyIDExLjA5NzcgOS44MzM3NCAxMS4yNjg4IDkuODMzNzRIMTEuNzE5OEMxMi4xMTg2IDkuODMzNzQgMTIuNDQxOCAxMC4xNTcgMTIuNDQxOCAxMC41NTU4VjExLjAwODhDMTIuNDQxOCAxMS40MDc2IDEyLjExODYgMTEuNzMwOSAxMS43MTk4IDExLjczMDlIMTEuMjY4OEMxMC44NyAxMS43MzA5IDEwLjU0NjcgMTEuNDA3NiAxMC41NDY3IDExLjAwODhWMTAuNTYyOUwxMC4xNTk5IDEwLjMwOTRDMTAuMTA0NyAxMC4zMzcyIDEwLjA0MjMgMTAuMzUyOCA5Ljk3NjMzIDEwLjM1MjhIOS42NDI3NEw4Ljk3MzI1IDExLjI1MThDOS4wMjIwNCAxMS4zNDkgOS4wNDk1IDExLjQ1ODggOS4wNDk1IDExLjU3NTFWMTEuOTE0MUM5LjA0OTUgMTIuMzEyOCA4LjcyNjIzIDEyLjYzNjEgOC4zMjc0NiAxMi42MzYxSDcuOTkwMjlDNy41OTE1MiAxMi42MzYxIDcuMjY4MjUgMTIuMzEyOCA3LjI2ODI1IDExLjkxNDFMNy4yNjgyNSAxMS41NzUxQzcuMjY4MjUgMTEuMTc2MyA3LjU5MTUyIDEwLjg1MyA3Ljk5MDI5IDEwLjg1M0g4LjMyNzQ2QzguMzc5NDYgMTAuODUzIDguNDMwMTggMTAuODU4NSA4LjQ3OTA2IDEwLjg2OUw5LjA2MjI1IDEwLjA4NTlDOS4wNDU3NSAxMC4wNDE1IDkuMDM2NzQgOS45OTM0MSA5LjAzNjc0IDkuOTQzMjVWOS44MzczOUw4LjQ0MzQgOS44Mzc0QzguMzQ4MyAxMC4xMjUxIDguMDc3MjQgMTAuMzMyNiA3Ljc1NzcgMTAuMzMyNkg3LjQyMDUyQzcuMDIxNzUgMTAuMzMyNiA2LjY5ODQ5IDEwLjAwOTQgNi42OTg0OSA5LjYxMDZMNi42OTg0OSA5LjI3MTZDNi42OTg0OSA4Ljg3MjgzIDcuMDIxNzUgOC41NDk1NiA3LjQyMDUyIDguNTQ5NTZINy43NTc3QzguMTM2NTQgOC41NDk1NiA4LjQ0NzIzIDguODQxMzIgOC40NzczNCA5LjIxMjRMOS4wODkyNiA5LjIxMjM5QzkuMTM4MTUgOS4xMjU2NyA5LjIxNzcyIDkuMDU4NTUgOS4zMTMyNCA5LjAyNTc1TDkuMTgyNiA4LjUwNzY4SDguOTg2NTJDOC41ODc3NSA4LjUwNzY4IDguMjY0NDggOC4xODQ0MiA4LjI2NDQ4IDcuNzg1NjVWNy40NDY2NUM4LjI2NDQ4IDcuMDQ3ODggOC41ODc3NSA2LjcyNDYxIDguOTg2NTIgNi43MjQ2MUg5LjMyMzdaTTkuNDIwNzMgNy40NDY2NUM5LjQyMDczIDcuMzkzMDYgOS4zNzcyOSA3LjM0OTYxIDkuMzIzNyA3LjM0OTYxTDguOTg2NTIgNy4zNDk2MUM4LjkzMjkzIDcuMzQ5NjEgOC44ODk0OCA3LjM5MzA1IDguODg5NDggNy40NDY2NVY3Ljc4NTY1QzguODg5NDggNy44MzkyNCA4LjkzMjkzIDcuODgyNjggOC45ODY1MiA3Ljg4MjY4SDkuMzIzN0M5LjM3NzI5IDcuODgyNjggOS40MjA3MyA3LjgzOTI0IDkuNDIwNzMgNy43ODU2NVY3LjQ0NjY1Wk0xMS45MTEzIDguNTIwODdDMTEuOTExMyA4LjQ2NzI3IDExLjg2NzggOC40MjM4MyAxMS44MTQyIDguNDIzODNIMTEuNDc3MUMxMS40MjM1IDguNDIzODMgMTEuMzggOC40NjcyNyAxMS4zOCA4LjUyMDg3VjguODU5ODZDMTEuMzggOC45MTM0NiAxMS40MjM1IDguOTU2OSAxMS40NzcxIDguOTU2OUgxMS44MTQyQzExLjg2NzggOC45NTY5IDExLjkxMTMgOC45MTM0NiAxMS45MTEzIDguODU5ODZWOC41MjA4N1pNMTEuODE2OCAxMC41NTU4QzExLjgxNjggMTAuNTAyMiAxMS43NzM0IDEwLjQ1ODcgMTEuNzE5OCAxMC40NTg3SDExLjI2ODhDMTEuMjE1MiAxMC40NTg3IDExLjE3MTcgMTAuNTAyMiAxMS4xNzE3IDEwLjU1NThWMTEuMDA4OEMxMS4xNzE3IDExLjA2MjQgMTEuMjE1MiAxMS4xMDU5IDExLjI2ODggMTEuMTA1OUgxMS43MTk4QzExLjc3MzQgMTEuMTA1OSAxMS44MTY4IDExLjA2MjQgMTEuODE2OCAxMS4wMDg4VjEwLjU1NThaTTcuNzU3NyA5LjE3NDU2QzcuODExMjkgOS4xNzQ1NiA3Ljg1NDc0IDkuMjE4MDEgNy44NTQ3NCA5LjI3MTZWOS42MTA2QzcuODU0NzQgOS42NjQxOSA3LjgxMTI5IDkuNzA3NjQgNy43NTc3IDkuNzA3NjRINy40MjA1MkM3LjM2NjkzIDkuNzA3NjQgNy4zMjM0OSA5LjY2NDE5IDcuMzIzNDkgOS42MTA2VjkuMjcxNkM3LjMyMzQ5IDkuMjE4MDEgNy4zNjY5MyA5LjE3NDU2IDcuNDIwNTIgOS4xNzQ1Nkg3Ljc1NzdaTTguNDI0NSAxMS41NzUxQzguNDI0NSAxMS41MjE1IDguMzgxMDUgMTEuNDc4IDguMzI3NDYgMTEuNDc4SDcuOTkwMjlDNy45MzY2OSAxMS40NzggNy44OTMyNSAxMS41MjE1IDcuODkzMjUgMTEuNTc1MVYxMS45MTQxQzcuODkzMjUgMTEuOTY3NyA3LjkzNjcgMTIuMDExMSA3Ljk5MDI5IDEyLjAxMTFIOC4zMjc0NkM4LjM4MTA1IDEyLjAxMTEgOC40MjQ1IDExLjk2NzcgOC40MjQ1IDExLjkxNDFWMTEuNTc1MVoiIGNsaXAtcnVsZT0iZXZlbm9kZCIgZmlsbC1ydWxlPSJldmVub2RkIi8+JiN4YTs8L2c+JiN4YTs8ZGVmcz4mI3hhOzxsaW5lYXJHcmFkaWVudCBncmFkaWVudFVuaXRzPSJ1c2VyU3BhY2VPblVzZSIgeTI9IjE0Ljc0NTYiIHgyPSIxMy42ODU2IiB5MT0iMi4yNjg3IiB4MT0iMS40NDg3MyIgaWQ9InBhaW50MF9saW5lYXJfMzUxNF80MDI3MSI+JiN4YTs8c3RvcCBzdG9wLWNvbG9yPSJ3aGl0ZSIvPiYjeGE7PHN0b3Agc3RvcC1jb2xvcj0iI0VBRUNFRSIgb2Zmc2V0PSIxIi8+JiN4YTs8L2xpbmVhckdyYWRpZW50PiYjeGE7PGxpbmVhckdyYWRpZW50IGdyYWRpZW50VW5pdHM9InVzZXJTcGFjZU9uVXNlIiB5Mj0iOS40NDA1IiB4Mj0iOC4zMjg4NCIgeTE9IjQuMjQzMTYiIHgxPSI0LjU2OTA4IiBpZD0icGFpbnQxX2xpbmVhcl8zNTE0XzQwMjcxIj4mI3hhOzxzdG9wIHN0b3AtY29sb3I9IiMwMTk1RkYiLz4mI3hhOzxzdG9wIHN0b3AtY29sb3I9IiMxMTQ3RTkiIG9mZnNldD0iMC45OTEwMjgiLz4mI3hhOzwvbGluZWFyR3JhZGllbnQ+JiN4YTs8cmFkaWFsR3JhZGllbnQgZ3JhZGllbnRUcmFuc2Zvcm09InRyYW5zbGF0ZSg3LjYwMjQ2IDcuNjEzOSkgcm90YXRlKDQ1LjM1OTQpIHNjYWxlKDUuNzg3MjQgNS4yNzMyOCkiIGdyYWRpZW50VW5pdHM9InVzZXJTcGFjZU9uVXNlIiByPSIxIiBjeT0iMCIgY3g9IjAiIGlkPSJwYWludDJfcmFkaWFsXzM1MTRfNDAyNzEiPiYjeGE7PHN0b3Agc3RvcC1jb2xvcj0iIzEzNDhGRiIvPiYjeGE7PHN0b3Agc3RvcC1jb2xvcj0iIzA2MjM4RCIgb2Zmc2V0PSIxIi8+JiN4YTs8L3JhZGlhbEdyYWRpZW50PiYjeGE7PGNsaXBQYXRoIGlkPSJjbGlwMF8zNTE0XzQwMjcxIj4mI3hhOzxyZWN0IHRyYW5zZm9ybT0idHJhbnNsYXRlKDMuMzk3NzEgMy4zOTc3MSkiIGZpbGw9IndoaXRlIiBoZWlnaHQ9IjEwIiB3aWR0aD0iMTAiLz4mI3hhOzwvY2xpcFBhdGg+JiN4YTs8L2RlZnM+JiN4YTs8L3N2Zz4=;points=[[0,0,0,0,0],[0,0.25,0,0,0],[0,0.5,0,0,0],[0,0.75,0,0,0],[0.25,0,0,0,0],[0.5,0,0,0,0],[0.75,0,0,0,0],[1,0,0,0,0],[1,0.25,0,0,0],[1,0.5,0,0,0],[1,0.75,0,0,0]];" parent="dRn98VZPlsFJSJt_BaqV-1" vertex="1">
          <mxGeometry x="279.75238410595995" y="34.413178370924626" width="31.104895104895107" height="31.104895104895107" as="geometry" />
        </mxCell>
        <mxCell id="dRn98VZPlsFJSJt_BaqV-23" value="" style="rounded=1;whiteSpace=wrap;html=1;strokeColor=#0070F2;strokeWidth=1.5;arcSize=16;fillColor=#FFFFFF;perimeterSpacing=0;absoluteArcSize=1;" parent="dRn98VZPlsFJSJt_BaqV-1" vertex="1">
          <mxGeometry x="-34.25" y="-80" width="279.25" height="150" as="geometry" />
        </mxCell>
        <mxCell id="ywHCQfon3YgA2eiFdqId-4" value="" style="shape=image;verticalLabelPosition=bottom;labelBackgroundColor=default;verticalAlign=top;aspect=fixed;imageAspect=0;image=data:image/svg+xml,PHN2ZyB4bWxucz0iaHR0cDovL3d3dy53My5vcmcvMjAwMC9zdmciIGZpbGw9Im5vbmUiIHZpZXdCb3g9IjAgMCAxNiAxNiIgaGVpZ2h0PSIxNiIgd2lkdGg9IjE2Ij4mI3hhOzxjaXJjbGUgc3Ryb2tlLXdpZHRoPSIwLjI4NTcwOCIgc3Ryb2tlPSIjRDVEQUREIiBmaWxsPSJ1cmwoI3BhaW50MF9saW5lYXJfMzUxNF80MDI3MCkiIHI9IjcuODU2OTYiIGN5PSI3Ljk5NzYyIiBjeD0iNy45OTc4NiIvPiYjeGE7PGcgY2xpcC1wYXRoPSJ1cmwoI2NsaXAwXzM1MTRfNDAyNzApIj4mI3hhOzxwYXRoIGZpbGw9InVybCgjcGFpbnQxX2xpbmVhcl8zNTE0XzQwMjcwKSIgZD0iTTcuNDYxMTQgMy41OTc5QzYuMjE4MTMgMy41OTc5IDUuMzM0OTcgNC42MDk3MyA1LjE4NzgzIDUuNjY2MDlDNC43ODc5OCA1LjY4OTg5IDQuNDM0OTIgNS44NDAxNSA0LjE2MDcxIDYuMDkyNTVDMy43ODk3NCA2LjQzNDAxIDMuNTk4MTQgNi45Mjk2MyAzLjU5ODE0IDcuNDUyMjlDMy41OTgxNCA3LjkzODAyIDMuNzQ1NDkgOC4zOTcxNCA0LjA3NjI3IDguNzM2NTlDNC40MDkyOSA5LjA3ODMzIDQuODgyMDggOS4yNTE0NCA1LjQzODc4IDkuMjUxNDRINy42NDEzN0M3LjYxNzYzIDkuMTQ4MTkgNy42MDUwOCA5LjA0MDY3IDcuNjA1MDggOC45MzAyMVY4LjM4ODM5QzcuNjA1MDggNy42MDAxMiA4LjI0NDEgNi45NjExMSA5LjAzMjM2IDYuOTYxMTFIOS41NzE3OEM5Ljk3NjQ5IDYuOTYxMTEgMTAuMzQxOSA3LjEyOTU1IDEwLjYwMTYgNy40MDAxNkMxMC44MTIzIDcuMTgwNjggMTEuMDkyNCA3LjAyODQgMTEuNDA2NyA2Ljk3ODdDMTEuMzQ0MSA1Ljg5MDA3IDEwLjU0NDMgNS4wNjc1OSA5LjU4OTIxIDQuOTc3MzdDOS4xOTAzNyA0LjE1MjYyIDguNDUwMDEgMy41OTc5IDcuNDYxMTQgMy41OTc5WiIvPiYjeGE7PHBhdGggZmlsbD0idXJsKCNwYWludDJfbGluZWFyXzM1MTRfNDAyNzApIiBkPSJNMTAuOTcxIDEwLjg4QzEwLjk3MSAxMC40OTUzIDExLjI3MTggMTAuMTgwOSAxMS42NTEgMTAuMTU5MkwxMS42NTEgOS43MzI1NkgxMS42MzEzQzExLjE4ODIgOS43MzI1NiAxMC44MjkgOS4zNzMzNyAxMC44MjkgOC45MzAyOFY4LjM4ODQ2QzEwLjgyOSA3Ljk0NTM3IDExLjE4ODIgNy41ODYxOCAxMS42MzEzIDcuNTg2MThIMTIuMTcwOEMxMi42MTM4IDcuNTg2MTggMTIuOTczIDcuOTQ1MzggMTIuOTczIDguMzg4NDZWOC45MzAyOEMxMi45NzMgOS4zNzMzNyAxMi42MTM4IDkuNzMyNTYgMTIuMTcwNyA5LjczMjU2SDEyLjE1MUwxMi4xNTEgMTAuMTU4QzEyLjU0NjYgMTAuMTYxNyAxMi44NjYxIDEwLjQ4MzYgMTIuODY2MSAxMC44OFYxMS4zMzMxQzEyLjg2NjEgMTEuNzMxOCAxMi41NDI4IDEyLjA1NTEgMTIuMTQ0IDEyLjA1NTFIMTEuNjkzQzExLjI5NDIgMTIuMDU1MSAxMC45NzEgMTEuNzMxOCAxMC45NzEgMTEuMzMzMVYxMC44OFpNMTEuNTk2IDEwLjg4QzExLjU5NiAxMC44MjY0IDExLjYzOTQgMTAuNzgzIDExLjY5MyAxMC43ODNIMTIuMTQ0QzEyLjE5NzYgMTAuNzgzIDEyLjI0MTEgMTAuODI2NCAxMi4yNDExIDEwLjg4VjExLjMzMzFDMTIuMjQxMSAxMS4zODY3IDEyLjE5NzYgMTEuNDMwMSAxMi4xNDQgMTEuNDMwMUgxMS42OTNDMTEuNjM5NCAxMS40MzAxIDExLjU5NiAxMS4zODY3IDExLjU5NiAxMS4zMzMxVjEwLjg4Wk0xMS42MzEzIDkuMTA3NTZDMTEuNTMzNCA5LjEwNzU2IDExLjQ1NCA5LjAyODE5IDExLjQ1NCA4LjkzMDI4VjguMzg4NDZDMTEuNDU0IDguMjkwNTUgMTEuNTMzNCA4LjIxMTE4IDExLjYzMTMgOC4yMTExOEwxMi4xNzA3IDguMjExMThDMTIuMjY4NyA4LjIxMTE4IDEyLjM0OCA4LjI5MDU1IDEyLjM0OCA4LjM4ODQ2VjguOTMwMjhDMTIuMzQ4IDkuMDI4MTkgMTIuMjY4NyA5LjEwNzU2IDEyLjE3MDcgOS4xMDc1NkwxMS42MzEzIDkuMTA3NTZaIiBjbGlwLXJ1bGU9ImV2ZW5vZGQiIGZpbGwtcnVsZT0iZXZlbm9kZCIvPiYjeGE7PHBhdGggZmlsbD0idXJsKCNwYWludDNfbGluZWFyXzM1MTRfNDAyNzApIiBkPSJNOC4zNzE5IDEwLjg4QzguMzcxOSAxMC40OTUzIDguNjcyNyAxMC4xODA5IDkuMDUxOTIgMTAuMTU5Mkw5LjA1MTkyIDkuNzMyNTZIOS4wMzIyNkM4LjU4OTE3IDkuNzMyNTYgOC4yMjk5OCA5LjM3MzM3IDguMjI5OTggOC45MzAyOFY4LjM4ODQ2QzguMjI5OTggNy45NDUzNyA4LjU4OTE4IDcuNTg2MTggOS4wMzIyNiA3LjU4NjE4SDkuNTcxNjhDMTAuMDE0OCA3LjU4NjE4IDEwLjM3NCA3Ljk0NTM4IDEwLjM3NCA4LjM4ODQ2VjguOTMwMjhDMTAuMzc0IDkuMzczMzcgMTAuMDE0OCA5LjczMjU2IDkuNTcxNjggOS43MzI1Nkg5LjU1MTkyTDkuNTUxOTIgMTAuMTU4QzkuOTQ3NSAxMC4xNjE3IDEwLjI2NyAxMC40ODM2IDEwLjI2NyAxMC44OFYxMS4zMzMxQzEwLjI2NyAxMS43MzE4IDkuOTQzNzUgMTIuMDU1MSA5LjU0NDk4IDEyLjA1NTFIOS4wOTM5NEM4LjY5NTE3IDEyLjA1NTEgOC4zNzE5IDExLjczMTggOC4zNzE5IDExLjMzMzFWMTAuODhaTTguOTk2OSAxMC44OEM4Ljk5NjkgMTAuODI2NCA5LjA0MDM0IDEwLjc4MyA5LjA5Mzk0IDEwLjc4M0g5LjU0NDk4QzkuNTk4NTcgMTAuNzgzIDkuNjQyMDIgMTAuODI2NCA5LjY0MjAyIDEwLjg4VjExLjMzMzFDOS42NDIwMiAxMS4zODY3IDkuNTk4NTcgMTEuNDMwMSA5LjU0NDk4IDExLjQzMDFIOS4wOTM5NEM5LjA0MDM0IDExLjQzMDEgOC45OTY5IDExLjM4NjcgOC45OTY5IDExLjMzMzFWMTAuODhaTTkuMDMyMjYgOS4xMDc1NkM4LjkzNDM1IDkuMTA3NTYgOC44NTQ5OCA5LjAyODE5IDguODU0OTggOC45MzAyOFY4LjM4ODQ2QzguODU0OTggOC4yOTA1NSA4LjkzNDM1IDguMjExMTggOS4wMzIyNiA4LjIxMTE4TDkuNTcxNjggOC4yMTExOEM5LjY2OTU5IDguMjExMTggOS43NDg5NiA4LjI5MDU1IDkuNzQ4OTYgOC4zODg0NlY4LjkzMDI4QzkuNzQ4OTYgOS4wMjgxOSA5LjY2OTU5IDkuMTA3NTYgOS41NzE2OCA5LjEwNzU2TDkuMDMyMjYgOS4xMDc1NloiIGNsaXAtcnVsZT0iZXZlbm9kZCIgZmlsbC1ydWxlPSJldmVub2RkIi8+JiN4YTs8L2c+JiN4YTs8ZGVmcz4mI3hhOzxsaW5lYXJHcmFkaWVudCBncmFkaWVudFVuaXRzPSJ1c2VyU3BhY2VPblVzZSIgeTI9IjE0Ljc0NTYiIHgyPSIxMy42ODU5IiB5MT0iMi4yNjg3IiB4MT0iMS40NDg5NyIgaWQ9InBhaW50MF9saW5lYXJfMzUxNF80MDI3MCI+JiN4YTs8c3RvcCBzdG9wLWNvbG9yPSJ3aGl0ZSIvPiYjeGE7PHN0b3Agc3RvcC1jb2xvcj0iI0VBRUNFRSIgb2Zmc2V0PSIxIi8+JiN4YTs8L2xpbmVhckdyYWRpZW50PiYjeGE7PGxpbmVhckdyYWRpZW50IGdyYWRpZW50VW5pdHM9InVzZXJTcGFjZU9uVXNlIiB5Mj0iOS42Mzg5IiB4Mj0iOC41MjkwNCIgeTE9IjQuNDQzMzUiIHgxPSI0Ljc2ODY4IiBpZD0icGFpbnQxX2xpbmVhcl8zNTE0XzQwMjcwIj4mI3hhOzxzdG9wIHN0b3AtY29sb3I9IiMwMTk1RkYiLz4mI3hhOzxzdG9wIHN0b3AtY29sb3I9IiMxMTQ3RTkiIG9mZnNldD0iMC45OTEwMjgiLz4mI3hhOzwvbGluZWFyR3JhZGllbnQ+JiN4YTs8bGluZWFyR3JhZGllbnQgZ3JhZGllbnRVbml0cz0idXNlclNwYWNlT25Vc2UiIHkyPSIxMS41NzA2IiB4Mj0iMTIuMDUyNCIgeTE9IjguMjQzNjYiIHgxPSI4LjkzMTIxIiBpZD0icGFpbnQyX2xpbmVhcl8zNTE0XzQwMjcwIj4mI3hhOzxzdG9wIHN0b3AtY29sb3I9IiMxMzQ4RkYiLz4mI3hhOzxzdG9wIHN0b3AtY29sb3I9IiMwNjIzOEQiIG9mZnNldD0iMSIvPiYjeGE7PC9saW5lYXJHcmFkaWVudD4mI3hhOzxsaW5lYXJHcmFkaWVudCBncmFkaWVudFVuaXRzPSJ1c2VyU3BhY2VPblVzZSIgeTI9IjExLjU3MDYiIHgyPSIxMi4wNTI0IiB5MT0iOC4yNDM2NiIgeDE9IjguOTMxMjEiIGlkPSJwYWludDNfbGluZWFyXzM1MTRfNDAyNzAiPiYjeGE7PHN0b3Agc3RvcC1jb2xvcj0iIzEzNDhGRiIvPiYjeGE7PHN0b3Agc3RvcC1jb2xvcj0iIzA2MjM4RCIgb2Zmc2V0PSIxIi8+JiN4YTs8L2xpbmVhckdyYWRpZW50PiYjeGE7PGNsaXBQYXRoIGlkPSJjbGlwMF8zNTE0XzQwMjcwIj4mI3hhOzxyZWN0IHRyYW5zZm9ybT0ibWF0cml4KC0xIDAgMCAxIDEzLjU5ODEgMy41OTc5KSIgZmlsbD0id2hpdGUiIGhlaWdodD0iMTAiIHdpZHRoPSIxMCIvPiYjeGE7PC9jbGlwUGF0aD4mI3hhOzwvZGVmcz4mI3hhOzwvc3ZnPg==;points=[[0,0,0,0,0],[0,0.25,0,0,0],[0,0.5,0,0,0],[0,0.75,0,0,0],[0.25,0,0,0,0],[0.5,0,0,0,0],[0.75,0,0,0,0],[1,0,0,0,0],[1,0.25,0,0,0],[1,0.5,0,0,0],[1,0.75,0,0,0]];" parent="dRn98VZPlsFJSJt_BaqV-1" vertex="1">
          <mxGeometry x="-27.252384105960118" y="-75.35211267605612" width="31.323943661971832" height="31.323943661971832" as="geometry" />
        </mxCell>
        <mxCell id="dRn98VZPlsFJSJt_BaqV-52" value="Graph" style="shape=image;verticalLabelPosition=bottom;labelBackgroundColor=default;verticalAlign=top;aspect=fixed;imageAspect=0;image=data:image/svg+xml,PHN2ZyB4bWxucz0iaHR0cDovL3d3dy53My5vcmcvMjAwMC9zdmciIGZpbGw9Im5vbmUiIHZpZXdCb3g9IjAgMCAxNiAxNiIgaGVpZ2h0PSIxNiIgd2lkdGg9IjE2Ij4mI3hhOzxjaXJjbGUgc3Ryb2tlLXdpZHRoPSIwLjI4NTcwOCIgc3Ryb2tlPSIjRDVEQUREIiBmaWxsPSJ1cmwoI3BhaW50MF9saW5lYXJfMzUxNF80MDI2OSkiIHI9IjcuODU2OTYiIGN5PSI3Ljk5NzYyIiBjeD0iNy45OTgzNSIvPiYjeGE7PGcgY2xpcC1wYXRoPSJ1cmwoI2NsaXAwXzM1MTRfNDAyNjkpIj4mI3hhOzxwYXRoIGZpbGw9InVybCgjcGFpbnQxX2xpbmVhcl8zNTE0XzQwMjY5KSIgZD0iTTcuOTI5ODkgMy4zOTc3MUM2LjY4Njg4IDMuMzk3NzEgNS44MDM3MiA0LjQxMDgxIDUuNjU2NTggNS40Njg1MUM1LjI1NjczIDUuNDkyMzQgNC45MDM2NyA1LjY0MjggNC42Mjk0NiA1Ljg5NTUyQzQuMjU4NDkgNi4yMzc0IDQuMDY2ODkgNi43MzM2NSA0LjA2Njg5IDcuMjU2OTdDNC4wNjY4OSA3Ljc0MzMyIDQuMjE0MjQgOC4yMDMwMiA0LjU0NTAyIDguNTQyOUM0Ljg3ODA0IDguODg1MDcgNS4zNTA4MyA5LjA1ODQgNS45MDc1MyA5LjA1ODRINy42OTk5NUM3LjcwNTAyIDkuMDQ3NjcgNy43MTAwOCA5LjAzNjgyIDcuNzE1MTMgOS4wMjU4N0M3LjQ4MDcyIDguNzgzNjkgNy4zMzYzMSA4LjQ1MzczIDcuMzM2MzEgOC4wODk0NlY3LjM2MjIzQzcuMzM2MzEgNi42MTgyOSA3LjkzOTQgNi4wMTUyIDguNjgzMzQgNi4wMTUySDkuNDA4MTNDMTAuMTUyMSA2LjAxNTIgMTAuNzU1MiA2LjYxODI5IDEwLjc1NTIgNy4zNjIyNFY4LjA4OTQ2QzEwLjc1NTIgOC40MTkzMSAxMC42MzY3IDguNzIwOTggMTAuNDQwNCA4Ljk1NDc3QzExLjI0OTcgOC42OTIxNiAxMS44Nzk0IDcuOTYxIDExLjg3OTQgNi45MjA2OEMxMS44Nzk0IDUuNzYyODIgMTEuMDUyOSA0Ljg3MzAzIDEwLjA1OCA0Ljc3ODkyQzkuNjU5MTIgMy45NTMxMyA4LjkxODc3IDMuMzk3NzEgNy45Mjk4OSAzLjM5NzcxWiIvPiYjeGE7PHBhdGggZmlsbD0idXJsKCNwYWludDJfbGluZWFyXzM1MTRfNDAyNjkpIiBkPSJNOS40MDgzMyA2LjY0MDE0QzkuODA3MSA2LjY0MDE0IDEwLjEzMDQgNi45NjM0IDEwLjEzMDQgNy4zNjIxN1Y4LjA4OTRDMTAuMTMwNCA4LjM4ODc2IDkuOTQ4MTggOC42NDU1OCA5LjY4ODY0IDguNzU1MDFDOS44NDM5NSA5LjI0NjEyIDEwLjA0MzQgOS42MTA1IDEwLjIzMDUgOS44ODAwN0MxMC4zODc4IDEwLjEwNjkgMTAuNTMwNSAxMC4yNjExIDEwLjY0NTUgMTAuMzgwM0MxMC43Mzk5IDEwLjMzNSAxMC44NDU2IDEwLjMwOTcgMTAuOTU3MiAxMC4zMDk3SDExLjQwODNDMTEuODA3IDEwLjMwOTcgMTIuMTMwMyAxMC42MzI5IDEyLjEzMDMgMTEuMDMxN1YxMS40ODQ4QzEyLjEzMDMgMTEuODgzNSAxMS44MDcgMTIuMjA2OCAxMS40MDgzIDEyLjIwNjhIMTAuOTU3MkMxMC41NTg0IDEyLjIwNjggMTAuMjM1MiAxMS44ODM1IDEwLjIzNTIgMTEuNDg0OFYxMS4wMzE3QzEwLjIzNTIgMTAuOTI3OCAxMC4yNTcxIDEwLjgyODkgMTAuMjk2NyAxMC43Mzk2QzEwLjE3NDMgMTAuNjEyNyA5Ljk5NjU3IDEwLjQyMDEgOS44MTk2MiAxMC4xNjUxQzkuNjM5MDUgOS45MDQ3NiA5LjQ1MjU5IDkuNTcyODUgOS4yOTU5NCA5LjE1MDY3TDkuMjk1OTggMTAuOTQ1OEM5LjY5MzE0IDEwLjk0NzYgMTAuMDE0NSAxMS4yNzAyIDEwLjAxNDUgMTEuNjY3OFYxMi4xMjA4QzEwLjAxNDUgMTIuNTE5NiA5LjY5MTI1IDEyLjg0MjkgOS4yOTI0OCAxMi44NDI5SDguODQxNDRDOC40NDI2NyAxMi44NDI5IDguMTE5NCAxMi41MTk2IDguMTE5NCAxMi4xMjA4VjExLjY2NzhDOC4xMTk0IDExLjI4NDMgOC40MTgzOSAxMC45NzA2IDguNzk1OTggMTAuOTQ3Mkw4Ljc5NTk1IDkuMzYzNDVDOC42NTg5MyA5LjY4NjQ2IDguNTA1ODQgOS45NTAxNiA4LjM1Njc3IDEwLjE2NTFDOC4xNjQ5MiAxMC40NDE2IDcuOTcyMTMgMTAuNjQ0NyA3Ljg1IDEwLjc3MDNDNy44ODE1IDEwLjg1MTQgNy44OTg3OCAxMC45Mzk1IDcuODk4NzggMTEuMDMxN1YxMS40ODQ4QzcuODk4NzggMTEuODgzNSA3LjU3NTUxIDEyLjIwNjggNy4xNzY3NCAxMi4yMDY4SDYuNzI1N0M2LjMyNjkzIDEyLjIwNjggNi4wMDM2NiAxMS44ODM1IDYuMDAzNjYgMTEuNDg0OEw2LjAwMzY2IDExLjAzMTdDNi4wMDM2NiAxMC42MzI5IDYuMzI2OTMgMTAuMzA5NyA2LjcyNTcgMTAuMzA5N0g3LjE3Njc0QzcuMjk5NzQgMTAuMzA5NyA3LjQxNTU3IDEwLjM0MDQgNy41MTY5MyAxMC4zOTQ3QzcuNjM0MyAxMC4yNzM2IDcuNzgyMTMgMTAuMTE2MiA3Ljk0NTk0IDkuODgwMDdDOC4xMjk0OSA5LjYxNTQ3IDguMzI1MDggOS4yNTk1NSA4LjQ3OTEgOC43ODIwOUM4LjE3OTkgOC42OTM5MiA3Ljk2MTUxIDguNDE3MTcgNy45NjE1MSA4LjA4OTRWNy4zNjIxN0M3Ljk2MTUxIDYuOTYzNCA4LjI4NDc3IDYuNjQwMTQgOC42ODM1NCA2LjY0MDE0SDkuNDA4MzNaTTkuNTA1MzcgNy4zNjIxN0M5LjUwNTM3IDcuMzA4NTggOS40NjE5MiA3LjI2NTE0IDkuNDA4MzMgNy4yNjUxNEw4LjY4MzU0IDcuMjY1MTRDOC42Mjk5NSA3LjI2NTE0IDguNTg2NSA3LjMwODU4IDguNTg2NSA3LjM2MjE3VjguMDg5NEM4LjU4NjUgOC4xNDI5OSA4LjYyOTk1IDguMTg2NDQgOC42ODM1NCA4LjE4NjQ0SDkuNDA4MzNDOS40NjE5MyA4LjE4NjQ0IDkuNTA1MzcgOC4xNDI5OSA5LjUwNTM3IDguMDg5NFY3LjM2MjE3Wk05LjM4OTUyIDExLjY2NzhDOS4zODk1MiAxMS42MTQyIDkuMzQ2MDcgMTEuNTcwNyA5LjI5MjQ4IDExLjU3MDdIOC44NDE0NEM4Ljc4Nzg1IDExLjU3MDcgOC43NDQ0IDExLjYxNDIgOC43NDQ0IDExLjY2NzhWMTIuMTIwOEM4Ljc0NDQgMTIuMTc0NCA4Ljc4Nzg1IDEyLjIxNzkgOC44NDE0NCAxMi4yMTc5SDkuMjkyNDhDOS4zNDYwNyAxMi4yMTc5IDkuMzg5NTIgMTIuMTc0NCA5LjM4OTUyIDEyLjEyMDhWMTEuNjY3OFpNMTEuNDA4MyAxMC45MzQ3QzExLjQ2MTkgMTAuOTM0NyAxMS41MDUzIDEwLjk3ODEgMTEuNTA1MyAxMS4wMzE3VjExLjQ4NDhDMTEuNTA1MyAxMS41Mzg0IDExLjQ2MTkgMTEuNTgxOCAxMS40MDgzIDExLjU4MThIMTAuOTU3MkMxMC45MDM2IDExLjU4MTggMTAuODYwMiAxMS41Mzg0IDEwLjg2MDIgMTEuNDg0OFYxMS4wMzE3QzEwLjg2MDIgMTAuOTc4MSAxMC45MDM2IDEwLjkzNDcgMTAuOTU3MiAxMC45MzQ3SDExLjQwODNaTTcuMjczNzggMTEuMDMxN0M3LjI3Mzc4IDEwLjk3ODEgNy4yMzAzMyAxMC45MzQ3IDcuMTc2NzQgMTAuOTM0N0g2LjcyNTdDNi42NzIxMSAxMC45MzQ3IDYuNjI4NjYgMTAuOTc4MSA2LjYyODY2IDExLjAzMTdMNi42Mjg2NiAxMS40ODQ4QzYuNjI4NjYgMTEuNTM4NCA2LjY3MjExIDExLjU4MTggNi43MjU3IDExLjU4MThINy4xNzY3NEM3LjIzMDMzIDExLjU4MTggNy4yNzM3OCAxMS41Mzg0IDcuMjczNzggMTEuNDg0OFYxMS4wMzE3WiIgY2xpcC1ydWxlPSJldmVub2RkIiBmaWxsLXJ1bGU9ImV2ZW5vZGQiLz4mI3hhOzwvZz4mI3hhOzxkZWZzPiYjeGE7PGxpbmVhckdyYWRpZW50IGdyYWRpZW50VW5pdHM9InVzZXJTcGFjZU9uVXNlIiB5Mj0iMTQuNzQ1NiIgeDI9IjEzLjY4NjQiIHkxPSIyLjI2ODciIHgxPSIxLjQ0OTQ2IiBpZD0icGFpbnQwX2xpbmVhcl8zNTE0XzQwMjY5Ij4mI3hhOzxzdG9wIHN0b3AtY29sb3I9IndoaXRlIi8+JiN4YTs8c3RvcCBzdG9wLWNvbG9yPSIjRUFFQ0VFIiBvZmZzZXQ9IjEiLz4mI3hhOzwvbGluZWFyR3JhZGllbnQ+JiN4YTs8bGluZWFyR3JhZGllbnQgZ3JhZGllbnRVbml0cz0idXNlclNwYWNlT25Vc2UiIHkyPSI5LjQ0MzYzIiB4Mj0iOS4wMDQwMyIgeTE9IjQuMjQ0MjMiIHgxPSI1LjIzODAyIiBpZD0icGFpbnQxX2xpbmVhcl8zNTE0XzQwMjY5Ij4mI3hhOzxzdG9wIHN0b3AtY29sb3I9IiMwMTk1RkYiLz4mI3hhOzxzdG9wIHN0b3AtY29sb3I9IiMxMTQ3RTkiIG9mZnNldD0iMC45OTEwMjgiLz4mI3hhOzwvbGluZWFyR3JhZGllbnQ+JiN4YTs8bGluZWFyR3JhZGllbnQgZ3JhZGllbnRVbml0cz0idXNlclNwYWNlT25Vc2UiIHkyPSIxMS44NTg4IiB4Mj0iMTEuMjUwMyIgeTE9IjcuNTUyNjkiIHgxPSI2LjkwOTQ0IiBpZD0icGFpbnQyX2xpbmVhcl8zNTE0XzQwMjY5Ij4mI3hhOzxzdG9wIHN0b3AtY29sb3I9IiMxMzQ4RkYiLz4mI3hhOzxzdG9wIHN0b3AtY29sb3I9IiMwNjIzOEQiIG9mZnNldD0iMSIvPiYjeGE7PC9saW5lYXJHcmFkaWVudD4mI3hhOzxjbGlwUGF0aCBpZD0iY2xpcDBfMzUxNF80MDI2OSI+JiN4YTs8cmVjdCB0cmFuc2Zvcm09InRyYW5zbGF0ZSgzLjA5ODYzIDMuMzk3NzEpIiBmaWxsPSJ3aGl0ZSIgaGVpZ2h0PSI5Ljk5OTkyIiB3aWR0aD0iOS45OTk4Ii8+JiN4YTs8L2NsaXBQYXRoPiYjeGE7PC9kZWZzPiYjeGE7PC9zdmc+;points=[[0,0,0,0,0],[0,0.25,0,0,0],[0,0.5,0,0,0],[0,0.75,0,0,0],[0.25,0,0,0,0],[0.5,0,0,0,0],[0.75,0,0,0,0],[1,0,0,0,0],[1,0.25,0,0,0],[1,0.5,0,0,0],[1,0.75,0,0,0]];" parent="dRn98VZPlsFJSJt_BaqV-1" vertex="1">
          <mxGeometry x="199.39000000000007" y="-5.531320791884106" width="31.104895104895107" height="31.104895104895107" as="geometry" />
        </mxCell>
        <mxCell id="MNoCtDz5ZO1DFXrK31TN-22" value="&lt;p style=&quot;line-height: 114%;&quot;&gt;&lt;font color=&quot;#475f75&quot; size=&quot;1&quot;&gt;&lt;b style=&quot;&quot;&gt;OData V4/GraphQL&lt;/b&gt;&lt;/font&gt;&lt;/p&gt;" style="rounded=1;whiteSpace=wrap;html=1;arcSize=50;strokeColor=#475f75;fillColor=#f5f6f7;fontColor=#266f3a;strokeWidth=1.5;" parent="dRn98VZPlsFJSJt_BaqV-1" vertex="1">
          <mxGeometry x="72.75" y="2.019999999999982" width="95.33" height="16" as="geometry" />
        </mxCell>
        <mxCell id="dRn98VZPlsFJSJt_BaqV-120" value="" style="endArrow=blockThin;html=1;rounded=0;strokeColor=#475E75;strokeWidth=1.5;exitX=1;exitY=0.5;exitDx=0;exitDy=0;endFill=1;endSize=4;startSize=4;entryX=0;entryY=0.5;entryDx=0;entryDy=0;entryPerimeter=0;" parent="dRn98VZPlsFJSJt_BaqV-1" source="MNoCtDz5ZO1DFXrK31TN-22" target="dRn98VZPlsFJSJt_BaqV-52" edge="1">
          <mxGeometry width="50" height="50" relative="1" as="geometry">
            <mxPoint x="161.5" y="10.021126760563448" as="sourcePoint" />
            <mxPoint x="186.74761589403988" y="12.042253521126668" as="targetPoint" />
          </mxGeometry>
        </mxCell>
        <mxCell id="dRn98VZPlsFJSJt_BaqV-110" value="" style="endArrow=blockThin;html=1;strokeColor=#475e75;bendable=1;rounded=0;endFill=1;endSize=4;strokeWidth=1.5;startSize=4;startArrow=none;startFill=0;entryX=0;entryY=0.5;entryDx=0;entryDy=0;entryPerimeter=0;" parent="1" source="8Uogrh9DGqOY0QzcngNR-36" target="8Uogrh9DGqOY0QzcngNR-39" edge="1">
          <mxGeometry width="50" height="50" relative="1" as="geometry">
            <mxPoint x="-1981" y="-1211" as="sourcePoint" />
            <mxPoint x="-1861" y="-1211" as="targetPoint" />
            <Array as="points" />
          </mxGeometry>
        </mxCell>
        <mxCell id="dRn98VZPlsFJSJt_BaqV-70" style="rounded=0;orthogonalLoop=1;jettySize=auto;html=1;exitX=1;exitY=0.5;exitDx=0;exitDy=0;entryX=0;entryY=0.5;entryDx=0;entryDy=0;strokeColor=#475E75;endArrow=blockThin;endFill=1;" parent="1" source="dRn98VZPlsFJSJt_BaqV-12" target="ywHCQfon3YgA2eiFdqId-10" edge="1">
          <mxGeometry relative="1" as="geometry">
            <mxPoint x="-1937.75" y="-1360" as="targetPoint" />
            <mxPoint x="-2097" y="-1366" as="sourcePoint" />
          </mxGeometry>
        </mxCell>
        <mxCell id="dRn98VZPlsFJSJt_BaqV-71" style="rounded=0;orthogonalLoop=1;jettySize=auto;html=1;startArrow=none;startFill=0;edgeStyle=elbowEdgeStyle;exitX=1;exitY=0.75;exitDx=0;exitDy=0;entryX=0.011;entryY=0.895;entryDx=0;entryDy=0;entryPerimeter=0;strokeColor=#475E75;endArrow=blockThin;endFill=1;" parent="1" source="dRn98VZPlsFJSJt_BaqV-12" target="ywHCQfon3YgA2eiFdqId-10" edge="1">
          <mxGeometry relative="1" as="geometry">
            <mxPoint x="-1936" y="-1330" as="targetPoint" />
            <mxPoint x="-2096" y="-1331" as="sourcePoint" />
            <Array as="points">
              <mxPoint x="-1986" y="-1328" />
            </Array>
          </mxGeometry>
        </mxCell>
        <mxCell id="dRn98VZPlsFJSJt_BaqV-94" style="rounded=0;orthogonalLoop=1;jettySize=auto;html=1;exitX=1;exitY=0.25;exitDx=0;exitDy=0;entryX=-0.006;entryY=0.123;entryDx=0;entryDy=0;edgeStyle=elbowEdgeStyle;entryPerimeter=0;strokeColor=#475E75;endArrow=blockThin;endFill=1;" parent="1" source="dRn98VZPlsFJSJt_BaqV-12" target="ywHCQfon3YgA2eiFdqId-10" edge="1">
          <mxGeometry relative="1" as="geometry">
            <mxPoint x="-1937.9535" y="-1394.006" as="targetPoint" />
            <mxPoint x="-2097" y="-1350" as="sourcePoint" />
            <Array as="points">
              <mxPoint x="-1986" y="-1368" />
            </Array>
          </mxGeometry>
        </mxCell>
        <mxCell id="ywHCQfon3YgA2eiFdqId-10" value="&lt;b&gt;API&lt;br&gt;gateway&lt;/b&gt;" style="rounded=1;whiteSpace=wrap;html=1;strokeColor=#0070F2;strokeWidth=1.5;arcSize=16;fillColor=#ECF8FF;perimeterSpacing=0;absoluteArcSize=1;verticalAlign=middle;" parent="1" vertex="1">
          <mxGeometry x="-1940.87" y="-1399.81" width="70.87" height="91.63" as="geometry" />
        </mxCell>
        <mxCell id="dRn98VZPlsFJSJt_BaqV-24" value="&lt;font size=&quot;1&quot; face=&quot;arial&quot; style=&quot;&quot;&gt;&lt;b style=&quot;font-size: 14px;&quot;&gt;API Management&lt;/b&gt;&lt;/font&gt;" style="text;html=1;align=left;verticalAlign=middle;resizable=0;points=[];autosize=1;strokeColor=none;fillColor=none;fontSize=12;fontColor=#1d2d3e;fontFamily=Helvetica;" parent="1" vertex="1">
          <mxGeometry x="-1913.9959057491126" y="-1439.9995104895106" width="140" height="30" as="geometry" />
        </mxCell>
        <mxCell id="dRn98VZPlsFJSJt_BaqV-119" value="" style="endArrow=none;html=1;rounded=0;strokeColor=#475E75;strokeWidth=1.5;exitX=1;exitY=0.5;exitDx=0;exitDy=0;" parent="1" source="ywHCQfon3YgA2eiFdqId-10" edge="1">
          <mxGeometry width="50" height="50" relative="1" as="geometry">
            <mxPoint x="-1836" y="-1358" as="sourcePoint" />
            <mxPoint x="-1850" y="-1354" as="targetPoint" />
          </mxGeometry>
        </mxCell>
        <mxCell id="5vg1LEbN_MTVKCMFhfo3-2" value="&lt;font face=&quot;arial&quot; style=&quot;font-size: 16px;&quot;&gt;&lt;b style=&quot;font-size: 16px;&quot;&gt;SAP Integration Suite&lt;/b&gt;&lt;/font&gt;" style="text;html=1;align=left;verticalAlign=middle;resizable=0;points=[];autosize=1;strokeColor=none;fillColor=none;fontSize=12;fontColor=#1d2d3e;fontFamily=Helvetica;" parent="1" vertex="1">
          <mxGeometry x="-1966.7482898550727" y="-1480.0043217665611" width="190" height="30" as="geometry" />
        </mxCell>
        <mxCell id="dRn98VZPlsFJSJt_BaqV-62" style="rounded=0;orthogonalLoop=1;jettySize=auto;html=1;exitX=1.003;exitY=0.123;exitDx=0;exitDy=0;edgeStyle=elbowEdgeStyle;exitPerimeter=0;endArrow=blockThin;endFill=1;entryX=0;entryY=0.5;entryDx=0;entryDy=0;strokeWidth=1.5;strokeColor=#475E75;" parent="1" source="ywHCQfon3YgA2eiFdqId-10" target="dRn98VZPlsFJSJt_BaqV-25" edge="1">
          <mxGeometry relative="1" as="geometry">
            <mxPoint x="-1430" y="-1562" as="targetPoint" />
            <mxPoint x="-1824.87" y="-1391.1255944055945" as="sourcePoint" />
            <Array as="points">
              <mxPoint x="-1611" y="-1492" />
            </Array>
          </mxGeometry>
        </mxCell>
        <mxCell id="dRn98VZPlsFJSJt_BaqV-96" value="" style="endArrow=blockThin;html=1;strokeColor=#475e75;bendable=1;rounded=0;endFill=1;endSize=4;strokeWidth=1.5;startSize=4;startArrow=none;startFill=0;exitX=1;exitY=0.5;exitDx=0;exitDy=0;exitPerimeter=0;entryX=0;entryY=0.5;entryDx=0;entryDy=0;edgeStyle=elbowEdgeStyle;" parent="1" source="zLkr8Fda_o7fLGSxankt-202" target="dRn98VZPlsFJSJt_BaqV-42" edge="1">
          <mxGeometry width="50" height="50" relative="1" as="geometry">
            <mxPoint x="-1823.95075" y="-1315.962" as="sourcePoint" />
            <mxPoint x="-1379.4110596026494" y="-1236.5" as="targetPoint" />
            <Array as="points">
              <mxPoint x="-1550" y="-1284" />
            </Array>
          </mxGeometry>
        </mxCell>
        <mxCell id="dRn98VZPlsFJSJt_BaqV-93" value="" style="endArrow=blockThin;html=1;strokeColor=#475e75;bendable=1;rounded=0;endFill=1;endSize=4;strokeWidth=1.5;startSize=4;startArrow=none;startFill=0;exitX=1;exitY=0.75;exitDx=0;exitDy=0;entryX=0;entryY=0.5;entryDx=0;entryDy=0;entryPerimeter=0;" parent="1" target="zLkr8Fda_o7fLGSxankt-202" edge="1">
          <mxGeometry width="50" height="50" relative="1" as="geometry">
            <mxPoint x="-1871" y="-1315.0874999999999" as="sourcePoint" />
            <mxPoint x="-1635" y="-1313" as="targetPoint" />
            <Array as="points" />
          </mxGeometry>
        </mxCell>
        <mxCell id="ywHCQfon3YgA2eiFdqId-14" value="" style="shape=image;verticalLabelPosition=bottom;labelBackgroundColor=default;verticalAlign=top;aspect=fixed;imageAspect=0;image=data:image/svg+xml,PHN2ZyB4bWxucz0iaHR0cDovL3d3dy53My5vcmcvMjAwMC9zdmciIGZpbGw9Im5vbmUiIHZpZXdCb3g9IjAgMCAxNiAxNiIgaGVpZ2h0PSIxNiIgd2lkdGg9IjE2Ij4mI3hhOzxjaXJjbGUgc3Ryb2tlLXdpZHRoPSIwLjI4NTcwOCIgc3Ryb2tlPSIjRDVEQUREIiBmaWxsPSJ1cmwoI3BhaW50MF9saW5lYXJfMzUxNF80MDI2OCkiIHI9IjcuODU2OTYiIGN5PSI3Ljk5NzYyIiBjeD0iNy45OTg4NCIvPiYjeGE7PGcgY2xpcC1wYXRoPSJ1cmwoI2NsaXAwXzM1MTRfNDAyNjgpIj4mI3hhOzxwYXRoIGZpbGw9InVybCgjcGFpbnQxX2xpbmVhcl8zNTE0XzQwMjY4KSIgZD0iTTcuOTQ5NTggMi44OTc3MUM2LjQyNzE1IDIuODk3NzEgNS4yNzc5NSAzLjk2MDAxIDQuOTEzNDkgNS4yMDYwOEM0LjUxMDcgNS4yOTI5NiA0LjE0MjEzIDUuNDc0NDUgMy44MzI3NyA1Ljc0NTc3QzMuMjc3NDcgNi4yMzI3OSAyLjk5OTAyIDYuOTM0MTMgMi45OTkwMiA3LjY1MzAxQzIuOTk5MDIgOC4zMDY1NCAzLjIwOTcgOC45NjQzNCAzLjcxNDYyIDkuNDU4MDNDNC4xMSA5Ljg0NDYzIDQuNjE1OTMgMTAuMDYyNSA1LjE2OTczIDEwLjEzODZWMTAuMDI0MkM1LjE2OTczIDkuNzIwMzUgNS4yODA2NCA5LjQ0MjM4IDUuNDY0MiA5LjIyODU5QzQuOTYzODYgOS4wNzU2MSA0LjU5OTk2IDguNjEwMTkgNC41OTk5NiA4LjA1OTc3VjcuNzIwNzdDNC41OTk5NiA3LjA0NTg1IDUuMTQ3MDkgNi40OTg3MyA1LjgyMiA2LjQ5ODczSDYuMTU5MTdDNi4xNzEwNyA2LjQ5ODczIDYuMTgyOTMgNi40OTg5IDYuMTk0NzUgNi40OTkyNEM2LjE3NTk3IDYuNDE0MTEgNi4xNjYwOCA2LjMyNTY0IDYuMTY2MDggNi4yMzQ4NlY1Ljg5NTg3QzYuMTY2MDggNS4yMjA5NSA2LjcxMzIgNC42NzM4MyA3LjM4ODExIDQuNjczODNINy43MjUyOUM4LjQwMDIgNC42NzM4MyA4Ljk0NzMzIDUuMjIwOTUgOC45NDczMyA1Ljg5NTg3VjYuMTc4NzdDOS4xNzE0OCA1LjkxNTIxIDkuNTA1NTMgNS43NDgwMSA5Ljg3ODYzIDUuNzQ4MDFIMTAuMjE1OEMxMC44OTA3IDUuNzQ4MDEgMTEuNDM3OCA2LjI5NTEzIDExLjQzNzggNi45NzAwNFY3LjMwOTA0QzExLjQzNzggNy42NjM0OCAxMS4yODY5IDcuOTgyNjggMTEuMDQ1OSA4LjIwNTg5QzExLjIzMTIgOC40MjAxMyAxMS4zNDMzIDguNjk5NDUgMTEuMzQzMyA5LjAwNDk1VjkuNDU4QzExLjM0MzMgOS42MjU1NiAxMS4zMDk2IDkuNzg1MjQgMTEuMjQ4NiA5LjkzMDYzQzEyLjIzNDEgOS41MTg2OSAxMi45OTkgOC41OTgwOSAxMi45OTkgNy4yODcyQzEyLjk5OSA1LjgyNDczIDExLjk3ODYgNC42OTQ1NyAxMC43MTMxIDQuNDQzNDlDMTAuMTQzOCAzLjUxNDMgOS4xODIzIDIuODk3NzEgNy45NDk1OCAyLjg5NzcxWiIvPiYjeGE7PHBhdGggZmlsbD0idXJsKCNwYWludDJfcmFkaWFsXzM1MTRfNDAyNjgpIiBkPSJNNy43MjUzMSA1LjE3MTg4QzguMTI0MDggNS4xNzE4OCA4LjQ0NzM0IDUuNDk1MTQgOC40NDczNCA1Ljg5MzkxVjYuMjMyOTFDOC40NDczNCA2LjQ1NjIxIDguMzQ1OTggNi42NTU4NCA4LjE4Njc1IDYuNzg4MjhMOC4zNTM4NCA3LjQ1MDkzSDguMzc3OTRDOC40NDc3IDcuNDUwOTMgOC41MTMzOSA3LjQ2ODM3IDguNTcwODggNy40OTkxM0w5LjE1NjYzIDcuMjAxOTVWNi45NjgxM0M5LjE1NjYzIDYuNTY5MzYgOS40Nzk5IDYuMjQ2MDkgOS44Nzg2NyA2LjI0NjA5SDEwLjIxNThDMTAuNjE0NiA2LjI0NjA5IDEwLjkzNzkgNi41NjkzNiAxMC45Mzc5IDYuOTY4MTNWNy4zMDcxM0MxMC45Mzc5IDcuNzA1OSAxMC42MTQ2IDguMDI5MTcgMTAuMjE1OCA4LjAyOTE3SDkuODc4NjdDOS42NzE4MyA4LjAyOTE3IDkuNDg1MyA3Ljk0MjE5IDkuMzUzNjYgNy44MDI4Mkw4Ljc4NzQ4IDguMDkwMDhWOC4xNjE2Nkw4Ljc4OTM3IDguMTU4NzhMOS4yMTg0MyA4LjQzOTlDOS4zNDIxNSA4LjM0MDQ5IDkuNDk5MzEgOC4yODEwMSA5LjY3MDM2IDguMjgxMDFIMTAuMTIxNEMxMC41MjAyIDguMjgxMDEgMTAuODQzNCA4LjYwNDI3IDEwLjg0MzQgOS4wMDMwNFY5LjQ1NjA5QzEwLjg0MzQgOS44NTQ4NiAxMC41MjAyIDEwLjE3ODEgMTAuMTIxNCAxMC4xNzgxSDkuNjcwMzZDOS4yNzE1OSAxMC4xNzgxIDguOTQ4MzMgOS44NTQ4NiA4Ljk0ODMzIDkuNDU2MDlWOS4wMTAxM0w4LjU2MTUzIDguNzU2N0M4LjUwNjMxIDguNzg0NDQgOC40NDM5NSA4LjgwMDA2IDguMzc3OTQgOC44MDAwNkg4LjA0NDM1TDcuMzc0ODYgOS42OTkwNEM3LjQyMzY1IDkuNzk2MyA3LjQ1MTExIDkuOTA2MTEgNy40NTExMSAxMC4wMjIzVjEwLjM2MTNDNy40NTExMSAxMC43NjAxIDcuMTI3ODQgMTEuMDgzNCA2LjcyOTA3IDExLjA4MzRINi4zOTE5QzUuOTkzMTMgMTEuMDgzNCA1LjY2OTg2IDEwLjc2MDEgNS42Njk4NiAxMC4zNjEzTDUuNjY5ODYgMTAuMDIyM0M1LjY2OTg2IDkuNjIzNTYgNS45OTMxMyA5LjMwMDI5IDYuMzkxOSA5LjMwMDI5SDYuNzI5MDdDNi43ODEwNyA5LjMwMDI5IDYuODMxNzkgOS4zMDU3OSA2Ljg4MDY3IDkuMzE2MjNMNy40NjM4NiA4LjUzMzEzQzcuNDQ3MzYgOC40ODg3MiA3LjQzODM1IDguNDQwNjcgNy40MzgzNSA4LjM5MDUyVjguMjg0NjZMNi44NDUwMSA4LjI4NDY2QzYuNzQ5OTEgOC41NzIzMyA2LjQ3ODg1IDguNzc5OSA2LjE1OTMxIDguNzc5OUg1LjgyMjE0QzUuNDIzMzcgOC43Nzk5IDUuMTAwMSA4LjQ1NjYzIDUuMTAwMSA4LjA1Nzg2TDUuMTAwMSA3LjcxODg2QzUuMTAwMSA3LjMyMDA5IDUuNDIzMzcgNi45OTY4MyA1LjgyMjE0IDYuOTk2ODNINi4xNTkzMUM2LjUzODE1IDYuOTk2ODMgNi44NDg4NCA3LjI4ODU4IDYuODc4OTYgNy42NTk2Nkw3LjQ5MDg3IDcuNjU5NjZDNy41Mzk3NiA3LjU3MjkzIDcuNjE5MzMgNy41MDU4MSA3LjcxNDg1IDcuNDczMDJMNy41ODQyMSA2Ljk1NDk1SDcuMzg4MTNDNi45ODkzNiA2Ljk1NDk1IDYuNjY2MDkgNi42MzE2OCA2LjY2NjA5IDYuMjMyOTFWNS44OTM5MUM2LjY2NjA5IDUuNDk1MTQgNi45ODkzNiA1LjE3MTg4IDcuMzg4MTMgNS4xNzE4OEg3LjcyNTMxWk03LjgyMjM0IDUuODkzOTFDNy44MjIzNCA1Ljg0MDMyIDcuNzc4OSA1Ljc5Njg4IDcuNzI1MzEgNS43OTY4OEw3LjM4ODEzIDUuNzk2ODdDNy4zMzQ1NCA1Ljc5Njg3IDcuMjkxMDkgNS44NDAzMiA3LjI5MTA5IDUuODkzOTFWNi4yMzI5MUM3LjI5MTA5IDYuMjg2NSA3LjMzNDU0IDYuMzI5OTUgNy4zODgxMyA2LjMyOTk1SDcuNzI1MzFDNy43Nzg5IDYuMzI5OTUgNy44MjIzNCA2LjI4NjUgNy44MjIzNCA2LjIzMjkxVjUuODkzOTFaTTEwLjMxMjkgNi45NjgxM0MxMC4zMTI5IDYuOTE0NTQgMTAuMjY5NCA2Ljg3MTA5IDEwLjIxNTggNi44NzEwOUg5Ljg3ODY3QzkuODI1MDggNi44NzEwOSA5Ljc4MTYzIDYuOTE0NTQgOS43ODE2MyA2Ljk2ODEzVjcuMzA3MTNDOS43ODE2MyA3LjM2MDcyIDkuODI1MDggNy40MDQxNyA5Ljg3ODY3IDcuNDA0MTdIMTAuMjE1OEMxMC4yNjk0IDcuNDA0MTcgMTAuMzEyOSA3LjM2MDcyIDEwLjMxMjkgNy4zMDcxM1Y2Ljk2ODEzWk0xMC4yMTg0IDkuMDAzMDRDMTAuMjE4NCA4Ljk0OTQ1IDEwLjE3NSA4LjkwNjAxIDEwLjEyMTQgOC45MDYwMUg5LjY3MDM2QzkuNjE2NzcgOC45MDYwMSA5LjU3MzMzIDguOTQ5NDUgOS41NzMzMyA5LjAwMzA0VjkuNDU2MDlDOS41NzMzMyA5LjUwOTY4IDkuNjE2NzcgOS41NTMxMyA5LjY3MDM2IDkuNTUzMTNIMTAuMTIxNEMxMC4xNzUgOS41NTMxMyAxMC4yMTg0IDkuNTA5NjggMTAuMjE4NCA5LjQ1NjA5VjkuMDAzMDRaTTYuMTU5MzEgNy42MjE4M0M2LjIxMjkgNy42MjE4MyA2LjI1NjM1IDcuNjY1MjcgNi4yNTYzNSA3LjcxODg2VjguMDU3ODZDNi4yNTYzNSA4LjExMTQ2IDYuMjEyOSA4LjE1NDkgNi4xNTkzMSA4LjE1NDlINS44MjIxNEM1Ljc2ODU0IDguMTU0OSA1LjcyNTEgOC4xMTE0NiA1LjcyNTEgOC4wNTc4NlY3LjcxODg2QzUuNzI1MSA3LjY2NTI3IDUuNzY4NTQgNy42MjE4MyA1LjgyMjE0IDcuNjIxODNINi4xNTkzMVpNNi44MjYxMSAxMC4wMjIzQzYuODI2MTEgOS45Njg3NCA2Ljc4MjY3IDkuOTI1MjkgNi43MjkwNyA5LjkyNTI5SDYuMzkxOUM2LjMzODMxIDkuOTI1MjkgNi4yOTQ4NiA5Ljk2ODc0IDYuMjk0ODYgMTAuMDIyM1YxMC4zNjEzQzYuMjk0ODYgMTAuNDE0OSA2LjMzODMxIDEwLjQ1ODQgNi4zOTE5IDEwLjQ1ODRINi43MjkwN0M2Ljc4MjY3IDEwLjQ1ODQgNi44MjYxMSAxMC40MTQ5IDYuODI2MTEgMTAuMzYxM1YxMC4wMjIzWiIgY2xpcC1ydWxlPSJldmVub2RkIiBmaWxsLXJ1bGU9ImV2ZW5vZGQiLz4mI3hhOzxwYXRoIGZpbGw9InVybCgjcGFpbnQzX3JhZGlhbF8zNTE0XzQwMjY4KSIgZD0iTTQuMjU4NzkgMTAuNTIyN0M0LjUwMDQxIDEwLjUyMjcgNC42OTYyOSAxMC43MTg2IDQuNjk2MjkgMTAuOTYwMlYxMS40NjAyQzQuNjk2MjkgMTEuNzcwOSA0Ljk0ODEzIDEyLjAyMjcgNS4yNTg3OSAxMi4wMjI3SDEwLjc1ODhDMTEuMDY5NCAxMi4wMjI3IDExLjMyMTMgMTEuNzcwOSAxMS4zMjEzIDExLjQ2MDJWMTAuOTYwMkMxMS4zMjEzIDEwLjcxODYgMTEuNTE3MiAxMC41MjI3IDExLjc1ODggMTAuNTIyN0MxMi4wMDA0IDEwLjUyMjcgMTIuMTk2MyAxMC43MTg2IDEyLjE5NjMgMTAuOTYwMlYxMS40NjAyQzEyLjE5NjMgMTIuMjU0MSAxMS41NTI3IDEyLjg5NzcgMTAuNzU4OCAxMi44OTc3SDUuMjU4NzlDNC40NjQ4OCAxMi44OTc3IDMuODIxMjkgMTIuMjU0MSAzLjgyMTI5IDExLjQ2MDJWMTAuOTYwMkMzLjgyMTI5IDEwLjcxODYgNC4wMTcxNiAxMC41MjI3IDQuMjU4NzkgMTAuNTIyN1pNMTAuNTIzNCAxMS42Mzc5QzEwLjczMDUgMTEuNjM3OSAxMC44OTg0IDExLjQ3IDEwLjg5ODQgMTEuMjYyOUMxMC44OTg0IDExLjA1NTggMTAuNzMwNSAxMC44ODc5IDEwLjUyMzQgMTAuODg3OUMxMC4zMTYzIDEwLjg4NzkgMTAuMTQ4NCAxMS4wNTU4IDEwLjE0ODQgMTEuMjYyOUMxMC4xNDg0IDExLjQ3IDEwLjMxNjMgMTEuNjM3OSAxMC41MjM0IDExLjYzNzlaTTkuNzQ5NzQgMTEuMjYyOUM5Ljc0OTc0IDExLjQ3IDkuNTgxODUgMTEuNjM3OSA5LjM3NDc0IDExLjYzNzlDOS4xNjc2MyAxMS42Mzc5IDguOTk5NzQgMTEuNDcgOC45OTk3NCAxMS4yNjI5QzguOTk5NzQgMTEuMDU1OCA5LjE2NzYzIDEwLjg4NzkgOS4zNzQ3NCAxMC44ODc5QzkuNTgxODUgMTAuODg3OSA5Ljc0OTc0IDExLjA1NTggOS43NDk3NCAxMS4yNjI5WiIgY2xpcC1ydWxlPSJldmVub2RkIiBmaWxsLXJ1bGU9ImV2ZW5vZGQiLz4mI3hhOzwvZz4mI3hhOzxkZWZzPiYjeGE7PGxpbmVhckdyYWRpZW50IGdyYWRpZW50VW5pdHM9InVzZXJTcGFjZU9uVXNlIiB5Mj0iMTQuNzQ1NiIgeDI9IjEzLjY4NjkiIHkxPSIyLjI2ODciIHgxPSIxLjQ0OTk1IiBpZD0icGFpbnQwX2xpbmVhcl8zNTE0XzQwMjY4Ij4mI3hhOzxzdG9wIHN0b3AtY29sb3I9IndoaXRlIi8+JiN4YTs8c3RvcCBzdG9wLWNvbG9yPSIjRUFFQ0VFIiBvZmZzZXQ9IjEiLz4mI3hhOzwvbGluZWFyR3JhZGllbnQ+JiN4YTs8bGluZWFyR3JhZGllbnQgZ3JhZGllbnRVbml0cz0idXNlclNwYWNlT25Vc2UiIHkyPSIxMC42MzQ0IiB4Mj0iOS4zMTQ0MSIgeTE9IjMuOTgwNTQiIHgxPSI0LjQ5ODA3IiBpZD0icGFpbnQxX2xpbmVhcl8zNTE0XzQwMjY4Ij4mI3hhOzxzdG9wIHN0b3AtY29sb3I9IiMwMTk1RkYiLz4mI3hhOzxzdG9wIHN0b3AtY29sb3I9IiMxMTQ3RTkiIG9mZnNldD0iMC45OTEwMjgiLz4mI3hhOzwvbGluZWFyR3JhZGllbnQ+JiN4YTs8cmFkaWFsR3JhZGllbnQgZ3JhZGllbnRUcmFuc2Zvcm09InRyYW5zbGF0ZSg2LjAwNDA3IDYuMDYxMTcpIHJvdGF0ZSg0NS4zNTk0KSBzY2FsZSg1Ljc4NzI0IDUuMjczMjgpIiBncmFkaWVudFVuaXRzPSJ1c2VyU3BhY2VPblVzZSIgcj0iMSIgY3k9IjAiIGN4PSIwIiBpZD0icGFpbnQyX3JhZGlhbF8zNTE0XzQwMjY4Ij4mI3hhOzxzdG9wIHN0b3AtY29sb3I9IiMxMzQ4RkYiLz4mI3hhOzxzdG9wIHN0b3AtY29sb3I9IiMwNjIzOEQiIG9mZnNldD0iMSIvPiYjeGE7PC9yYWRpYWxHcmFkaWVudD4mI3hhOzxyYWRpYWxHcmFkaWVudCBncmFkaWVudFRyYW5zZm9ybT0idHJhbnNsYXRlKDUuMTE4MTQgMTAuODgpIHJvdGF0ZSgxNS44MzI0KSBzY2FsZSg2LjA2Mzg0IDIuOTAwNzMpIiBncmFkaWVudFVuaXRzPSJ1c2VyU3BhY2VPblVzZSIgcj0iMSIgY3k9IjAiIGN4PSIwIiBpZD0icGFpbnQzX3JhZGlhbF8zNTE0XzQwMjY4Ij4mI3hhOzxzdG9wIHN0b3AtY29sb3I9IiMxMzQ4RkYiLz4mI3hhOzxzdG9wIHN0b3AtY29sb3I9IiMwNjIzOEQiIG9mZnNldD0iMSIvPiYjeGE7PC9yYWRpYWxHcmFkaWVudD4mI3hhOzxjbGlwUGF0aCBpZD0iY2xpcDBfMzUxNF80MDI2OCI+JiN4YTs8cmVjdCB0cmFuc2Zvcm09InRyYW5zbGF0ZSgyLjk5OTAyIDIuODk3NzEpIiBmaWxsPSJ3aGl0ZSIgaGVpZ2h0PSIxMCIgd2lkdGg9IjEwIi8+JiN4YTs8L2NsaXBQYXRoPiYjeGE7PC9kZWZzPiYjeGE7PC9zdmc+;points=[[0,0,0,0,0],[0,0.25,0,0,0],[0,0.5,0,0,0],[0,0.75,0,0,0],[0.25,0,0,0,0],[0.5,0,0,0,0],[0.75,0,0,0,0],[1,0,0,0,0],[1,0.25,0,0,0],[1,0.5,0,0,0],[1,0.75,0,0,0]];" parent="1" vertex="1">
          <mxGeometry x="-2000.75" y="-1475.0043217665611" width="32" height="32" as="geometry" />
        </mxCell>
        <mxCell id="hYUSkcnEFoUa8Ber-fzS-89" value="" style="rounded=1;whiteSpace=wrap;html=1;strokeColor=#0070F2;strokeWidth=1.5;arcSize=16;fillColor=#FFFFFF;perimeterSpacing=0;absoluteArcSize=1;" parent="1" vertex="1">
          <mxGeometry x="-1968" y="-1096.97" width="370.078" height="200.97" as="geometry" />
        </mxCell>
        <mxCell id="hYUSkcnEFoUa8Ber-fzS-76" value="Kubernetes cluster" style="rounded=1;whiteSpace=wrap;html=1;strokeColor=#0070F2;strokeWidth=1.5;arcSize=16;fillColor=#FFFFFF;perimeterSpacing=0;absoluteArcSize=1;fontStyle=1;fontSize=16;verticalAlign=top;align=left;spacingLeft=4;" parent="1" vertex="1">
          <mxGeometry x="-1974" y="-1104" width="370" height="200.78699999999998" as="geometry" />
        </mxCell>
        <mxCell id="hYUSkcnEFoUa8Ber-fzS-73" value="Cloud Connector" style="shape=image;verticalLabelPosition=bottom;labelBackgroundColor=default;verticalAlign=top;aspect=fixed;imageAspect=0;image=data:image/svg+xml,PHN2ZyB4bWxucz0iaHR0cDovL3d3dy53My5vcmcvMjAwMC9zdmciIGZpbGw9Im5vbmUiIHZpZXdCb3g9IjAgMCAxNiAxNiIgaGVpZ2h0PSIxNiIgd2lkdGg9IjE2Ij4mI3hhOzxjaXJjbGUgc3Ryb2tlLXdpZHRoPSIwLjI4NTcwOCIgc3Ryb2tlPSIjRDVEQUREIiBmaWxsPSJ1cmwoI3BhaW50MF9saW5lYXJfMzg5MF8yMTUzNSkiIHI9IjcuODU2OTYiIGN5PSI3Ljk5NzM4IiBjeD0iNy45OTczOCIvPiYjeGE7PGcgY2xpcC1wYXRoPSJ1cmwoI2NsaXAwXzM4OTBfMjE1MzUpIj4mI3hhOzxwYXRoIHN0cm9rZS13aWR0aD0iMC43NSIgc3Ryb2tlPSIjRjRGNEY0IiBmaWxsPSJ1cmwoI3BhaW50MV9saW5lYXJfMzg5MF8yMTUzNSkiIGQ9Ik03LjYwNDA4IDguODk4NjRMNy43NTczMSA5LjA2NDA2TDcuOTc1MjcgOS4wMDYyOUM4LjEzMzMzIDguOTY0MzkgOC4yNjc1NiA4Ljg3ODU0IDguMzc4MjkgOC43Njc4MUM4LjU0MjcxIDguNjAzMzkgOC42NDQzNyA4LjM5NDE0IDguNjQ0MzcgOC4xNTEwOEM4LjY0NDM3IDguMTA5MzggOC42NDEzOCA4LjA2ODY4IDguNjM1NTkgOC4wMjkwMkM4LjY3NTI1IDguMDM0ODEgOC43MTU5NSA4LjAzNzgxIDguNzU3NjYgOC4wMzc4MUM5LjAwMDcxIDguMDM3ODEgOS4yMDk5NiA3LjkzNjE1IDkuMzc0MzggNy43NzE3MkM5LjUzODgxIDcuNjA3MyA5LjY0MDQ3IDcuMzk4MDUgOS42NDA0NyA3LjE1NDk5QzkuNjQwNDcgNi45MTE5NCA5LjUzODgxIDYuNzAyNjkgOS4zNzQzOCA2LjUzODI3TDkuMzc0NCA2LjUzODI1TDkuMzcxNDUgNi41MzUzN0w4Ljc0NDA0IDUuOTIxNkw4Ljg4NjEgNS43Nzk1NEw4LjY1MDQgNS41NDM4NEw4Ljg4NjEgNS43Nzk1NEM5LjA0ODM3IDUuNjE3MjcgOS4xMzI2NiA1LjQxMDg4IDkuMTMyNjYgNS4xODIzNUM5LjEzMjY2IDQuOTUxNzcgOS4wNTU3IDQuNzM1MjIgOC44ODYxIDQuNTY1NjJMOC40MzY4OCA0LjExNjRDNy45OTcyNiAzLjY3Njc4IDcuNDY4MjggMy40MzI2NCA2Ljg2MjggMy40MDE1OUM2LjM3NjY4IDMuMzc2NjcgNS45MjcwNyAzLjQ4OTYgNS41MjI0NSAzLjczNTI3TDQuNTA1ODcgMi42OTIxM0w0LjUwNTg5IDIuNjkyMTFMNC41MDI0NyAyLjY4ODY5QzQuMzM4MDQgMi41MjQyNyA0LjEyODc5IDIuNDIyNjEgMy44ODU3NCAyLjQyMjYxQzMuNjQ1MDUgMi40MjI2MSAzLjQ0Mzk4IDIuNTMzMjYgMy4yODg1NSAyLjY4ODY5QzMuMTI0MTIgMi44NTMxMiAzLjAyMjQ2IDMuMDYyMzcgMy4wMjI0NiAzLjMwNTQyQzMuMDIyNDYgMy41NDc1NCAzLjEyMzM0IDMuNzU2MTIgMy4yODY2NiAzLjkyMDI1TDQuMzE1MTYgNC45NzU2MkM0LjA4NjggNS4zNzg2NSAzLjk4MzE5IDUuODIxMjMgNC4wMDgxNyA2LjI5NThMNC4wMDgyIDYuMjk2MzNDNC4wMzk3OCA2Ljg4MDU0IDQuMjg3NTEgNy4zOTQ4NyA0LjcyMjk2IDcuODMwMzJMNC43MjI4OSA3LjgzMDM4TDQuNzI4OTEgNy44MzYxNEw1LjEgOC4xOTEwOUw1LjI1NzI4IDguMzQxNTNMNS40NjU5MiA4LjI3OTU5QzUuNjU0MzUgOC4yMjM2NiA1Ljg0OTI2IDguMTk1MTkgNi4wNDg5OCA4LjE5NTE5QzYuNDgxMzMgOC4xOTUxOSA2Ljg4MTkyIDguMzI4NjUgNy4yMzY5NCA4LjU3ODEyQzcuMzcyNTUgOC42NzM0MiA3LjQ5NDc5IDguNzgwNjYgNy42MDQwOCA4Ljg5ODY0WiIvPiYjeGE7PHBhdGggc3Ryb2tlLXdpZHRoPSIwLjc1IiBzdHJva2U9IiNGNEY0RjQiIGZpbGw9InVybCgjcGFpbnQyX2xpbmVhcl8zODkwXzIxNTM1KSIgZD0iTTkuNzYyODkgMTIuMDk4MkMxMC4yNTMgMTIuMTEwOCAxMC43MDMyIDExLjk3OSAxMS4xMDYgMTEuNzEyMkwxMi4yNjEyIDEyLjg2NzRDMTIuNDE2NyAxMy4wMjI5IDEyLjYxNzcgMTMuMTMzNSAxMi44NTg0IDEzLjEzMzVDMTMuMTAxNSAxMy4xMzM1IDEzLjMxMDcgMTMuMDMxOSAxMy40NzUyIDEyLjg2NzRDMTMuNjM5NiAxMi43MDMgMTMuNzQxMiAxMi40OTM4IDEzLjc0MTIgMTIuMjUwN0MxMy43NDEyIDEyLjAxMDUgMTMuNjMxMSAxMS44MDk4IDEzLjQ3NjEgMTEuNjU0NUwxMi4zMTMxIDEwLjQ3NTFDMTIuNTU3IDEwLjA4NjEgMTIuNjcxNCA5LjY1NDcxIDEyLjY0NzIgOS4xODg4QzEyLjYzMDIgOC41OTIxNiAxMi4zOTAxIDguMDY4NDcgMTEuOTUxNyA3LjYzMDFMMTEuNTAyNSA3LjE4MDg4QzExLjMzODEgNy4wMTY0NSAxMS4xMjg4IDYuOTE0NzkgMTAuODg1OCA2LjkxNDc5QzEwLjY0MjcgNi45MTQ3OSAxMC40MzM1IDcuMDE2NDUgMTAuMjY5MSA3LjE4MDg4TDguNDUxMTQgOC45OTg3OUw4LjE0NjM1IDkuMzAzNThMOC40OTAzOSA5LjU2MzI2QzguNjE1OCA5LjY1NzkzIDguNzI5MTYgOS43Njc5MyA4LjgyOTcyIDkuODkyMjlMOC44Mjk2OSA5Ljg5MjMyTDguODMzMiA5Ljg5NjU0QzguOTkxMiAxMC4wODYyIDkuMTExMDYgMTAuMzAxIDkuMTk1MzIgMTAuNTM1QzkuMjg0MDQgMTAuNzgxNSA5LjMyNTQ4IDExLjA0MDIgOS4zMjU0OCAxMS4zMDZDOS4zMjU0OCAxMS40MjU4IDkuMzE2ODQgMTEuNTQzOSA5LjI5OTQzIDExLjY2MDFMOS4yNDEwOSAxMi4wNDk3TDkuNjMzMDMgMTIuMDg4OEM5LjY3MjkgMTIuMDkyOCA5LjcxMjk5IDEyLjA5NTggOS43NTMzIDEyLjA5NzlMOS43NTMyOSAxMi4wOThMOS43NjI4OSAxMi4wOTgyWiIvPiYjeGE7PHBhdGggZmlsbD0idXJsKCNwYWludDNfbGluZWFyXzM4OTBfMjE1MzUpIiBkPSJNNC41MjY0NSAxMi43OTc3SDcuMzU0MTFDNy41NDA1NSAxMi43OTc3IDcuNzE2NjMgMTIuNzU5NyA3Ljg4MjM1IDEyLjY4MzdDOC4wNDgwOCAxMi42MDc4IDguMTg5NjMgMTIuNTA0MiA4LjMwNzAyIDEyLjM3M0M4LjQzMTMxIDEyLjIzNDkgOC41Mjc5OSAxMi4wNzYxIDguNTk3MDQgMTEuODk2NkM4LjY2NjA5IDExLjcxMDEgOC43MDA2MSAxMS41MTMzIDguNzAwNjEgMTEuMzA2MkM4LjcwMDYxIDExLjEwNTkgOC42Njk1NCAxMC45MTk1IDguNjA3NCAxMC43NDY4QzguNTQ1MjUgMTAuNTc0MiA4LjQ1ODkzIDEwLjQyMjMgOC4zNDg0NSAxMC4yOTExQzguMjM3OTcgMTAuMTUzIDguMTA2NzcgMTAuMDQyNSA3Ljk1NDg2IDkuOTU5NjZDNy44MDI5NSA5Ljg3NjggNy42NDA2NyA5LjgyODQ2IDcuNDY4MDUgOS44MTQ2NUM3LjMyOTk0IDkuNTEwODMgNy4xMzMxNSA5LjI2OTE1IDYuODc3NjYgOS4wODk2MUM2LjYyMjE3IDguOTEwMDggNi4zNDU5NiA4LjgyMDMxIDYuMDQ5MDQgOC44MjAzMUM1Ljg1NTY5IDguODIwMzEgNS42NjkyNSA4Ljg1ODI5IDUuNDg5NzIgOC45MzQyNUM1LjMxNzA5IDkuMDEwMiA1LjE2MTczIDkuMTEzNzggNS4wMjM2MiA5LjI0NDk4QzQuODg1NTIgOS4zNzYxOCA0Ljc3MTU5IDkuNTM1IDQuNjgxODIgOS43MjE0M0M0LjU5MjA1IDkuOTAwOTcgNC41Mjk5MSAxMC4wOTQzIDQuNDk1MzggMTAuMzAxNUM0LjM0MzQ3IDEwLjMwMTUgNC4xOTg0NiAxMC4zMzYgNC4wNjAzNiAxMC40MDVDMy45MjkxNiAxMC40NjcyIDMuODE1MjIgMTAuNTU3IDMuNzE4NTUgMTAuNjc0M0MzLjYyMTg4IDEwLjc4NDggMy41NDI0NyAxMC45MTYgMy40ODAzMiAxMS4wNjc5QzMuNDI1MDggMTEuMjE5OSAzLjM5NzQ2IDExLjM3ODcgMy4zOTc0NiAxMS41NDQ0QzMuMzk3NDYgMTEuNzE3IDMuNDI1MDggMTEuODc5MyAzLjQ4MDMyIDEyLjAzMTJDMy41NDI0NyAxMi4xODMxIDMuNjI1MzMgMTIuMzE3OCAzLjcyODkxIDEyLjQzNTJDMy44MzI0OSAxMi41NDU2IDMuOTUzMzMgMTIuNjM1NCA0LjA5MTQzIDEyLjcwNDVDNC4yMjk1MyAxMi43NjY2IDQuMzc0NTQgMTIuNzk3NyA0LjUyNjQ1IDEyLjc5NzdaIi8+JiN4YTs8L2c+JiN4YTs8ZGVmcz4mI3hhOzxsaW5lYXJHcmFkaWVudCBncmFkaWVudFVuaXRzPSJ1c2VyU3BhY2VPblVzZSIgeTI9IjE0Ljc0NTMiIHgyPSIxMy42ODU0IiB5MT0iMi4yNjg0NSIgeDE9IjEuNDQ4NDgiIGlkPSJwYWludDBfbGluZWFyXzM4OTBfMjE1MzUiPiYjeGE7PHN0b3Agc3RvcC1jb2xvcj0id2hpdGUiLz4mI3hhOzxzdG9wIHN0b3AtY29sb3I9IiNFQUVDRUUiIG9mZnNldD0iMSIvPiYjeGE7PC9saW5lYXJHcmFkaWVudD4mI3hhOzxsaW5lYXJHcmFkaWVudCBncmFkaWVudFVuaXRzPSJ1c2VyU3BhY2VPblVzZSIgeTI9IjcuNzgyMDIiIHgyPSI4LjM3MDU1IiB5MT0iMy42NzE4NyIgeDE9IjQuMjc3MSIgaWQ9InBhaW50MV9saW5lYXJfMzg5MF8yMTUzNSI+JiN4YTs8c3RvcCBzdG9wLWNvbG9yPSIjMDE5NUZGIi8+JiN4YTs8c3RvcCBzdG9wLWNvbG9yPSIjMTE0N0U5IiBvZmZzZXQ9IjAuOTkxMDI4Ii8+JiN4YTs8L2xpbmVhckdyYWRpZW50PiYjeGE7PGxpbmVhckdyYWRpZW50IGdyYWRpZW50VW5pdHM9InVzZXJTcGFjZU9uVXNlIiB5Mj0iMTEuMzIyNCIgeDI9IjEzLjE5MjkiIHkxPSI4LjEwNzYxIiB4MT0iOS40MTMzNSIgaWQ9InBhaW50Ml9saW5lYXJfMzg5MF8yMTUzNSI+JiN4YTs8c3RvcCBzdG9wLWNvbG9yPSIjMDE5NUZGIi8+JiN4YTs8c3RvcCBzdG9wLWNvbG9yPSIjMTE0N0U5IiBvZmZzZXQ9IjAuOTkxMDI4Ii8+JiN4YTs8L2xpbmVhckdyYWRpZW50PiYjeGE7PGxpbmVhckdyYWRpZW50IGdyYWRpZW50VW5pdHM9InVzZXJTcGFjZU9uVXNlIiB5Mj0iMTIuOTc5NCIgeDI9IjYuODUwNDgiIHkxPSI5LjQwNTQ3IiB4MT0iNC4xODE1IiBpZD0icGFpbnQzX2xpbmVhcl8zODkwXzIxNTM1Ij4mI3hhOzxzdG9wIHN0b3AtY29sb3I9IiMxMzQ4RkYiLz4mI3hhOzxzdG9wIHN0b3AtY29sb3I9IiMwNjIzOEQiIG9mZnNldD0iMSIvPiYjeGE7PC9saW5lYXJHcmFkaWVudD4mI3hhOzxjbGlwUGF0aCBpZD0iY2xpcDBfMzg5MF8yMTUzNSI+JiN4YTs8cmVjdCB0cmFuc2Zvcm09InRyYW5zbGF0ZSgzLjM5NzQ2IDIuNzk3NjEpIiBmaWxsPSJ3aGl0ZSIgaGVpZ2h0PSIxMCIgd2lkdGg9IjEwIi8+JiN4YTs8L2NsaXBQYXRoPiYjeGE7PC9kZWZzPiYjeGE7PC9zdmc+;points=[[0,0,0,0,0],[0,0.25,0,0,0],[0,0.5,0,0,0],[0,0.75,0,0,0],[0.25,0,0,0,0],[0.5,0,0,0,0],[0.75,0,0,0,0],[1,0,0,0,0],[1,0.25,0,0,0],[1,0.5,0,0,0],[1,0.75,0,0,0]];container=0;" parent="1" vertex="1">
          <mxGeometry x="-1805" y="-1092.402427458538" width="32" height="32" as="geometry" />
        </mxCell>
        <mxCell id="hYUSkcnEFoUa8Ber-fzS-78" value="Edge Integration cell" style="rounded=1;whiteSpace=wrap;html=1;strokeColor=#0070F2;strokeWidth=1.5;arcSize=16;fillColor=#ECF8FF;perimeterSpacing=0;absoluteArcSize=1;fontSize=14;fontStyle=1;align=left;verticalAlign=top;spacingLeft=40;" parent="1" vertex="1">
          <mxGeometry x="-1911.5" y="-1015.3850000000001" width="245" height="92" as="geometry" />
        </mxCell>
        <mxCell id="ywHCQfon3YgA2eiFdqId-18" value="" style="shape=image;verticalLabelPosition=bottom;labelBackgroundColor=default;verticalAlign=top;aspect=fixed;imageAspect=0;image=data:image/svg+xml,PHN2ZyB4bWxucz0iaHR0cDovL3d3dy53My5vcmcvMjAwMC9zdmciIGZpbGw9Im5vbmUiIHZpZXdCb3g9IjAgMCAxNiAxNiIgaGVpZ2h0PSIxNiIgd2lkdGg9IjE2Ij4mI3hhOzxjaXJjbGUgc3Ryb2tlLXdpZHRoPSIwLjI4NTcwOCIgc3Ryb2tlPSIjRDVEQUREIiBmaWxsPSJ1cmwoI3BhaW50MF9saW5lYXJfMzg5MF8yMTUyNykiIHI9IjcuODU2OTYiIGN5PSI3Ljk5Nzg2IiBjeD0iNy45OTQ0NSIvPiYjeGE7PHBhdGggZmlsbD0idXJsKCNwYWludDFfbGluZWFyXzM4OTBfMjE1MjcpIiBkPSJNNS4wMjExNCA5LjA5Mzc1SDQuNzAwNzlDMy45NDk3IDkuMDkzNzUgMy4zNDA4MiA5LjcwMjYzIDMuMzQwODIgMTAuNDUzN0MzLjM0MDgyIDExLjIwNDggMy45NDk3IDExLjgxMzcgNC43MDA3OSAxMS44MTM3SDExLjI4ODFDMTIuMDM5MiAxMS44MTM3IDEyLjY0ODEgMTEuMjA0OCAxMi42NDgxIDEwLjQ1MzdDMTIuNjQ4MSA5LjcwMjYzIDEyLjAzOTIgOS4wOTM3NSAxMS4yODgxIDkuMDkzNzVIMTEuMDUwMkMxMC44MDY0IDkuMzM3OTkgMTAuNDY5MyA5LjQ4OTEgMTAuMDk2OSA5LjQ4OTFIOS42NDU4NkM5LjI3MzQ3IDkuNDg5MSA4LjkzNjM4IDkuMzM3OTkgOC42OTI1NCA5LjA5Mzc1SDguMDUwODJDOC4wMjYzNCA5LjgxNjE5IDcuNDMyOTcgMTAuMzk0MyA2LjcwNDU3IDEwLjM5NDNINi4zNjczOUM1LjYzODk5IDEwLjM5NDMgNS4wNDU2MiA5LjgxNjE5IDUuMDIxMTQgOS4wOTM3NVpNOS45MDQzMyAxMC44Mjg3QzEwLjExMTQgMTAuODI4NyAxMC4yNzkzIDEwLjY2MDggMTAuMjc5MyAxMC40NTM3QzEwLjI3OTMgMTAuMjQ2NiAxMC4xMTE0IDEwLjA3ODcgOS45MDQzMyAxMC4wNzg3QzkuNjk3MjIgMTAuMDc4NyA5LjUyOTMzIDEwLjI0NjYgOS41MjkzMyAxMC40NTM3QzkuNTI5MzMgMTAuNjYwOCA5LjY5NzIyIDEwLjgyODcgOS45MDQzMyAxMC44Mjg3Wk0xMS4zMzU4IDEwLjQ1MzdDMTEuMzM1OCAxMC42NjA4IDExLjE2OCAxMC44Mjg3IDEwLjk2MDggMTAuODI4N0MxMC43NTM3IDEwLjgyODcgMTAuNTg1OCAxMC42NjA4IDEwLjU4NTggMTAuNDUzN0MxMC41ODU4IDEwLjI0NjYgMTAuNzUzNyAxMC4wNzg3IDEwLjk2MDggMTAuMDc4N0MxMS4xNjggMTAuMDc4NyAxMS4zMzU4IDEwLjI0NjYgMTEuMzM1OCAxMC40NTM3WiIgY2xpcC1ydWxlPSJldmVub2RkIiBmaWxsLXJ1bGU9ImV2ZW5vZGQiLz4mI3hhOzxwYXRoIGZpbGw9InVybCgjcGFpbnQyX2xpbmVhcl8zODkwXzIxNTI3KSIgZD0iTTcuNzAxMzggMy44NTc5MUM4LjEwMDE1IDMuODU3OTEgOC40MjM0MiA0LjE4MTE4IDguNDIzNDIgNC41Nzk5NVY0LjkxODk1QzguNDIzNDIgNS4xNDIyNSA4LjMyMjA1IDUuMzQxODcgOC4xNjI4MiA1LjQ3NDMyTDguMzI5OTIgNi4xMzY5Nkg4LjM1NDAxQzguNDIzNzcgNi4xMzY5NiA4LjQ4OTQ2IDYuMTU0NDEgOC41NDY5NSA2LjE4NTE3TDkuMTMyNzEgNS44ODc5OFY1LjY1NDE3QzkuMTMyNzEgNS4yNTU0IDkuNDU1OTggNC45MzIxMyA5Ljg1NDc1IDQuOTMyMTNIMTAuMTkxOUMxMC41OTA3IDQuOTMyMTMgMTAuOTE0IDUuMjU1NCAxMC45MTQgNS42NTQxN1Y1Ljk5MzE3QzEwLjkxNCA2LjM5MTk0IDEwLjU5MDcgNi43MTUyIDEwLjE5MTkgNi43MTUySDkuODU0NzVDOS42NDc5IDYuNzE1MiA5LjQ2MTM4IDYuNjI4MjMgOS4zMjk3NCA2LjQ4ODg2TDguNzYzNTUgNi43NzYxMVY2Ljg0NzdMOC43NjU0NCA2Ljg0NDgxTDkuMTk0NTEgNy4xMjU5M0M5LjMxODIyIDcuMDI2NTIgOS40NzUzOCA2Ljk2NzA0IDkuNjQ2NDQgNi45NjcwNEgxMC4wOTc1QzEwLjQ5NjMgNi45NjcwNCAxMC44MTk1IDcuMjkwMzEgMTAuODE5NSA3LjY4OTA4VjguMTQyMTNDMTAuODE5NSA4LjU0MDkgMTAuNDk2MyA4Ljg2NDE2IDEwLjA5NzUgOC44NjQxNkg5LjY0NjQ0QzkuMjQ3NjcgOC44NjQxNiA4LjkyNDQgOC41NDA5IDguOTI0NCA4LjE0MjEzVjcuNjk2MTZMOC41Mzc2IDcuNDQyNzRDOC40ODIzOCA3LjQ3MDQ4IDguNDIwMDIgNy40ODYwOSA4LjM1NDAxIDcuNDg2MDlIOC4wMjA0Mkw3LjM1MDk0IDguMzg1MDdDNy4zOTk3MyA4LjQ4MjMzIDcuNDI3MTkgOC41OTIxNCA3LjQyNzE5IDguNzA4MzdWOS4wNDczNkM3LjQyNzE5IDkuNDQ2MTQgNy4xMDM5MiA5Ljc2OTQgNi43MDUxNSA5Ljc2OTRINi4zNjc5N0M1Ljk2OTIgOS43Njk0IDUuNjQ1OTQgOS40NDYxNCA1LjY0NTk0IDkuMDQ3MzZMNS42NDU5NCA4LjcwODM3QzUuNjQ1OTQgOC4zMDk2IDUuOTY5MiA3Ljk4NjMzIDYuMzY3OTcgNy45ODYzM0g2LjcwNTE1QzYuNzU3MTUgNy45ODYzMyA2LjgwNzg2IDcuOTkxODMgNi44NTY3NCA4LjAwMjI3TDcuNDM5OTQgNy4yMTkxNkM3LjQyMzQ0IDcuMTc0NzUgNy40MTQ0MiA3LjEyNjcxIDcuNDE0NDIgNy4wNzY1NVY2Ljk3MDY5TDYuODIxMDggNi45NzA3QzYuNzI1OTkgNy4yNTgzNiA2LjQ1NDkzIDcuNDY1OTQgNi4xMzUzOCA3LjQ2NTk0SDUuNzk4MjFDNS4zOTk0NCA3LjQ2NTk0IDUuMDc2MTcgNy4xNDI2NyA1LjA3NjE3IDYuNzQzOUw1LjA3NjE3IDYuNDA0OUM1LjA3NjE3IDYuMDA2MTMgNS4zOTk0NCA1LjY4Mjg2IDUuNzk4MjEgNS42ODI4Nkg2LjEzNTM4QzYuNTE0MjIgNS42ODI4NiA2LjgyNDkyIDUuOTc0NjIgNi44NTUwMyA2LjM0NTdMNy40NjY5NSA2LjM0NTY5QzcuNTE1ODMgNi4yNTg5NyA3LjU5NTQgNi4xOTE4NSA3LjY5MDkyIDYuMTU5MDZMNy41NjAyOCA1LjY0MDk4SDcuMzY0MjFDNi45NjU0NCA1LjY0MDk4IDYuNjQyMTcgNS4zMTc3MiA2LjY0MjE3IDQuOTE4OTVWNC41Nzk5NUM2LjY0MjE3IDQuMTgxMTggNi45NjU0NCAzLjg1NzkxIDcuMzY0MjEgMy44NTc5MUg3LjcwMTM4Wk03Ljc5ODQyIDQuNTc5OTVDNy43OTg0MiA0LjUyNjM2IDcuNzU0OTcgNC40ODI5MSA3LjcwMTM4IDQuNDgyOTFMNy4zNjQyMSA0LjQ4MjkxQzcuMzEwNjEgNC40ODI5MSA3LjI2NzE3IDQuNTI2MzYgNy4yNjcxNyA0LjU3OTk1VjQuOTE4OTVDNy4yNjcxNyA0Ljk3MjU0IDcuMzEwNjEgNS4wMTU5OCA3LjM2NDIxIDUuMDE1OThINy43MDEzOEM3Ljc1NDk3IDUuMDE1OTggNy43OTg0MiA0Ljk3MjU0IDcuNzk4NDIgNC45MTg5NVY0LjU3OTk1Wk0xMC4yODkgNS42NTQxN0MxMC4yODkgNS42MDA1NyAxMC4yNDU1IDUuNTU3MTMgMTAuMTkxOSA1LjU1NzEzSDkuODU0NzVDOS44MDExNSA1LjU1NzEzIDkuNzU3NzEgNS42MDA1NyA5Ljc1NzcxIDUuNjU0MTdWNS45OTMxN0M5Ljc1NzcxIDYuMDQ2NzYgOS44MDExNSA2LjA5MDIgOS44NTQ3NSA2LjA5MDJIMTAuMTkxOUMxMC4yNDU1IDYuMDkwMiAxMC4yODkgNi4wNDY3NiAxMC4yODkgNS45OTMxN1Y1LjY1NDE3Wk0xMC4xOTQ1IDcuNjg5MDhDMTAuMTk0NSA3LjYzNTQ5IDEwLjE1MTEgNy41OTIwNCAxMC4wOTc1IDcuNTkyMDRIOS42NDY0NEM5LjU5Mjg1IDcuNTkyMDQgOS41NDk0IDcuNjM1NDkgOS41NDk0IDcuNjg5MDhWOC4xNDIxM0M5LjU0OTQgOC4xOTU3MiA5LjU5Mjg1IDguMjM5MTYgOS42NDY0NCA4LjIzOTE2SDEwLjA5NzVDMTAuMTUxMSA4LjIzOTE2IDEwLjE5NDUgOC4xOTU3MiAxMC4xOTQ1IDguMTQyMTNWNy42ODkwOFpNNi4xMzUzOCA2LjMwNzg2QzYuMTg4OTggNi4zMDc4NiA2LjIzMjQyIDYuMzUxMzEgNi4yMzI0MiA2LjQwNDlWNi43NDM5QzYuMjMyNDIgNi43OTc0OSA2LjE4ODk4IDYuODQwOTQgNi4xMzUzOCA2Ljg0MDk0SDUuNzk4MjFDNS43NDQ2MiA2Ljg0MDk0IDUuNzAxMTcgNi43OTc0OSA1LjcwMTE3IDYuNzQzOVY2LjQwNDlDNS43MDExNyA2LjM1MTMxIDUuNzQ0NjIgNi4zMDc4NiA1Ljc5ODIxIDYuMzA3ODZINi4xMzUzOFpNNi44MDIxOSA4LjcwODM3QzYuODAyMTkgOC42NTQ3NyA2Ljc1ODc0IDguNjExMzMgNi43MDUxNSA4LjYxMTMzSDYuMzY3OTdDNi4zMTQzOCA4LjYxMTMzIDYuMjcwOTQgOC42NTQ3NyA2LjI3MDk0IDguNzA4MzdWOS4wNDczNkM2LjI3MDk0IDkuMTAwOTYgNi4zMTQzOCA5LjE0NDQgNi4zNjc5NyA5LjE0NDRINi43MDUxNUM2Ljc1ODc0IDkuMTQ0NCA2LjgwMjE5IDkuMTAwOTYgNi44MDIxOSA5LjA0NzM2VjguNzA4MzdaIiBjbGlwLXJ1bGU9ImV2ZW5vZGQiIGZpbGwtcnVsZT0iZXZlbm9kZCIvPiYjeGE7PGRlZnM+JiN4YTs8bGluZWFyR3JhZGllbnQgZ3JhZGllbnRVbml0cz0idXNlclNwYWNlT25Vc2UiIHkyPSIxNC43NDU4IiB4Mj0iMTMuNjgyNSIgeTE9IjIuMjY4OTQiIHgxPSIxLjQ0NTU1IiBpZD0icGFpbnQwX2xpbmVhcl8zODkwXzIxNTI3Ij4mI3hhOzxzdG9wIHN0b3AtY29sb3I9IndoaXRlIi8+JiN4YTs8c3RvcCBzdG9wLWNvbG9yPSIjRUFFQ0VFIiBvZmZzZXQ9IjEiLz4mI3hhOzwvbGluZWFyR3JhZGllbnQ+JiN4YTs8bGluZWFyR3JhZGllbnQgZ3JhZGllbnRVbml0cz0idXNlclNwYWNlT25Vc2UiIHkyPSIxMy4wMSIgeDI9IjUuNzYxMjYiIHkxPSI5LjUwMDUiIHgxPSI0LjczNjAyIiBpZD0icGFpbnQxX2xpbmVhcl8zODkwXzIxNTI3Ij4mI3hhOzxzdG9wIHN0b3AtY29sb3I9IiMwMTk1RkYiLz4mI3hhOzxzdG9wIHN0b3AtY29sb3I9IiMxMTQ3RTkiIG9mZnNldD0iMC45OTEwMjgiLz4mI3hhOzwvbGluZWFyR3JhZGllbnQ+JiN4YTs8bGluZWFyR3JhZGllbnQgZ3JhZGllbnRVbml0cz0idXNlclNwYWNlT25Vc2UiIHkyPSI4LjgzMDY3IiB4Mj0iMTAuMDc2MyIgeTE9IjQuNzI3NjIiIHgxPSI1LjkzOTI1IiBpZD0icGFpbnQyX2xpbmVhcl8zODkwXzIxNTI3Ij4mI3hhOzxzdG9wIHN0b3AtY29sb3I9IiMxMzQ4RkYiLz4mI3hhOzxzdG9wIHN0b3AtY29sb3I9IiMwNjIzOEQiIG9mZnNldD0iMSIvPiYjeGE7PC9saW5lYXJHcmFkaWVudD4mI3hhOzwvZGVmcz4mI3hhOzwvc3ZnPg==;" parent="1" vertex="1">
          <mxGeometry x="-1907.01" y="-1010.4351818626453" width="32" height="32" as="geometry" />
        </mxCell>
        <mxCell id="ywHCQfon3YgA2eiFdqId-23" value="" style="group" parent="1" vertex="1" connectable="0">
          <mxGeometry x="-2279" y="-1005.8850000000002" width="208.75" height="73.00000000000023" as="geometry" />
        </mxCell>
        <mxCell id="dRn98VZPlsFJSJt_BaqV-15" value="" style="rounded=1;whiteSpace=wrap;html=1;strokeColor=#6d7f91;strokeWidth=1.5;arcSize=16;fillColor=#FFFFFF;perimeterSpacing=0;absoluteArcSize=1;align=center;" parent="ywHCQfon3YgA2eiFdqId-23" vertex="1">
          <mxGeometry width="157.48" height="73" as="geometry" />
        </mxCell>
        <mxCell id="dRn98VZPlsFJSJt_BaqV-17" value="&lt;font face=&quot;arial&quot;&gt;&lt;span style=&quot;font-size: 16px;&quot;&gt;&lt;b&gt;Client&lt;/b&gt;&lt;/span&gt;&lt;/font&gt;&lt;div&gt;&lt;font face=&quot;arial&quot;&gt;&lt;span style=&quot;font-size: 16px;&quot;&gt;&lt;b&gt;Applications&lt;/b&gt;&lt;/span&gt;&lt;/font&gt;&lt;/div&gt;" style="text;html=1;align=left;verticalAlign=middle;resizable=0;points=[];autosize=1;strokeColor=none;fillColor=none;fontSize=12;fontColor=#1d2d3e;fontFamily=Helvetica;" parent="ywHCQfon3YgA2eiFdqId-23" vertex="1">
          <mxGeometry x="29.73999999999978" y="19.000000000000227" width="120" height="50" as="geometry" />
        </mxCell>
        <mxCell id="dRn98VZPlsFJSJt_BaqV-19" value="&lt;font color=&quot;#475f75&quot; size=&quot;1&quot;&gt;&lt;b style=&quot;&quot;&gt;OData/REST/SOAP&lt;/b&gt;&lt;/font&gt;" style="rounded=1;whiteSpace=wrap;html=1;arcSize=50;strokeColor=#475f75;fillColor=default;strokeWidth=1.5;" parent="ywHCQfon3YgA2eiFdqId-23" vertex="1">
          <mxGeometry x="106.75" y="27.37000000000012" width="102" height="16" as="geometry" />
        </mxCell>
        <mxCell id="dRn98VZPlsFJSJt_BaqV-14" value="" style="shape=image;verticalLabelPosition=bottom;labelBackgroundColor=default;verticalAlign=top;aspect=fixed;imageAspect=0;image=data:image/svg+xml,PHN2ZyB4bWxucz0iaHR0cDovL3d3dy53My5vcmcvMjAwMC9zdmciIGZpbGw9Im5vbmUiIHZpZXdCb3g9IjAgMCAxNiAxNiIgaGVpZ2h0PSIxNiIgd2lkdGg9IjE2Ij4mI3hhOzxwYXRoIGZpbGw9InVybCgjcGFpbnQwX2xpbmVhcl83ODhfOSkiIGQ9Ik0xNC41OTQgNC45MDZDMTQuODQ0IDUuMTU2IDE1LjA0MiA1LjQ0OCAxNS4xODggNS43ODFDMTUuMzU0IDYuMDk0IDE1LjQzOCA2LjQzOCAxNS40MzggNi44MTNWMTMuNUMxNS40MzggMTQuMjA4IDE1LjE5OCAxNC43OTIgMTQuNzE4IDE1LjI1QzE0LjI0IDE1LjczIDEzLjY0NiAxNS45NjkgMTIuOTM4IDE1Ljk2OUgzLjAzMDAxQzIuMzQzMDEgMTUuOTY5IDEuNzYwMDEgMTUuNzI5IDEuMjgwMDEgMTUuMjVDMC44MDEwMTIgMTQuNzkyIDAuNTYyMDEyIDE0LjIwOCAwLjU2MjAxMiAxMy41VjYuODEyQzAuNTYyMDEyIDYuMDIxIDAuODQyMDEyIDUuMzg1IDEuNDA1MDEgNC45MDZMNi4zNDQwMSAwLjYyNDk5NUM2LjgxMjI4IDAuMjIwMjA1IDcuNDExMDQgLTAuMDAxNzU1NzkgOC4wMzAwMSAtNC45Nzk3ZS0wNkM4LjY1NTAxIC00Ljk3OTdlLTA2IDkuMTk3MDEgMC4yMDc5OTUgOS42NTUwMSAwLjYyNDk5NUwxNC41OTQgNC45MDZaTTkuMjUwMDEgOS4zNzVINi43NTAwMVYxNC4zNDRIOS4yNTAwMVY5LjM3NVpNMTMuNjg4IDYuODEyQzEzLjY4OCA2LjU0MiAxMy42MDQgNi4zMjIgMTMuNDM4IDYuMTU2TDguNTAwMDEgMS44NzQ5OUM4LjE0NjAxIDEuNjA1IDcuNzgxMDEgMS42MDUgNy40MDYwMSAxLjg3NDk5TDIuNDcwMDEgNi4xNTZDMi4zMDMwMSA2LjMyMyAyLjIyMDAxIDYuNTQyIDIuMjIwMDEgNi44MTNWMTMuNUMyLjIyMDAxIDEzLjc1IDIuMjkzMDEgMTMuOTU4IDIuNDM5MDEgMTQuMTI1QzIuNjAyMzMgMTQuMjY5NiAyLjgxMzkxIDE0LjM0NzcgMy4wMzIwMSAxNC4zNDRINS4wOTUwMVY5LjM3NUM1LjA5NTAxIDguOTE3IDUuMjUxMDEgOC41MzEgNS41NjMwMSA4LjIxOUM1Ljg5NzAxIDcuODg0OTkgNi4yOTMwMSA3LjcxOSA2Ljc1MTAxIDcuNzE5SDkuMjUxMDFDOS43MDkwMSA3LjcxOSAxMC4wOTUgNy44ODQ5OSAxMC40MDcgOC4yMTlDMTAuNzIgOC41MzEgMTAuODc2IDguOTE3IDEwLjg3NiA5LjM3NVYxNC4zNDRIMTIuOTM5QzEzLjE4OSAxNC4zNDQgMTMuMzg2IDE0LjI3MSAxMy41MzIgMTQuMTI1QzEzLjYxNDEgMTQuMDQzNCAxMy42Nzg3IDEzLjk0NTkgMTMuNzIxNyAxMy44Mzg0QzEzLjc2NDcgMTMuNzMwOSAxMy43ODUyIDEzLjYxNTcgMTMuNzgyIDEzLjVMMTMuNjg4IDYuODEyWiIvPiYjeGE7PGRlZnM+JiN4YTs8bGluZWFyR3JhZGllbnQgZ3JhZGllbnRVbml0cz0idXNlclNwYWNlT25Vc2UiIHkyPSIxNS45NjkiIHgyPSI4LjAwMDAxIiB5MT0iLTEuNTI1ODhlLTA1IiB4MT0iOC4wMDAwMSIgaWQ9InBhaW50MF9saW5lYXJfNzg4XzkiPiYjeGE7PHN0b3Agc3RvcC1jb2xvcj0iIzVCNzM4QiIvPiYjeGE7PHN0b3Agc3RvcC1jb2xvcj0iIzIyMzU0OCIgb2Zmc2V0PSIxIi8+JiN4YTs8L2xpbmVhckdyYWRpZW50PiYjeGE7PC9kZWZzPiYjeGE7PC9zdmc+;" parent="ywHCQfon3YgA2eiFdqId-23" vertex="1">
          <mxGeometry x="6.004837733333261" y="3.2155603020298713" width="23.62" height="23.622" as="geometry" />
        </mxCell>
        <mxCell id="8l6RRYxQaxA69R045GtP-5" value="" style="rounded=1;whiteSpace=wrap;html=1;strokeColor=#475E75;strokeWidth=1.5;arcSize=16;fillColor=#FFFFFF;perimeterSpacing=0;absoluteArcSize=1;container=0;" parent="1" vertex="1">
          <mxGeometry x="-1490" y="-1107.3" width="267.63" height="188.98" as="geometry" />
        </mxCell>
        <mxCell id="zLkr8Fda_o7fLGSxankt-61" value="&lt;br&gt;&lt;span style=&quot;&quot;&gt;&lt;/span&gt;" style="rounded=1;whiteSpace=wrap;html=1;strokeColor=#0070F2;strokeWidth=1.5;arcSize=16;fillColor=#ECF8FF;perimeterSpacing=0;absoluteArcSize=1;container=0;" parent="1" vertex="1">
          <mxGeometry x="-1390" y="-1081.39" width="159" height="151.39" as="geometry" />
        </mxCell>
        <mxCell id="8l6RRYxQaxA69R045GtP-6" value="&lt;p style=&quot;line-height: 110%;&quot;&gt;&lt;font style=&quot;font-size: 16px;&quot; face=&quot;arial&quot;&gt;&lt;b style=&quot;font-size: 16px;&quot;&gt;Data source&lt;/b&gt;&lt;/font&gt;&lt;/p&gt;" style="text;html=1;align=left;verticalAlign=middle;resizable=0;points=[];autosize=1;strokeColor=none;fillColor=none;fontSize=12;fontColor=#1d2d3e;fontFamily=Helvetica;container=0;" parent="1" vertex="1">
          <mxGeometry x="-1377.1594105629435" y="-1084.2695971975277" width="120" height="50" as="geometry" />
        </mxCell>
        <mxCell id="zLkr8Fda_o7fLGSxankt-65" value="SAP Application Interface Framework&lt;br&gt;&lt;font style=&quot;font-size: 10px;&quot;&gt;(for SAP S/4HANA, SAP ECC)&lt;/font&gt;" style="rounded=1;whiteSpace=wrap;html=1;strokeColor=#0070F2;fillColor=#FFFFFF;arcSize=24;absoluteArcSize=1;imageWidth=64;imageHeight=64;strokeWidth=1.5;container=0;" parent="1" vertex="1">
          <mxGeometry x="-1383.53135" y="-1034.6950000000002" width="146.0627" height="58" as="geometry" />
        </mxCell>
        <mxCell id="8Uogrh9DGqOY0QzcngNR-33" value="Cloud Connector" style="shape=image;verticalLabelPosition=bottom;labelBackgroundColor=default;verticalAlign=top;aspect=fixed;imageAspect=0;image=data:image/svg+xml,PHN2ZyB4bWxucz0iaHR0cDovL3d3dy53My5vcmcvMjAwMC9zdmciIGZpbGw9Im5vbmUiIHZpZXdCb3g9IjAgMCAxNiAxNiIgaGVpZ2h0PSIxNiIgd2lkdGg9IjE2Ij4mI3hhOzxjaXJjbGUgc3Ryb2tlLXdpZHRoPSIwLjI4NTcwOCIgc3Ryb2tlPSIjRDVEQUREIiBmaWxsPSJ1cmwoI3BhaW50MF9saW5lYXJfMzg5MF8yMTUzNSkiIHI9IjcuODU2OTYiIGN5PSI3Ljk5NzM4IiBjeD0iNy45OTczOCIvPiYjeGE7PGcgY2xpcC1wYXRoPSJ1cmwoI2NsaXAwXzM4OTBfMjE1MzUpIj4mI3hhOzxwYXRoIHN0cm9rZS13aWR0aD0iMC43NSIgc3Ryb2tlPSIjRjRGNEY0IiBmaWxsPSJ1cmwoI3BhaW50MV9saW5lYXJfMzg5MF8yMTUzNSkiIGQ9Ik03LjYwNDA4IDguODk4NjRMNy43NTczMSA5LjA2NDA2TDcuOTc1MjcgOS4wMDYyOUM4LjEzMzMzIDguOTY0MzkgOC4yNjc1NiA4Ljg3ODU0IDguMzc4MjkgOC43Njc4MUM4LjU0MjcxIDguNjAzMzkgOC42NDQzNyA4LjM5NDE0IDguNjQ0MzcgOC4xNTEwOEM4LjY0NDM3IDguMTA5MzggOC42NDEzOCA4LjA2ODY4IDguNjM1NTkgOC4wMjkwMkM4LjY3NTI1IDguMDM0ODEgOC43MTU5NSA4LjAzNzgxIDguNzU3NjYgOC4wMzc4MUM5LjAwMDcxIDguMDM3ODEgOS4yMDk5NiA3LjkzNjE1IDkuMzc0MzggNy43NzE3MkM5LjUzODgxIDcuNjA3MyA5LjY0MDQ3IDcuMzk4MDUgOS42NDA0NyA3LjE1NDk5QzkuNjQwNDcgNi45MTE5NCA5LjUzODgxIDYuNzAyNjkgOS4zNzQzOCA2LjUzODI3TDkuMzc0NCA2LjUzODI1TDkuMzcxNDUgNi41MzUzN0w4Ljc0NDA0IDUuOTIxNkw4Ljg4NjEgNS43Nzk1NEw4LjY1MDQgNS41NDM4NEw4Ljg4NjEgNS43Nzk1NEM5LjA0ODM3IDUuNjE3MjcgOS4xMzI2NiA1LjQxMDg4IDkuMTMyNjYgNS4xODIzNUM5LjEzMjY2IDQuOTUxNzcgOS4wNTU3IDQuNzM1MjIgOC44ODYxIDQuNTY1NjJMOC40MzY4OCA0LjExNjRDNy45OTcyNiAzLjY3Njc4IDcuNDY4MjggMy40MzI2NCA2Ljg2MjggMy40MDE1OUM2LjM3NjY4IDMuMzc2NjcgNS45MjcwNyAzLjQ4OTYgNS41MjI0NSAzLjczNTI3TDQuNTA1ODcgMi42OTIxM0w0LjUwNTg5IDIuNjkyMTFMNC41MDI0NyAyLjY4ODY5QzQuMzM4MDQgMi41MjQyNyA0LjEyODc5IDIuNDIyNjEgMy44ODU3NCAyLjQyMjYxQzMuNjQ1MDUgMi40MjI2MSAzLjQ0Mzk4IDIuNTMzMjYgMy4yODg1NSAyLjY4ODY5QzMuMTI0MTIgMi44NTMxMiAzLjAyMjQ2IDMuMDYyMzcgMy4wMjI0NiAzLjMwNTQyQzMuMDIyNDYgMy41NDc1NCAzLjEyMzM0IDMuNzU2MTIgMy4yODY2NiAzLjkyMDI1TDQuMzE1MTYgNC45NzU2MkM0LjA4NjggNS4zNzg2NSAzLjk4MzE5IDUuODIxMjMgNC4wMDgxNyA2LjI5NThMNC4wMDgyIDYuMjk2MzNDNC4wMzk3OCA2Ljg4MDU0IDQuMjg3NTEgNy4zOTQ4NyA0LjcyMjk2IDcuODMwMzJMNC43MjI4OSA3LjgzMDM4TDQuNzI4OTEgNy44MzYxNEw1LjEgOC4xOTEwOUw1LjI1NzI4IDguMzQxNTNMNS40NjU5MiA4LjI3OTU5QzUuNjU0MzUgOC4yMjM2NiA1Ljg0OTI2IDguMTk1MTkgNi4wNDg5OCA4LjE5NTE5QzYuNDgxMzMgOC4xOTUxOSA2Ljg4MTkyIDguMzI4NjUgNy4yMzY5NCA4LjU3ODEyQzcuMzcyNTUgOC42NzM0MiA3LjQ5NDc5IDguNzgwNjYgNy42MDQwOCA4Ljg5ODY0WiIvPiYjeGE7PHBhdGggc3Ryb2tlLXdpZHRoPSIwLjc1IiBzdHJva2U9IiNGNEY0RjQiIGZpbGw9InVybCgjcGFpbnQyX2xpbmVhcl8zODkwXzIxNTM1KSIgZD0iTTkuNzYyODkgMTIuMDk4MkMxMC4yNTMgMTIuMTEwOCAxMC43MDMyIDExLjk3OSAxMS4xMDYgMTEuNzEyMkwxMi4yNjEyIDEyLjg2NzRDMTIuNDE2NyAxMy4wMjI5IDEyLjYxNzcgMTMuMTMzNSAxMi44NTg0IDEzLjEzMzVDMTMuMTAxNSAxMy4xMzM1IDEzLjMxMDcgMTMuMDMxOSAxMy40NzUyIDEyLjg2NzRDMTMuNjM5NiAxMi43MDMgMTMuNzQxMiAxMi40OTM4IDEzLjc0MTIgMTIuMjUwN0MxMy43NDEyIDEyLjAxMDUgMTMuNjMxMSAxMS44MDk4IDEzLjQ3NjEgMTEuNjU0NUwxMi4zMTMxIDEwLjQ3NTFDMTIuNTU3IDEwLjA4NjEgMTIuNjcxNCA5LjY1NDcxIDEyLjY0NzIgOS4xODg4QzEyLjYzMDIgOC41OTIxNiAxMi4zOTAxIDguMDY4NDcgMTEuOTUxNyA3LjYzMDFMMTEuNTAyNSA3LjE4MDg4QzExLjMzODEgNy4wMTY0NSAxMS4xMjg4IDYuOTE0NzkgMTAuODg1OCA2LjkxNDc5QzEwLjY0MjcgNi45MTQ3OSAxMC40MzM1IDcuMDE2NDUgMTAuMjY5MSA3LjE4MDg4TDguNDUxMTQgOC45OTg3OUw4LjE0NjM1IDkuMzAzNThMOC40OTAzOSA5LjU2MzI2QzguNjE1OCA5LjY1NzkzIDguNzI5MTYgOS43Njc5MyA4LjgyOTcyIDkuODkyMjlMOC44Mjk2OSA5Ljg5MjMyTDguODMzMiA5Ljg5NjU0QzguOTkxMiAxMC4wODYyIDkuMTExMDYgMTAuMzAxIDkuMTk1MzIgMTAuNTM1QzkuMjg0MDQgMTAuNzgxNSA5LjMyNTQ4IDExLjA0MDIgOS4zMjU0OCAxMS4zMDZDOS4zMjU0OCAxMS40MjU4IDkuMzE2ODQgMTEuNTQzOSA5LjI5OTQzIDExLjY2MDFMOS4yNDEwOSAxMi4wNDk3TDkuNjMzMDMgMTIuMDg4OEM5LjY3MjkgMTIuMDkyOCA5LjcxMjk5IDEyLjA5NTggOS43NTMzIDEyLjA5NzlMOS43NTMyOSAxMi4wOThMOS43NjI4OSAxMi4wOTgyWiIvPiYjeGE7PHBhdGggZmlsbD0idXJsKCNwYWludDNfbGluZWFyXzM4OTBfMjE1MzUpIiBkPSJNNC41MjY0NSAxMi43OTc3SDcuMzU0MTFDNy41NDA1NSAxMi43OTc3IDcuNzE2NjMgMTIuNzU5NyA3Ljg4MjM1IDEyLjY4MzdDOC4wNDgwOCAxMi42MDc4IDguMTg5NjMgMTIuNTA0MiA4LjMwNzAyIDEyLjM3M0M4LjQzMTMxIDEyLjIzNDkgOC41Mjc5OSAxMi4wNzYxIDguNTk3MDQgMTEuODk2NkM4LjY2NjA5IDExLjcxMDEgOC43MDA2MSAxMS41MTMzIDguNzAwNjEgMTEuMzA2MkM4LjcwMDYxIDExLjEwNTkgOC42Njk1NCAxMC45MTk1IDguNjA3NCAxMC43NDY4QzguNTQ1MjUgMTAuNTc0MiA4LjQ1ODkzIDEwLjQyMjMgOC4zNDg0NSAxMC4yOTExQzguMjM3OTcgMTAuMTUzIDguMTA2NzcgMTAuMDQyNSA3Ljk1NDg2IDkuOTU5NjZDNy44MDI5NSA5Ljg3NjggNy42NDA2NyA5LjgyODQ2IDcuNDY4MDUgOS44MTQ2NUM3LjMyOTk0IDkuNTEwODMgNy4xMzMxNSA5LjI2OTE1IDYuODc3NjYgOS4wODk2MUM2LjYyMjE3IDguOTEwMDggNi4zNDU5NiA4LjgyMDMxIDYuMDQ5MDQgOC44MjAzMUM1Ljg1NTY5IDguODIwMzEgNS42NjkyNSA4Ljg1ODI5IDUuNDg5NzIgOC45MzQyNUM1LjMxNzA5IDkuMDEwMiA1LjE2MTczIDkuMTEzNzggNS4wMjM2MiA5LjI0NDk4QzQuODg1NTIgOS4zNzYxOCA0Ljc3MTU5IDkuNTM1IDQuNjgxODIgOS43MjE0M0M0LjU5MjA1IDkuOTAwOTcgNC41Mjk5MSAxMC4wOTQzIDQuNDk1MzggMTAuMzAxNUM0LjM0MzQ3IDEwLjMwMTUgNC4xOTg0NiAxMC4zMzYgNC4wNjAzNiAxMC40MDVDMy45MjkxNiAxMC40NjcyIDMuODE1MjIgMTAuNTU3IDMuNzE4NTUgMTAuNjc0M0MzLjYyMTg4IDEwLjc4NDggMy41NDI0NyAxMC45MTYgMy40ODAzMiAxMS4wNjc5QzMuNDI1MDggMTEuMjE5OSAzLjM5NzQ2IDExLjM3ODcgMy4zOTc0NiAxMS41NDQ0QzMuMzk3NDYgMTEuNzE3IDMuNDI1MDggMTEuODc5MyAzLjQ4MDMyIDEyLjAzMTJDMy41NDI0NyAxMi4xODMxIDMuNjI1MzMgMTIuMzE3OCAzLjcyODkxIDEyLjQzNTJDMy44MzI0OSAxMi41NDU2IDMuOTUzMzMgMTIuNjM1NCA0LjA5MTQzIDEyLjcwNDVDNC4yMjk1MyAxMi43NjY2IDQuMzc0NTQgMTIuNzk3NyA0LjUyNjQ1IDEyLjc5NzdaIi8+JiN4YTs8L2c+JiN4YTs8ZGVmcz4mI3hhOzxsaW5lYXJHcmFkaWVudCBncmFkaWVudFVuaXRzPSJ1c2VyU3BhY2VPblVzZSIgeTI9IjE0Ljc0NTMiIHgyPSIxMy42ODU0IiB5MT0iMi4yNjg0NSIgeDE9IjEuNDQ4NDgiIGlkPSJwYWludDBfbGluZWFyXzM4OTBfMjE1MzUiPiYjeGE7PHN0b3Agc3RvcC1jb2xvcj0id2hpdGUiLz4mI3hhOzxzdG9wIHN0b3AtY29sb3I9IiNFQUVDRUUiIG9mZnNldD0iMSIvPiYjeGE7PC9saW5lYXJHcmFkaWVudD4mI3hhOzxsaW5lYXJHcmFkaWVudCBncmFkaWVudFVuaXRzPSJ1c2VyU3BhY2VPblVzZSIgeTI9IjcuNzgyMDIiIHgyPSI4LjM3MDU1IiB5MT0iMy42NzE4NyIgeDE9IjQuMjc3MSIgaWQ9InBhaW50MV9saW5lYXJfMzg5MF8yMTUzNSI+JiN4YTs8c3RvcCBzdG9wLWNvbG9yPSIjMDE5NUZGIi8+JiN4YTs8c3RvcCBzdG9wLWNvbG9yPSIjMTE0N0U5IiBvZmZzZXQ9IjAuOTkxMDI4Ii8+JiN4YTs8L2xpbmVhckdyYWRpZW50PiYjeGE7PGxpbmVhckdyYWRpZW50IGdyYWRpZW50VW5pdHM9InVzZXJTcGFjZU9uVXNlIiB5Mj0iMTEuMzIyNCIgeDI9IjEzLjE5MjkiIHkxPSI4LjEwNzYxIiB4MT0iOS40MTMzNSIgaWQ9InBhaW50Ml9saW5lYXJfMzg5MF8yMTUzNSI+JiN4YTs8c3RvcCBzdG9wLWNvbG9yPSIjMDE5NUZGIi8+JiN4YTs8c3RvcCBzdG9wLWNvbG9yPSIjMTE0N0U5IiBvZmZzZXQ9IjAuOTkxMDI4Ii8+JiN4YTs8L2xpbmVhckdyYWRpZW50PiYjeGE7PGxpbmVhckdyYWRpZW50IGdyYWRpZW50VW5pdHM9InVzZXJTcGFjZU9uVXNlIiB5Mj0iMTIuOTc5NCIgeDI9IjYuODUwNDgiIHkxPSI5LjQwNTQ3IiB4MT0iNC4xODE1IiBpZD0icGFpbnQzX2xpbmVhcl8zODkwXzIxNTM1Ij4mI3hhOzxzdG9wIHN0b3AtY29sb3I9IiMxMzQ4RkYiLz4mI3hhOzxzdG9wIHN0b3AtY29sb3I9IiMwNjIzOEQiIG9mZnNldD0iMSIvPiYjeGE7PC9saW5lYXJHcmFkaWVudD4mI3hhOzxjbGlwUGF0aCBpZD0iY2xpcDBfMzg5MF8yMTUzNSI+JiN4YTs8cmVjdCB0cmFuc2Zvcm09InRyYW5zbGF0ZSgzLjM5NzQ2IDIuNzk3NjEpIiBmaWxsPSJ3aGl0ZSIgaGVpZ2h0PSIxMCIgd2lkdGg9IjEwIi8+JiN4YTs8L2NsaXBQYXRoPiYjeGE7PC9kZWZzPiYjeGE7PC9zdmc+;points=[[0,0,0,0,0],[0,0.25,0,0,0],[0,0.5,0,0,0],[0,0.75,0,0,0],[0.25,0,0,0,0],[0.5,0,0,0,0],[0.75,0,0,0,0],[1,0,0,0,0],[1,0.25,0,0,0],[1,0.5,0,0,0],[1,0.75,0,0,0]];container=0;" parent="1" vertex="1">
          <mxGeometry x="-1458.057621191013" y="-1050.925361209889" width="34.130722419778174" height="34.130722419778174" as="geometry" />
        </mxCell>
        <mxCell id="hYUSkcnEFoUa8Ber-fzS-28" value="" style="endArrow=blockThin;html=1;rounded=0;entryX=0;entryY=0.5;entryDx=0;entryDy=0;strokeColor=#475f75;strokeWidth=1.5;exitX=1;exitY=0.5;exitDx=0;exitDy=0;endFill=1;endSize=4;startSize=4;entryPerimeter=0;" parent="1" source="hYUSkcnEFoUa8Ber-fzS-26" target="8Uogrh9DGqOY0QzcngNR-33" edge="1">
          <mxGeometry width="50" height="50" relative="1" as="geometry">
            <mxPoint x="-1499.38015" y="-1042.78" as="sourcePoint" />
            <mxPoint x="-1446" y="-1054.9099999999999" as="targetPoint" />
          </mxGeometry>
        </mxCell>
        <mxCell id="zLkr8Fda_o7fLGSxankt-355" value="" style="endArrow=blockThin;html=1;strokeColor=#475E75;bendable=1;rounded=0;endFill=1;endSize=4;startArrow=none;startFill=0;startSize=4;jumpStyle=none;jumpSize=0;targetPerimeterSpacing=15;strokeWidth=1.5;entryX=0;entryY=0.75;entryDx=0;entryDy=0;exitX=1;exitY=0.5;exitDx=0;exitDy=0;" parent="1" source="hYUSkcnEFoUa8Ber-fzS-78" target="zLkr8Fda_o7fLGSxankt-61" edge="1">
          <mxGeometry width="50" height="50" relative="1" as="geometry">
            <mxPoint x="-1618" y="-958" as="sourcePoint" />
            <mxPoint x="-1388" y="-967" as="targetPoint" />
          </mxGeometry>
        </mxCell>
        <mxCell id="hYUSkcnEFoUa8Ber-fzS-93" value="" style="endArrow=blockThin;html=1;strokeColor=#475E75;bendable=1;rounded=0;endFill=1;endSize=4;startArrow=none;startFill=0;startSize=4;jumpStyle=none;jumpSize=0;targetPerimeterSpacing=15;strokeWidth=1.5;entryX=0.5;entryY=0;entryDx=0;entryDy=0;exitX=0.5;exitY=1;exitDx=0;exitDy=0;entryPerimeter=0;dashed=1;" parent="1" target="hYUSkcnEFoUa8Ber-fzS-73" edge="1">
          <mxGeometry width="50" height="50" relative="1" as="geometry">
            <mxPoint x="-1789" y="-1119" as="sourcePoint" />
            <mxPoint x="-1791" y="-1085" as="targetPoint" />
          </mxGeometry>
        </mxCell>
        <mxCell id="dRn98VZPlsFJSJt_BaqV-125" value="" style="endArrow=blockThin;html=1;rounded=0;strokeColor=#475f75;strokeWidth=1.5;endFill=1;endSize=4;startSize=4;exitX=1;exitY=0.5;exitDx=0;exitDy=0;exitPerimeter=0;" parent="1" source="8Uogrh9DGqOY0QzcngNR-33" edge="1">
          <mxGeometry width="50" height="50" relative="1" as="geometry">
            <mxPoint x="-1411" y="-1135" as="sourcePoint" />
            <mxPoint x="-1391" y="-1034" as="targetPoint" />
          </mxGeometry>
        </mxCell>
        <mxCell id="4bXTCHI5SMZw4-VJFfMM-4" value="&lt;p style=&quot;line-height: 114%;&quot;&gt;&lt;font size=&quot;1&quot;&gt;&lt;b style=&quot;&quot;&gt;HTTP&lt;/b&gt;&lt;/font&gt;&lt;/p&gt;" style="rounded=1;whiteSpace=wrap;html=1;arcSize=50;strokeColor=#475E75;fillColor=#f5f6f7;fontColor=#475E75;strokeWidth=1.5;" parent="1" vertex="1">
          <mxGeometry x="-1813.995" y="-1138" width="51.99" height="16" as="geometry" />
        </mxCell>
        <mxCell id="4bXTCHI5SMZw4-VJFfMM-24" value="" style="group" parent="1" vertex="1" connectable="0">
          <mxGeometry x="-1438.43" y="-899" width="264.5" height="68.5" as="geometry" />
        </mxCell>
        <mxCell id="4bXTCHI5SMZw4-VJFfMM-8" value="&lt;font face=&quot;Arial&quot;&gt;&lt;b&gt;Legend&lt;/b&gt;&lt;/font&gt;" style="rounded=0;whiteSpace=wrap;html=1;strokeColor=#eaecee;strokeWidth=1.5;arcSize=16;fillColor=#FFFFFF;perimeterSpacing=0;imageHeight=24;absoluteArcSize=1;points=[];connectable=0;container=0;align=left;verticalAlign=top;spacingLeft=4;" parent="4bXTCHI5SMZw4-VJFfMM-24" vertex="1">
          <mxGeometry width="259" height="68.5" as="geometry" />
        </mxCell>
        <mxCell id="4bXTCHI5SMZw4-VJFfMM-9" value="" style="group" parent="4bXTCHI5SMZw4-VJFfMM-24" vertex="1" connectable="0">
          <mxGeometry x="6" y="22.502249999999975" width="258.5" height="17.125" as="geometry" />
        </mxCell>
        <mxCell id="4bXTCHI5SMZw4-VJFfMM-10" value="" style="ellipse;whiteSpace=wrap;html=1;aspect=fixed;strokeColor=none;fillColor=#475E75;" parent="4bXTCHI5SMZw4-VJFfMM-9" vertex="1">
          <mxGeometry y="0.85625" width="13.7" height="13.7" as="geometry" />
        </mxCell>
        <mxCell id="4bXTCHI5SMZw4-VJFfMM-11" value="&lt;div style=&quot;font-size: 10px; line-height: 100%;&quot;&gt;&lt;span style=&quot;font-family: arial; font-size: 10px; background-color: initial;&quot;&gt;&lt;font style=&quot;font-size: 10px;&quot;&gt;SAP Integration Suite based integration scenarios&lt;/font&gt;&lt;/span&gt;&lt;/div&gt;" style="text;html=1;align=left;verticalAlign=middle;resizable=0;points=[];autosize=1;strokeColor=none;fillColor=none;fontSize=10;fontColor=#1D2D3E;fontFamily=Helvetica;labelPosition=center;verticalLabelPosition=middle;" parent="4bXTCHI5SMZw4-VJFfMM-9" vertex="1">
          <mxGeometry x="18.5" width="240" height="20" as="geometry" />
        </mxCell>
        <mxCell id="4bXTCHI5SMZw4-VJFfMM-15" value="" style="group" parent="4bXTCHI5SMZw4-VJFfMM-24" vertex="1" connectable="0">
          <mxGeometry x="5.930000000000064" y="42.384375" width="123" height="17.125" as="geometry" />
        </mxCell>
        <mxCell id="4bXTCHI5SMZw4-VJFfMM-16" value="" style="shape=image;verticalLabelPosition=bottom;verticalAlign=top;imageAspect=0;aspect=fixed;image=data:image/svg+xml,PHN2ZyB4bWxucz0iaHR0cDovL3d3dy53My5vcmcvMjAwMC9zdmciIGZpbGw9Im5vbmUiIHZpZXdCb3g9IjAgMCA0OSA0OSIgaGVpZ2h0PSI0OSIgd2lkdGg9IjQ5Ij4mI3hhOzxjaXJjbGUgc3Ryb2tlLXdpZHRoPSIwLjg1NzE0MyIgc3Ryb2tlPSIjRDVEQUREIiBmaWxsPSJ1cmwoI3BhaW50MF9saW5lYXJfMjYyMl8yMDQ3NSkiIHI9IjIzLjU3MTQiIGN5PSIyNC4wMzQ5IiBjeD0iMjQuNSIvPiYjeGE7PHBhdGggZmlsbD0idXJsKCNwYWludDFfcmFkaWFsXzI2MjJfMjA0NzUpIiBkPSJNMjQuMzkzMSAxMi4yMzcxQzIwLjExMDcgMTIuMjM3MSAxNy4wNjgxIDE1LjcyMzEgMTYuNTYxMSAxOS4zNjI1QzE1LjE4MzYgMTkuNDQ0NCAxMy45NjcyIDE5Ljk2MjEgMTMuMDIyNSAyMC44MzE3QzExLjc0NDUgMjIuMDA4MSAxMS4wODQ0IDIzLjcxNTYgMTEuMDg0NCAyNS41MTYzQzExLjA4NDQgMjcuMTg5NyAxMS41OTIgMjguNzcxNSAxMi43MzE2IDI5Ljk0MDlDMTMuNTg2MSAzMC44MTc4IDE0LjcwNzcgMzEuMzcyNCAxNi4wMTcgMzEuNTk4NEMxNi4xMzc2IDMxLjM1MzUgMTYuMjczNSAzMS4xMTY4IDE2LjQyNTIgMzAuODg5MkwxNi40NDEgMzAuODY1NUwxNi40NTQ4IDMwLjg0NjFDMTYuNzA2OSAzMC40OTAxIDE2Ljk5NDggMzAuMTY2IDE3LjMxNjkgMjkuODc2MUMxNy4xODMxIDI5LjQzMTcgMTcuMTE4IDI4Ljk2NDUgMTcuMTE4IDI4LjQ4MzVDMTcuMTE4IDI3Ljg1NDkgMTcuMjM4NiAyNy4yNDEzIDE3LjQ4NDkgMjYuNjU5MkMxNy43MiAyNi4xMDMzIDE4LjA1MTMgMjUuNjAwMSAxOC40ODI0IDI1LjE2OTFDMTguOTE4IDI0LjczMzQgMTkuNDI1IDI0LjM5MTYgMTkuOTkyNiAyNC4xNTE1QzIwLjU3NDcgMjMuOTA1MiAyMS4xODgyIDIzLjc4NDYgMjEuODE2OCAyMy43ODQ2QzIyLjA3NTkgMjMuNzg0NiAyMi4zMzI0IDIzLjgwNTEgMjIuNTg1MyAyMy44NDY0QzIyLjkwNjUgMjMuNjE3OSAyMy4yNTIyIDIzLjQyNTEgMjMuNjIwNCAyMy4yNjkzQzI0LjI4NTEgMjIuOTg4MSAyNC45ODYzIDIyLjg0OTcgMjUuNzA4OSAyMi44NDk3QzI2LjQzMTYgMjIuODQ5NyAyNy4xMzI3IDIyLjk4ODEgMjcuNzk3NSAyMy4yNjkzQzI4LjQ0MzYgMjMuNTQyNyAyOS4wMTc2IDIzLjkzMjYgMjkuNTA0MyAyNC40MzY1QzMwLjAwODIgMjQuOTIzMiAzMC4zOTgxIDI1LjQ5NzIgMzAuNjcxNSAyNi4xNDMzQzMwLjk1MjcgMjYuODA4MSAzMS4wOTExIDI3LjUwOTMgMzEuMDkxMSAyOC4yMzE5QzMxLjA5MTEgMjguOTI1MiAzMC45NjM3IDI5LjU5ODggMzAuNzA1IDMwLjIzOTVDMzEuMTk2OSAzMC42Mjg4IDMxLjYzNDYgMzEuMDg3NyAzMi4wMTUyIDMxLjYxMjdDMzUuMjc5MiAzMS4wNDI2IDM3Ljk5OTkgMjguMzY4IDM3Ljk5OTkgMjQuMzU5MUMzNy45OTk5IDIwLjM3NTEgMzUuMTUyNiAxNy4zMTM1IDMxLjcyNDcgMTYuOTg5N0MzMC4zNTA3IDE0LjE0ODMgMjcuOCAxMi4yMzcxIDI0LjM5MzEgMTIuMjM3MVoiIGNsaXAtcnVsZT0iZXZlbm9kZCIgZmlsbC1ydWxlPSJldmVub2RkIi8+JiN4YTs8cGF0aCBmaWxsPSJ1cmwoI3BhaW50Ml9yYWRpYWxfMjYyMl8yMDQ3NSkiIGQ9Ik0yOC4zMzY4IDMwLjgwNzhDMjkuMzA4MiAzMS4xODk0IDMwLjA5NzQgMzEuODEzOCAzMC43MDQ1IDMyLjY4MTFDMzEuMzExNiAzMy41NDg0IDMxLjYxNTIgMzQuNTI4NSAzMS42MTUyIDM1LjYyMTNWMzcuMTA0NEMzMS42MTUyIDM3LjMxMjUgMzEuNTM3MSAzNy40ODYgMzEuMzgxIDM3LjYyNDdDMzEuMjQyMiAzNy43NjM1IDMxLjA3NzQgMzcuODMyOSAzMC44ODY2IDM3LjgzMjlIMjkuNDAzNkMyOS4xOTU0IDM3LjgzMjkgMjkuMDEzMyAzNy43NjM1IDI4Ljg1NzIgMzcuNjI0N0MyOC43MTg0IDM3LjQ4NiAyOC42NDkgMzcuMzEyNSAyOC42NDkgMzcuMTA0NEMyOC42NDkgMzYuODk2MiAyOC43MTg0IDM2LjcyMjcgMjguODU3MiAzNi41ODRDMjkuMDEzMyAzNi40Mjc5IDI5LjE5NTQgMzYuMzQ5OCAyOS40MDM2IDM2LjM0OThIMzAuMTMyMVYzNS42MjEzQzMwLjEzMjEgMzUuMTE4MiAzMC4wMzY3IDM0LjY0MTIgMjkuODQ1OSAzNC4xOTAyQzI5LjY1NTEgMzMuNzM5MiAyOS4zODYyIDMzLjM0OSAyOS4wMzkzIDMzLjAxOTRDMjguNzA5NyAzMi42NzI1IDI4LjMxOTUgMzIuNDAzNiAyNy44Njg1IDMyLjIxMjhDMjcuNDM0OCAzMi4wMjIgMjYuOTU3OCAzMS45MjY2IDI2LjQzNzUgMzEuOTI2NkgyNC45ODA0QzI0LjQ2IDMxLjkyNjYgMjMuOTc0NCAzMi4wMjIgMjMuNTIzNCAzMi4yMTI4QzIzLjA4OTcgMzIuNDAzNiAyMi42OTk0IDMyLjY3MjUgMjIuMzUyNSAzMy4wMTk0QzIyLjAyMyAzMy4zNDkgMjEuNzYyOCAzMy43MzkyIDIxLjU3MiAzNC4xOTAyQzIxLjM4MTIgMzQuNjQxMiAyMS4yODU4IDM1LjExODIgMjEuMjg1OCAzNS42MjEzVjM2LjM0OThIMjIuMDE0M0MyMi4yMjI0IDM2LjM0OTggMjIuMzk1OSAzNi40Mjc5IDIyLjUzNDcgMzYuNTg0QzIyLjY3MzQgMzYuNzIyNyAyMi43NDI4IDM2Ljg5NjIgMjIuNzQyOCAzNy4xMDQ0QzIyLjc0MjggMzcuMzEyNSAyMi42NzM0IDM3LjQ4NiAyMi41MzQ3IDM3LjYyNDdDMjIuMzk1OSAzNy43NjM1IDIyLjIyMjQgMzcuODMyOSAyMi4wMTQzIDM3LjgzMjlIMjAuNTMxMkMyMC4zNDA0IDM3LjgzMjkgMjAuMTY3IDM3Ljc2MzUgMjAuMDEwOSAzNy42MjQ3QzE5Ljg3MjEgMzcuNDg2IDE5LjgwMjcgMzcuMzEyNSAxOS44MDI3IDM3LjEwNDRMMTkuODAyNyAzNi4wNTAySDE3LjgyMzRDMTcuNjMyOCAzNi4wNTAyIDE3LjQ2MTYgMzUuOTc5NSAxNy4zMTQ2IDM1Ljg0ODhMMTcuMzA3NSAzNS44NDI1QzE3LjE2ODEgMzUuNzAzMSAxNy4wOTk4IDM1LjUyNzEgMTcuMDk5OCAzNS4zMjY1VjM0LjE4MjdDMTcuMDk5OCAzMy43MzkyIDE3LjE2MjEgMzMuMzIxIDE3LjI4ODEgMzIuOTI5MUwxNy4yODkyIDMyLjkyNTlDMTcuNDI3MiAzMi41MjU2IDE3LjYwNzEgMzIuMTU4NiAxNy44MjkzIDMxLjgyNTNMMTcuODMxOCAzMS44MjE1QzE4LjA2NzggMzEuNDg4MyAxOC4zNDU4IDMxLjE5NjQgMTguNjY1MiAzMC45NDYxQzE4LjkyNDIgMzAuNzMyNCAxOS4yMDU5IDMwLjU1NSAxOS41MTAxIDMwLjQxNEMxOS4wMzk4IDI5Ljg4ODUgMTguODA1NSAyOS4yNDE5IDE4LjgwNTUgMjguNDgzNUMxOC44MDU1IDI4LjA3NDUgMTguODgzMiAyNy42ODUxIDE5LjAzOSAyNy4zMTY3QzE5LjE5MzkgMjYuOTUwNyAxOS40MDYgMjYuNjMyIDE5LjY3NTYgMjYuMzYyM0MxOS45NTc5IDI2LjA4MDEgMjAuMjgzIDI1Ljg2MDkgMjAuNjUwMSAyNS43MDU2QzIxLjAxODQgMjUuNTQ5OCAyMS40MDc4IDI1LjQ3MjEgMjEuODE2OCAyNS40NzIxQzIyLjIyNTkgMjUuNDcyMSAyMi42MTUyIDI1LjU0OTggMjIuOTgzNiAyNS43MDU2TDIzLjAwMDggMjUuNzEzQzIzLjAyNzEgMjUuNjg0OSAyMy4wNTM4IDI1LjY1NzMgMjMuMDgxIDI1LjYzQzIzLjQyOCAyNS4yODMxIDIzLjgyNjkgMjUuMDE0MiAyNC4yNzc5IDI0LjgyMzRDMjQuNzI4OSAyNC42MzI2IDI1LjIwNTkgMjQuNTM3MiAyNS43MDg5IDI0LjUzNzJDMjYuMjEyIDI0LjUzNzIgMjYuNjg5IDI0LjYzMjYgMjcuMTQgMjQuODIzNEMyNy41OTA5IDI1LjAxNDIgMjcuOTgxMiAyNS4yODMxIDI4LjMxMDggMjUuNjNDMjguNjU3NyAyNS45NTk2IDI4LjkyNjYgMjYuMzQ5OSAyOS4xMTc0IDI2LjgwMDlDMjkuMzA4MiAyNy4yNTE5IDI5LjQwMzYgMjcuNzI4OSAyOS40MDM2IDI4LjIzMTlDMjkuNDAzNiAyOC43MzQ5IDI5LjMwODIgMjkuMjEyIDI5LjExNzQgMjkuNjYzQzI4LjkyNjYgMzAuMDk2NiAyOC42NjY0IDMwLjQ3ODIgMjguMzM2OCAzMC44MDc4Wk0yMC4wMzY5IDM0LjA2MDFDMTkuOTgyMiAzNC4yMzAxIDE5LjkzNzIgMzQuNDA0MyAxOS45MDE3IDM0LjU4MjdIMTguNTY3MlYzNC4xODI3QzE4LjU2NzIgMzMuODE1NyAxOC42MzY3IDMzLjQ2OTMgMTguNzc1MiAzMy4xNDJDMTguOTE0NiAzMi44MTI0IDE5LjEwMzkgMzIuNTI5IDE5LjM0MjYgMzIuMjkwM0MxOS41OTYyIDMyLjAzNjcgMTkuODgwMyAzMS44NDEyIDIwLjE5NTMgMzEuNzAyNEMyMC41MjE2IDMxLjU2NDUgMjAuODc0MyAzMS40OTQ5IDIxLjI1NDkgMzEuNDk0OUgyMS44NzA4QzIxLjgzMTUgMzEuNTI1NCAyMS43OTI2IDMxLjU1NjYgMjEuNzU0MSAzMS41ODg0QzIxLjM1NTEgMzEuOTAwNiAyMS4wMDgyIDMyLjI2NDggMjAuNzEzNCAzMi42ODExQzIwLjQzNTggMzMuMDk3NCAyMC4yMTAzIDMzLjU1NzEgMjAuMDM2OSAzNC4wNjAxWk0yNS43MDg5IDI2LjAyMDNDMjUuMTAxOCAyNi4wMjAzIDI0LjU4MTUgMjYuMjM3MSAyNC4xNDc4IDI2LjY3MDhDMjMuNzE0MiAyNy4xMDQ0IDIzLjQ5NzMgMjcuNjI0OCAyMy40OTczIDI4LjIzMTlDMjMuNDk3MyAyOC44MzkgMjMuNzE0MiAyOS4zNTk0IDI0LjE0NzggMjkuNzkzQzI0LjU4MTUgMzAuMjI2NyAyNS4xMDE4IDMwLjQ0MzUgMjUuNzA4OSAzMC40NDM1QzI2LjMxNiAzMC40NDM1IDI2LjgzNjQgMzAuMjI2NyAyNy4yNyAyOS43OTNDMjcuNzAzNyAyOS4zNTk0IDI3LjkyMDUgMjguODM5IDI3LjkyMDUgMjguMjMxOUMyNy45MjA1IDI3LjYyNDggMjcuNzAzNyAyNy4xMDQ0IDI3LjI3IDI2LjY3MDhDMjYuODM2NCAyNi4yMzcxIDI2LjMxNiAyNi4wMjAzIDI1LjcwODkgMjYuMDIwM1pNMjIuMDE0MyAyOC4yMzE5QzIyLjAxNDMgMjguODU5NiAyMi4xNDM2IDI5LjQyMTEgMjIuNDAyMyAyOS45MTYzQzIyLjIyMjMgMjkuOTkwNiAyMi4wMjc1IDMwLjAyNzQgMjEuODE2OCAzMC4wMjc0QzIxLjM5MiAzMC4wMjc0IDIxLjAzMTcgMjkuODc3NiAyMC43MjcyIDI5LjU3MzFDMjAuNDIyOCAyOS4yNjg3IDIwLjI3MjkgMjguOTA4MyAyMC4yNzI5IDI4LjQ4MzVDMjAuMjcyOSAyOC4wNTg3IDIwLjQyMjggMjcuNjk4MyAyMC43MjcyIDI3LjM5MzlDMjEuMDMxNyAyNy4wODk0IDIxLjM5MiAyNi45Mzk2IDIxLjgxNjggMjYuOTM5NkMyMS45NjA1IDI2LjkzOTYgMjIuMDk2OSAyNi45NTY3IDIyLjIyNjIgMjYuOTkxMkMyMi4wODQ5IDI3LjM4NTUgMjIuMDE0MyAyNy43OTkxIDIyLjAxNDMgMjguMjMxOVoiIGNsaXAtcnVsZT0iZXZlbm9kZCIgZmlsbC1ydWxlPSJldmVub2RkIi8+JiN4YTs8ZGVmcz4mI3hhOzxsaW5lYXJHcmFkaWVudCBncmFkaWVudFVuaXRzPSJ1c2VyU3BhY2VPblVzZSIgeTI9IjQ0LjI3OTIiIHgyPSI0MS41NjQ1IiB5MT0iNi44NDc3NSIgeDE9IjQuODUyODciIGlkPSJwYWludDBfbGluZWFyXzI2MjJfMjA0NzUiPiYjeGE7PHN0b3Agc3RvcC1jb2xvcj0id2hpdGUiLz4mI3hhOzxzdG9wIHN0b3AtY29sb3I9IiNFQUVDRUUiIG9mZnNldD0iMSIvPiYjeGE7PC9saW5lYXJHcmFkaWVudD4mI3hhOzxyYWRpYWxHcmFkaWVudCBncmFkaWVudFRyYW5zZm9ybT0idHJhbnNsYXRlKDE1LjI1ODMgMTUuOTk1NCkgcm90YXRlKDQzLjg3NzkpIHNjYWxlKDI1Ljg1MjQgNDguODExNykiIGdyYWRpZW50VW5pdHM9InVzZXJTcGFjZU9uVXNlIiByPSIxIiBjeT0iMCIgY3g9IjAiIGlkPSJwYWludDFfcmFkaWFsXzI2MjJfMjA0NzUiPiYjeGE7PHN0b3Agc3RvcC1jb2xvcj0iIzAxOTVGRiIvPiYjeGE7PHN0b3Agc3RvcC1jb2xvcj0iIzExNDdFOSIgb2Zmc2V0PSIxIi8+JiN4YTs8L3JhZGlhbEdyYWRpZW50PiYjeGE7PHJhZGlhbEdyYWRpZW50IGdyYWRpZW50VHJhbnNmb3JtPSJ0cmFuc2xhdGUoMTUuMjUyMiAxNi4wODc2KSByb3RhdGUoNDMuNTYwMikgc2NhbGUoMjUuODcyNyAyMy41NDcxKSIgZ3JhZGllbnRVbml0cz0idXNlclNwYWNlT25Vc2UiIHI9IjEiIGN5PSIwIiBjeD0iMCIgaWQ9InBhaW50Ml9yYWRpYWxfMjYyMl8yMDQ3NSI+JiN4YTs8c3RvcCBzdG9wLWNvbG9yPSIjMTM0OEZGIi8+JiN4YTs8c3RvcCBzdG9wLWNvbG9yPSIjMDYyMzhEIiBvZmZzZXQ9IjEiLz4mI3hhOzwvcmFkaWFsR3JhZGllbnQ+JiN4YTs8L2RlZnM+JiN4YTs8L3N2Zz4=;points=[[0,0,0,0,0],[0,0.25,0,0,0],[0,0.5,0,0,0],[0,0.75,0,0,0],[0.25,0,0,0,0],[0.5,0,0,0,0],[0.75,0,0,0,0],[1,0,0,0,0],[1,0.25,0,0,0],[1,0.5,0,0,0],[1,0.75,0,0,0]];" parent="4bXTCHI5SMZw4-VJFfMM-15" vertex="1">
          <mxGeometry y="1.7125" width="13.7" height="13.7" as="geometry" />
        </mxCell>
        <mxCell id="4bXTCHI5SMZw4-VJFfMM-17" value="&lt;div style=&quot;font-size: 10px; line-height: 100%;&quot;&gt;&lt;span style=&quot;font-family: arial; font-size: 10px; background-color: initial;&quot;&gt;&lt;font style=&quot;font-size: 10px;&quot;&gt;SAP BTP Service&lt;/font&gt;&lt;/span&gt;&lt;/div&gt;" style="text;html=1;align=left;verticalAlign=middle;resizable=0;points=[];autosize=1;strokeColor=none;fillColor=none;fontSize=10;fontColor=#1D2D3E;fontFamily=Helvetica;labelPosition=center;verticalLabelPosition=middle;" parent="4bXTCHI5SMZw4-VJFfMM-15" vertex="1">
          <mxGeometry x="20" width="100" height="20" as="geometry" />
        </mxCell>
        <mxCell id="4bXTCHI5SMZw4-VJFfMM-18" value="" style="group" parent="4bXTCHI5SMZw4-VJFfMM-24" vertex="1" connectable="0">
          <mxGeometry x="121.76999999999998" y="41.099999999999994" width="117.75" height="19.693749999999998" as="geometry" />
        </mxCell>
        <mxCell id="4bXTCHI5SMZw4-VJFfMM-19" value="" style="endArrow=none;html=1;strokeColor=#188918;bendable=1;rounded=0;endFill=0;endSize=3;strokeWidth=1.5;dashed=1;" parent="4bXTCHI5SMZw4-VJFfMM-18" edge="1">
          <mxGeometry width="50" height="50" relative="1" as="geometry">
            <mxPoint x="21" y="10.249312500000023" as="sourcePoint" />
            <mxPoint y="10.249312500000023" as="targetPoint" />
            <Array as="points" />
          </mxGeometry>
        </mxCell>
        <mxCell id="4bXTCHI5SMZw4-VJFfMM-20" value="&lt;div style=&quot;font-size: 10px; line-height: 100%;&quot;&gt;&lt;span style=&quot;font-family: arial; font-size: 10px; background-color: initial;&quot;&gt;&lt;font style=&quot;font-size: 10px;&quot;&gt;Other data flow&lt;/font&gt;&lt;/span&gt;&lt;/div&gt;" style="text;html=1;align=left;verticalAlign=middle;resizable=0;points=[];autosize=1;strokeColor=none;fillColor=none;fontSize=10;fontColor=#1D2D3E;fontFamily=Helvetica;labelPosition=center;verticalLabelPosition=middle;" parent="4bXTCHI5SMZw4-VJFfMM-18" vertex="1">
          <mxGeometry x="27.75" y="1.2843749999999998" width="90" height="20" as="geometry" />
        </mxCell>
        <mxCell id="lHFqGyrapINXuCe7oUP0-3" value="" style="shape=image;verticalLabelPosition=bottom;labelBackgroundColor=default;verticalAlign=top;aspect=fixed;imageAspect=0;image=data:image/svg+xml,PHN2ZyB4bWxucz0iaHR0cDovL3d3dy53My5vcmcvMjAwMC9zdmciIGZpbGw9Im5vbmUiIHZpZXdCb3g9IjAgMCAxNiAxNiIgaGVpZ2h0PSIxNiIgd2lkdGg9IjE2Ij4mI3hhOzxwYXRoIGZpbGw9InVybCgjcGFpbnQwX2xpbmVhcl83ODhfOSkiIGQ9Ik0xNC41OTQgNC45MDZDMTQuODQ0IDUuMTU2IDE1LjA0MiA1LjQ0OCAxNS4xODggNS43ODFDMTUuMzU0IDYuMDk0IDE1LjQzOCA2LjQzOCAxNS40MzggNi44MTNWMTMuNUMxNS40MzggMTQuMjA4IDE1LjE5OCAxNC43OTIgMTQuNzE4IDE1LjI1QzE0LjI0IDE1LjczIDEzLjY0NiAxNS45NjkgMTIuOTM4IDE1Ljk2OUgzLjAzMDAxQzIuMzQzMDEgMTUuOTY5IDEuNzYwMDEgMTUuNzI5IDEuMjgwMDEgMTUuMjVDMC44MDEwMTIgMTQuNzkyIDAuNTYyMDEyIDE0LjIwOCAwLjU2MjAxMiAxMy41VjYuODEyQzAuNTYyMDEyIDYuMDIxIDAuODQyMDEyIDUuMzg1IDEuNDA1MDEgNC45MDZMNi4zNDQwMSAwLjYyNDk5NUM2LjgxMjI4IDAuMjIwMjA1IDcuNDExMDQgLTAuMDAxNzU1NzkgOC4wMzAwMSAtNC45Nzk3ZS0wNkM4LjY1NTAxIC00Ljk3OTdlLTA2IDkuMTk3MDEgMC4yMDc5OTUgOS42NTUwMSAwLjYyNDk5NUwxNC41OTQgNC45MDZaTTkuMjUwMDEgOS4zNzVINi43NTAwMVYxNC4zNDRIOS4yNTAwMVY5LjM3NVpNMTMuNjg4IDYuODEyQzEzLjY4OCA2LjU0MiAxMy42MDQgNi4zMjIgMTMuNDM4IDYuMTU2TDguNTAwMDEgMS44NzQ5OUM4LjE0NjAxIDEuNjA1IDcuNzgxMDEgMS42MDUgNy40MDYwMSAxLjg3NDk5TDIuNDcwMDEgNi4xNTZDMi4zMDMwMSA2LjMyMyAyLjIyMDAxIDYuNTQyIDIuMjIwMDEgNi44MTNWMTMuNUMyLjIyMDAxIDEzLjc1IDIuMjkzMDEgMTMuOTU4IDIuNDM5MDEgMTQuMTI1QzIuNjAyMzMgMTQuMjY5NiAyLjgxMzkxIDE0LjM0NzcgMy4wMzIwMSAxNC4zNDRINS4wOTUwMVY5LjM3NUM1LjA5NTAxIDguOTE3IDUuMjUxMDEgOC41MzEgNS41NjMwMSA4LjIxOUM1Ljg5NzAxIDcuODg0OTkgNi4yOTMwMSA3LjcxOSA2Ljc1MTAxIDcuNzE5SDkuMjUxMDFDOS43MDkwMSA3LjcxOSAxMC4wOTUgNy44ODQ5OSAxMC40MDcgOC4yMTlDMTAuNzIgOC41MzEgMTAuODc2IDguOTE3IDEwLjg3NiA5LjM3NVYxNC4zNDRIMTIuOTM5QzEzLjE4OSAxNC4zNDQgMTMuMzg2IDE0LjI3MSAxMy41MzIgMTQuMTI1QzEzLjYxNDEgMTQuMDQzNCAxMy42Nzg3IDEzLjk0NTkgMTMuNzIxNyAxMy44Mzg0QzEzLjc2NDcgMTMuNzMwOSAxMy43ODUyIDEzLjYxNTcgMTMuNzgyIDEzLjVMMTMuNjg4IDYuODEyWiIvPiYjeGE7PGRlZnM+JiN4YTs8bGluZWFyR3JhZGllbnQgZ3JhZGllbnRVbml0cz0idXNlclNwYWNlT25Vc2UiIHkyPSIxNS45NjkiIHgyPSI4LjAwMDAxIiB5MT0iLTEuNTI1ODhlLTA1IiB4MT0iOC4wMDAwMSIgaWQ9InBhaW50MF9saW5lYXJfNzg4XzkiPiYjeGE7PHN0b3Agc3RvcC1jb2xvcj0iIzVCNzM4QiIvPiYjeGE7PHN0b3Agc3RvcC1jb2xvcj0iIzIyMzU0OCIgb2Zmc2V0PSIxIi8+JiN4YTs8L2xpbmVhckdyYWRpZW50PiYjeGE7PC9kZWZzPiYjeGE7PC9zdmc+;" parent="1" vertex="1">
          <mxGeometry x="-1480.6751622666668" y="-1099.2094396979703" width="23.62" height="23.622" as="geometry" />
        </mxCell>
        <mxCell id="MNoCtDz5ZO1DFXrK31TN-1" value="" style="rounded=0;whiteSpace=wrap;html=1;strokeColor=none;strokeWidth=1.5;arcSize=16;fillColor=#F5F6F7;perimeterSpacing=0;imageHeight=24;absoluteArcSize=1;points=[];connectable=0;container=0;" parent="1" vertex="1">
          <mxGeometry x="-1140" y="-1608.75" width="438" height="657.75" as="geometry" />
        </mxCell>
        <mxCell id="MNoCtDz5ZO1DFXrK31TN-2" value="&lt;h1&gt;Flow&lt;/h1&gt;&lt;ul&gt;&lt;li&gt;A client application sends out an API call which is intercepted by the API Management capability within SAP Integration Suite which acts as an&amp;nbsp;harmonious protection layer for all API calls that passes its gateway.&lt;br&gt;&lt;br&gt;&lt;/li&gt;&lt;li&gt;&lt;span style=&quot;color: rgb(29, 45, 62);&quot;&gt;SAP Business Accelerator Hub provides API policy templates, APIs, predefined integration flows and more which can be used to enable interoperability between API providers and consumers.&lt;br&gt;&lt;br&gt;Further processing in cloud depends on the actual use case:&lt;br&gt;&lt;br&gt;&lt;/span&gt;&lt;/li&gt;&lt;li&gt;Use case &quot;managed API&quot;: API requests are forwarded to a data source which acts as an API provider (suited for integration scenarios which require no or simple adaptations).&lt;br&gt;&lt;br&gt;&lt;/li&gt;&lt;li&gt;Use case &quot;API managed business data graph&quot;: The Graph capability of API Management enables a simplified provisioning and consumption of business data across different data sources.&amp;nbsp;&lt;br&gt;&lt;br&gt;&lt;/li&gt;&lt;li&gt;Use case &quot;API managed cloud integration&quot;: Cloud Integration capability is used whenever advanced mediation and transformation requirements are required.&lt;br&gt;&lt;br&gt;&lt;/li&gt;&lt;li style=&quot;box-sizing: border-box;&quot;&gt;&lt;font style=&quot;background-color: initial;&quot; color=&quot;#1d2d3e&quot;&gt;If the data source is located on premises (Cloud2OnPremise) it is recommended to use&amp;nbsp;&lt;/font&gt;&lt;font style=&quot;background-color: initial;&quot; color=&quot;#1d2d3e&quot;&gt;SAP Connectivity service with cloud connector and SAP Destination service to&amp;nbsp;&lt;/font&gt;&lt;span style=&quot;background-color: initial;&quot;&gt;establish a secure connection from SAP BTP to the on premise landscape.&lt;br&gt;&lt;br&gt;&lt;/span&gt;&lt;/li&gt;&lt;li style=&quot;box-sizing: border-box;&quot;&gt;&lt;span style=&quot;background-color: initial;&quot;&gt;In case data has to be processed locally (e.g. to meet data compliance and governance requirements) it is recommended to use the edge integration cell runtime for such on premise-to-on premise integration scenarios.&lt;br&gt;&lt;br&gt;&lt;/span&gt;&lt;/li&gt;&lt;li style=&quot;box-sizing: border-box;&quot;&gt;In case the integration scenario involves SAP S/4HANA or SAP ECC the SAP Application Interface Framework can enable integration monitoring and error handling for business users.&lt;/li&gt;&lt;/ul&gt;" style="text;html=1;strokeColor=none;fillColor=none;spacing=5;spacingTop=-20;whiteSpace=wrap;overflow=hidden;rounded=0;" parent="1" vertex="1">
          <mxGeometry x="-1119" y="-1596" width="388" height="607" as="geometry" />
        </mxCell>
        <mxCell id="MNoCtDz5ZO1DFXrK31TN-3" value="&lt;p style=&quot;line-height: 100%; font-size: 12px;&quot;&gt;&lt;b style=&quot;font-size: 12px;&quot;&gt;&lt;font face=&quot;arial black&quot; style=&quot;font-size: 12px;&quot; color=&quot;#ffffff&quot;&gt;1&lt;/font&gt;&lt;/b&gt;&lt;/p&gt;" style="ellipse;whiteSpace=wrap;html=1;aspect=fixed;rotation=0;gradientColor=#0057D2;strokeColor=none;gradientDirection=east;fillColor=#2395FF;rounded=0;pointerEvents=0;fontFamily=Helvetica;fontSize=12;fontColor=default;spacingTop=4;spacingBottom=4;spacingLeft=4;spacingRight=4;verticalAlign=middle;container=0;" parent="1" vertex="1">
          <mxGeometry x="-1114" y="-1546" width="22" height="22" as="geometry" />
        </mxCell>
        <mxCell id="MNoCtDz5ZO1DFXrK31TN-4" value="&lt;p style=&quot;line-height: 100%; font-size: 12px;&quot;&gt;&lt;font face=&quot;arial black&quot; color=&quot;#ffffff&quot; style=&quot;font-size: 12px;&quot;&gt;&lt;b style=&quot;font-size: 12px;&quot;&gt;2&lt;/b&gt;&lt;/font&gt;&lt;/p&gt;" style="ellipse;whiteSpace=wrap;html=1;aspect=fixed;rotation=0;gradientColor=#0057D2;strokeColor=none;gradientDirection=east;fillColor=#2395FF;rounded=0;pointerEvents=0;fontFamily=Helvetica;fontSize=12;fontColor=default;spacingTop=4;spacingBottom=4;spacingLeft=4;spacingRight=4;verticalAlign=middle;container=0;" parent="1" vertex="1">
          <mxGeometry x="-1114" y="-1476" width="22" height="22" as="geometry" />
        </mxCell>
        <mxCell id="MNoCtDz5ZO1DFXrK31TN-5" value="&lt;p style=&quot;line-height: 100%; font-size: 12px;&quot;&gt;&lt;b style=&quot;font-size: 12px;&quot;&gt;&lt;font face=&quot;arial black&quot; style=&quot;font-size: 12px;&quot; color=&quot;#ffffff&quot;&gt;3&lt;/font&gt;&lt;/b&gt;&lt;/p&gt;" style="ellipse;whiteSpace=wrap;html=1;aspect=fixed;rotation=0;gradientColor=#0057D2;strokeColor=none;gradientDirection=east;fillColor=#2395FF;rounded=0;pointerEvents=0;fontFamily=Helvetica;fontSize=12;fontColor=default;spacingTop=4;spacingBottom=4;spacingLeft=4;spacingRight=4;verticalAlign=middle;container=0;" parent="1" vertex="1">
          <mxGeometry x="-1114" y="-1374" width="22" height="22" as="geometry" />
        </mxCell>
        <mxCell id="MNoCtDz5ZO1DFXrK31TN-6" value="&lt;p style=&quot;line-height: 100%; font-size: 12px;&quot;&gt;&lt;b style=&quot;font-size: 12px;&quot;&gt;&lt;font face=&quot;arial black&quot; style=&quot;font-size: 12px;&quot; color=&quot;#ffffff&quot;&gt;4&lt;/font&gt;&lt;/b&gt;&lt;/p&gt;" style="ellipse;whiteSpace=wrap;html=1;aspect=fixed;rotation=0;gradientColor=#0057D2;strokeColor=none;gradientDirection=east;fillColor=#2395FF;rounded=0;pointerEvents=0;fontFamily=Helvetica;fontSize=12;fontColor=default;spacingTop=4;spacingBottom=4;spacingLeft=4;spacingRight=4;verticalAlign=middle;container=0;" parent="1" vertex="1">
          <mxGeometry x="-1114" y="-1316" width="22" height="22" as="geometry" />
        </mxCell>
        <mxCell id="MNoCtDz5ZO1DFXrK31TN-7" value="&lt;p style=&quot;line-height: 100%; font-size: 12px;&quot;&gt;&lt;b style=&quot;font-size: 12px;&quot;&gt;&lt;font face=&quot;arial black&quot; style=&quot;font-size: 12px;&quot; color=&quot;#ffffff&quot;&gt;5&lt;/font&gt;&lt;/b&gt;&lt;/p&gt;" style="ellipse;whiteSpace=wrap;html=1;aspect=fixed;rotation=0;gradientColor=#0057D2;strokeColor=none;gradientDirection=east;fillColor=#2395FF;rounded=0;pointerEvents=0;fontFamily=Helvetica;fontSize=12;fontColor=default;spacingTop=4;spacingBottom=4;spacingLeft=4;spacingRight=4;verticalAlign=middle;container=0;" parent="1" vertex="1">
          <mxGeometry x="-1114" y="-1245" width="22" height="22" as="geometry" />
        </mxCell>
        <mxCell id="MNoCtDz5ZO1DFXrK31TN-8" value="&lt;p style=&quot;line-height: 100%; font-size: 12px;&quot;&gt;&lt;b style=&quot;font-size: 12px;&quot;&gt;&lt;font face=&quot;arial black&quot; style=&quot;font-size: 12px;&quot; color=&quot;#ffffff&quot;&gt;6&lt;/font&gt;&lt;/b&gt;&lt;/p&gt;" style="ellipse;whiteSpace=wrap;html=1;aspect=fixed;rotation=0;gradientColor=#0057D2;strokeColor=none;gradientDirection=east;fillColor=#2395FF;rounded=0;pointerEvents=0;fontFamily=Helvetica;fontSize=12;fontColor=default;spacingTop=4;spacingBottom=4;spacingLeft=4;spacingRight=4;verticalAlign=middle;container=0;" parent="1" vertex="1">
          <mxGeometry x="-1114" y="-1187" width="22" height="22" as="geometry" />
        </mxCell>
        <mxCell id="MNoCtDz5ZO1DFXrK31TN-9" value="&lt;p style=&quot;line-height: 100%; font-size: 12px;&quot;&gt;&lt;b style=&quot;font-size: 12px;&quot;&gt;&lt;font face=&quot;arial black&quot; style=&quot;font-size: 12px;&quot; color=&quot;#ffffff&quot;&gt;7&lt;/font&gt;&lt;/b&gt;&lt;/p&gt;" style="ellipse;whiteSpace=wrap;html=1;aspect=fixed;rotation=0;gradientColor=#0057D2;strokeColor=none;gradientDirection=east;fillColor=#2395FF;rounded=0;pointerEvents=0;fontFamily=Helvetica;fontSize=12;fontColor=default;spacingTop=4;spacingBottom=4;spacingLeft=4;spacingRight=4;verticalAlign=middle;container=0;" parent="1" vertex="1">
          <mxGeometry x="-1114" y="-1115" width="22" height="22" as="geometry" />
        </mxCell>
        <mxCell id="MNoCtDz5ZO1DFXrK31TN-13" value="&lt;p style=&quot;line-height: 100%; font-size: 16px;&quot;&gt;&lt;font style=&quot;font-size: 16px;&quot; color=&quot;#ffffff&quot; face=&quot;arial black&quot;&gt;&lt;b style=&quot;font-size: 16px;&quot;&gt;2&lt;/b&gt;&lt;/font&gt;&lt;/p&gt;" style="ellipse;whiteSpace=wrap;html=1;aspect=fixed;rotation=0;gradientColor=#0057D2;strokeColor=none;gradientDirection=east;fillColor=#2395FF;rounded=0;pointerEvents=0;fontFamily=Helvetica;fontSize=16;fontColor=default;spacingTop=4;spacingBottom=4;spacingLeft=4;spacingRight=4;verticalAlign=middle;container=0;" parent="1" vertex="1">
          <mxGeometry x="-1843.91" y="-1596" width="29.92" height="29.9212" as="geometry" />
        </mxCell>
        <mxCell id="MNoCtDz5ZO1DFXrK31TN-17" value="&lt;p style=&quot;line-height: 100%; font-size: 16px;&quot;&gt;&lt;b style=&quot;font-size: 16px;&quot;&gt;&lt;font color=&quot;#ffffff&quot; style=&quot;font-size: 16px;&quot; face=&quot;arial black&quot;&gt;5&lt;/font&gt;&lt;/b&gt;&lt;/p&gt;" style="ellipse;whiteSpace=wrap;html=1;aspect=fixed;rotation=0;gradientColor=#0057D2;strokeColor=none;gradientDirection=east;fillColor=#2395FF;rounded=0;pointerEvents=0;fontFamily=Helvetica;fontSize=16;fontColor=default;spacingTop=4;spacingBottom=4;spacingLeft=4;spacingRight=4;verticalAlign=middle;container=0;" parent="1" vertex="1">
          <mxGeometry x="-1779" y="-1330" width="29.92" height="29.9212" as="geometry" />
        </mxCell>
        <mxCell id="MNoCtDz5ZO1DFXrK31TN-18" value="&lt;p style=&quot;line-height: 100%; font-size: 16px;&quot;&gt;&lt;b style=&quot;font-size: 16px;&quot;&gt;&lt;font color=&quot;#ffffff&quot; style=&quot;font-size: 16px;&quot; face=&quot;arial black&quot;&gt;6&lt;/font&gt;&lt;/b&gt;&lt;/p&gt;" style="ellipse;whiteSpace=wrap;html=1;aspect=fixed;rotation=0;gradientColor=#0057D2;strokeColor=none;gradientDirection=east;fillColor=#2395FF;rounded=0;pointerEvents=0;fontFamily=Helvetica;fontSize=16;fontColor=default;spacingTop=4;spacingBottom=4;spacingLeft=4;spacingRight=4;verticalAlign=middle;container=0;" parent="1" vertex="1">
          <mxGeometry x="-1556" y="-1223" width="29.92" height="29.9212" as="geometry" />
        </mxCell>
        <mxCell id="MNoCtDz5ZO1DFXrK31TN-19" value="&lt;p style=&quot;line-height: 100%; font-size: 16px;&quot;&gt;&lt;b style=&quot;font-size: 16px;&quot;&gt;&lt;font color=&quot;#ffffff&quot; style=&quot;font-size: 16px;&quot; face=&quot;arial black&quot;&gt;7&lt;/font&gt;&lt;/b&gt;&lt;/p&gt;" style="ellipse;whiteSpace=wrap;html=1;aspect=fixed;rotation=0;gradientColor=#0057D2;strokeColor=none;gradientDirection=east;fillColor=#2395FF;rounded=0;pointerEvents=0;fontFamily=Helvetica;fontSize=16;fontColor=default;spacingTop=4;spacingBottom=4;spacingLeft=4;spacingRight=4;verticalAlign=middle;container=0;" parent="1" vertex="1">
          <mxGeometry x="-1647" y="-1097.3" width="29.92" height="29.9212" as="geometry" />
        </mxCell>
        <mxCell id="MNoCtDz5ZO1DFXrK31TN-20" value="&lt;p style=&quot;line-height: 100%; font-size: 16px;&quot;&gt;&lt;font color=&quot;#ffffff&quot; face=&quot;arial black&quot; style=&quot;font-size: 16px;&quot;&gt;&lt;b style=&quot;font-size: 16px;&quot;&gt;8&lt;/b&gt;&lt;/font&gt;&lt;/p&gt;" style="ellipse;whiteSpace=wrap;html=1;aspect=fixed;rotation=0;gradientColor=#0057D2;strokeColor=none;gradientDirection=east;fillColor=#2395FF;rounded=0;pointerEvents=0;fontFamily=Helvetica;fontSize=16;fontColor=default;spacingTop=4;spacingBottom=4;spacingLeft=4;spacingRight=4;verticalAlign=middle;container=0;" parent="1" vertex="1">
          <mxGeometry x="-1267.39" y="-1077.3799999999999" width="29.92" height="29.9212" as="geometry" />
        </mxCell>
        <mxCell id="MNoCtDz5ZO1DFXrK31TN-30" value="&lt;p style=&quot;line-height: 114%;&quot;&gt;&lt;font size=&quot;1&quot;&gt;&lt;b style=&quot;&quot;&gt;HTTPS&lt;/b&gt;&lt;/font&gt;&lt;/p&gt;" style="rounded=1;whiteSpace=wrap;html=1;arcSize=50;strokeColor=#475E75;fillColor=#f5f6f7;fontColor=#475E75;strokeWidth=1.5;" parent="1" vertex="1">
          <mxGeometry x="-1479.995" y="-1455.5" width="51.99" height="16" as="geometry" />
        </mxCell>
        <mxCell id="MNoCtDz5ZO1DFXrK31TN-34" value="SAP Destination&#xa;service" style="shape=image;verticalLabelPosition=bottom;verticalAlign=top;imageAspect=0;aspect=fixed;image=data:image/svg+xml,PHN2ZyB4bWxucz0iaHR0cDovL3d3dy53My5vcmcvMjAwMC9zdmciIGZpbGw9Im5vbmUiIHZpZXdCb3g9IjAgMCA0OCA0OSIgaGVpZ2h0PSI0OSIgd2lkdGg9IjQ4Ij4mI3hhOzxjaXJjbGUgc3Ryb2tlLXdpZHRoPSIwLjg1NzE0MyIgc3Ryb2tlPSIjRDVEQUREIiBmaWxsPSJ1cmwoI3BhaW50MF9saW5lYXJfMjYyMV8yOTIwMikiIHI9IjIzLjU3MTQiIGN5PSIyNC4wNDkxIiBjeD0iMjQiLz4mI3hhOzxnIGNsaXAtcGF0aD0idXJsKCNjbGlwMF8yNjIxXzI5MjAyKSI+JiN4YTs8cGF0aCBmaWxsPSJ1cmwoI3BhaW50MV9yYWRpYWxfMjYyMV8yOTIwMikiIGQ9Ik0zMC45MTE3IDkuNjAxODFIMjIuOTQyOUMyMi42NDQ2IDkuNjAxODEgMjIuMzU4NSA5LjcyMDMxIDIyLjE0NzYgOS45MzEyNEMyMS45MzY2IDEwLjE0MjIgMjEuODE4MSAxMC40MjgyIDIxLjgxODEgMTAuNzI2NVYxNC42NzVDMjEuODE4MSAxNS41OTc0IDIxLjQ4ODcgMTYuMzg4IDIwLjgyOTkgMTcuMDQ2OUMyMC4xNzEgMTcuNzA1OCAxOS4zODA0IDE4LjAzNTIgMTguNDU4IDE4LjAzNTJIMTQuNTA5NUMxNC4yMTEyIDE4LjAzNTIgMTMuOTI1MSAxOC4xNTM3IDEzLjcxNDIgMTguMzY0NkMxMy41MDMzIDE4LjU3NTUgMTMuMzg0OCAxOC44NjE2IDEzLjM4NDggMTkuMTU5OVYzMy44NDkxQzEzLjM4NDggMzUuMzQwMiAxNC41OTM2IDM2LjU0OTEgMTYuMDg0OCAzNi41NDkxSDIzLjEwMUMyMi41OTQ5IDM2LjA0NSAyMi4xMzM0IDM1LjQ5NjIgMjEuNzIyOCAzNC45MDkxQzIxLjQwMjQgMzQuNDUwOSAyMS41MTQxIDMzLjgxOTYgMjEuOTcyNCAzMy40OTkxQzIyLjQzMDYgMzMuMTc4NyAyMy4wNjE5IDMzLjI5MDQgMjMuMzgyMyAzMy43NDg3QzI0LjA1ODEgMzQuNzE1MiAyNC45MDAxIDM1LjU1NzEgMjUuODY2NiAzNi4yMzI5QzI1Ljk4OTcgMzYuMzE5IDI2LjA4NzggMzYuNDI3NSAyNi4xNTkyIDM2LjU0OTFIMzAuOTExN0MzMi4xNjg1IDM2LjU0OTEgMzMuMjI0NyAzNS42OTA0IDMzLjUyNTcgMzQuNTI3N0MzMy4xMzk0IDM0LjU5ODYgMzIuNzQwNiAzNC42MzM5IDMyLjMzMSAzNC42MzM5SDMwLjk0N0MzMC4xNjY5IDM0LjYzMzkgMjkuNTAwMSAzNC4zMDcyIDI5LjAwMTUgMzMuODA4NkMyOC41OTMzIDMzLjQwMDQgMjguMzMxNiAzMi44OTQzIDI4LjI0MTUgMzIuMzM1M0wyNy4xNTU5IDMyLjM0NzNDMjYuNDUxNSAzMi4zNDczIDI1Ljc0IDMyLjExMTcgMjUuMTgwMyAzMS41NTJDMjQuNjIwNyAzMC45OTI0IDI0LjM4NTIgMzAuMjgwOSAyNC4zODUyIDI5LjU3NjVDMjQuMzg1MiAyOS4wNDY0IDI0LjUxODYgMjguNTEyNCAyNC44MjMgMjguMDQyQzI0LjUxODYgMjcuNTcxNiAyNC4zODUyIDI3LjAzNzYgMjQuMzg1MiAyNi41MDc1QzI0LjM4NTIgMjUuODAzMSAyNC42MjA3IDI1LjA5MTYgMjUuMTgwMyAyNC41MzJDMjUuNzUzOSAyMy45NTg0IDI2LjQ3ODYgMjMuNzY2OSAyNy4xMjU4IDIzLjc2NjlMMjguMjQ0NiAyMy43NjY5QzI4LjMzMTUgMjMuMjI4IDI4LjU3MDMgMjIuNzA2NiAyOS4wMDE1IDIyLjI3NTRDMjkuNTMxNyAyMS43NDUyIDMwLjIyODcgMjEuNDUzIDMwLjk5NzkgMjEuNDc5M0wzMi4zMTIzIDIxLjQ1MDFIMzIuMzMxQzMyLjc3MDcgMjEuNDUwMSAzMy4xOTg1IDIxLjQ4OTIgMzMuNjExNyAyMS41Njg4VjE4LjE1NDNDMzMuNTI5NyAxOC4xNjAyIDMzLjQ0NTcgMTguMTU2MyAzMy4zNjExIDE4LjE0MTNDMzIuNzkxMSAxOC4wNDA2IDMyLjIwMzggMTcuOTg3OSAzMS42MDM1IDE3Ljk4NzlDMzEuMDAzMSAxNy45ODc5IDMwLjQxNTggMTguMDQwNiAyOS44NDU5IDE4LjE0MTNDMjkuMjk1MiAxOC4yMzg2IDI4Ljc2OTkgMTcuODcxMSAyOC42NzI2IDE3LjMyMDVDMjguNTc1MyAxNi43Njk4IDI4Ljk0MjggMTYuMjQ0NSAyOS40OTM0IDE2LjE0NzJDMzAuMTc5MiAxNi4wMjYgMzAuODg0NCAxNS45NjI5IDMxLjYwMzUgMTUuOTYyOUMzMi4yODcgMTUuOTYyOSAzMi45NTggMTYuMDE5OSAzMy42MTE3IDE2LjEyOTdWMTIuMzAxOEMzMy42MTE3IDEwLjgxMDYgMzIuNDAyOSA5LjYwMTgxIDMwLjkxMTcgOS42MDE4MVpNMjYuMTE2MSAxOC4zODA3QzI2LjQzNjYgMTguODM5IDI2LjMyNDkgMTkuNDcwMyAyNS44NjY2IDE5Ljc5MDdDMjQuOTAwMSAyMC40NjY1IDI0LjA1ODEgMjEuMzA4NSAyMy4zODIzIDIyLjI3NUMyMy4wNjE5IDIyLjczMzIgMjIuNDMwNiAyMi44NDQ5IDIxLjk3MjQgMjIuNTI0NUMyMS41MTQxIDIyLjIwNDEgMjEuNDAyNCAyMS41NzI4IDIxLjcyMjggMjEuMTE0NUMyMi41MzQ1IDE5Ljk1MzggMjMuNTQ1NCAxOC45NDI5IDI0LjcwNjIgMTguMTMxMkMyNS4xNjQ0IDE3LjgxMDcgMjUuNzk1NyAxNy45MjI1IDI2LjExNjEgMTguMzgwN1pNMjAuOTEyMSAyNS4wODFDMjEuNDYyOCAyNS4xNzgzIDIxLjgzMDMgMjUuNzAzNiAyMS43MzI5IDI2LjI1NDJDMjEuNjMyMiAyNi44MjQyIDIxLjU3OTUgMjcuNDExNCAyMS41Nzk1IDI4LjAxMThDMjEuNTc5NSAyOC42MTIyIDIxLjYzMjIgMjkuMTk5NSAyMS43MzI5IDI5Ljc2OTRDMjEuODMwMyAzMC4zMjAxIDIxLjQ2MjggMzAuODQ1NCAyMC45MTIxIDMwLjk0MjdDMjAuMzYxNSAzMS4wNCAxOS44MzYyIDMwLjY3MjUgMTkuNzM4OCAzMC4xMjE5QzE5LjYxNzYgMjkuNDM2MSAxOS41NTQ1IDI4LjczMDkgMTkuNTU0NSAyOC4wMTE4QzE5LjU1NDUgMjcuMjkyOCAxOS42MTc2IDI2LjU4NzYgMTkuNzM4OCAyNS45MDE4QzE5LjgzNjIgMjUuMzUxMSAyMC4zNjE0IDI0Ljk4MzYgMjAuOTEyMSAyNS4wODFaIiBjbGlwLXJ1bGU9ImV2ZW5vZGQiIGZpbGwtcnVsZT0iZXZlbm9kZCIvPiYjeGE7PHBhdGggZmlsbD0idXJsKCNwYWludDJfcmFkaWFsXzI2MjFfMjkyMDIpIiBkPSJNMjYuMzczNiAyNS43MjUyQzI2LjE3MyAyNS45MjU4IDI2LjA3MjggMjYuMTg2NiAyNi4wNzI4IDI2LjUwNzVDMjYuMDcyOCAyNi44Mjg0IDI2LjE3MyAyNy4wODkyIDI2LjM3MzYgMjcuMjg5OEMyNi41NzQyIDI3LjQ5MDQgMjYuODM1IDI3LjU5MDcgMjcuMTU1OSAyNy41OTA3TDI5Ljg5MzkgMjcuNTYwNkwyOS44OTM5IDI4LjUyMzRMMjcuMTU1OSAyOC40OTMzQzI2LjgzNSAyOC40OTMzIDI2LjU3NDIgMjguNTkzNiAyNi4zNzM2IDI4Ljc5NDJDMjYuMTczIDI4Ljk5NDggMjYuMDcyOCAyOS4yNTU2IDI2LjA3MjggMjkuNTc2NUMyNi4wNzI4IDI5Ljg5NzQgMjYuMTczIDMwLjE1ODIgMjYuMzczNiAzMC4zNTg4QzI2LjU3NDIgMzAuNTU5NCAyNi44MzUgMzAuNjU5NyAyNy4xNTU5IDMwLjY1OTdMMjkuODkzOSAzMC42Mjk2VjMxLjg5MzNDMjkuODkzOSAzMi4xNzQxIDI5Ljk5NDIgMzIuNDE0OCAzMC4xOTQ4IDMyLjYxNTRDMzAuNDE1NSAzMi44MzYgMzAuNjY2MiAzMi45NDY0IDMwLjk0NyAzMi45NDY0SDMyLjMzMTFDMzMuNDk0NSAzMi45NDY0IDM0LjQ4NzQgMzIuNTc1MyAzNS4zMDk4IDMxLjgzMzFDMzYuMTMyMiAzMS4wOTA5IDM2LjYwMzYgMzAuMTU4MiAzNi43MjQgMjkuMDM0OUwzOS40Mjc4IDI5LjAzNDlDMzkuNzQ4NyAyOS4wMzQ5IDQwLjAwOTUgMjguOTM0NiA0MC4yMTAxIDI4LjczNEM0MC4zOTA2IDI4LjU1MzUgNDAuNDgwOSAyOC4zMDI3IDQwLjQ4MDkgMjcuOTgxOEM0MC40ODA5IDI3LjY2MDkgNDAuMzgwNiAyNy40MDAxIDQwLjE4IDI3LjE5OTVDMzkuOTc5NCAyNi45OTg5IDM5LjcxODcgMjYuODk4NiAzOS4zOTc3IDI2Ljg5ODZMMzYuNjkzOSAyNi44OTg3QzM2LjUzMzQgMjUuODE1NSAzNi4wNTIgMjQuOTEyOCAzNS4yNDk2IDI0LjE5MDdDMzQuNDY3MyAyMy40ODg3IDMzLjQ5NDUgMjMuMTM3NiAzMi4zMzExIDIzLjEzNzZMMzAuOTc3MSAyMy4xNjc3QzMwLjY3NjIgMjMuMTQ3NyAzMC40MTU1IDIzLjI0OCAzMC4xOTQ4IDIzLjQ2ODZDMjkuOTk0MiAyMy42NjkyIDI5Ljg5MzkgMjMuOTMgMjkuODkzOSAyNC4yNTA5TDI5Ljg5MzkgMjUuNDU0NEwyNy4xMjU4IDI1LjQ1NDRDMjYuODA0OSAyNS40NTQ0IDI2LjU1NDIgMjUuNTQ0NyAyNi4zNzM2IDI1LjcyNTJaIi8+JiN4YTs8cGF0aCBmaWxsPSJ1cmwoI3BhaW50M19yYWRpYWxfMjYyMV8yOTIwMikiIGQ9Ik0yMC41NjcgMTQuNTA1NFYxMS41MTE4TDE1LjI5NDcgMTYuNzg0MUgxOC4yODgzQzE4LjkxMzggMTYuNzg0MSAxOS40NSAxNi41NjA3IDE5Ljg5NjggMTYuMTEzOUMyMC4zNDM2IDE1LjY2NzEgMjAuNTY3IDE1LjEzMDkgMjAuNTY3IDE0LjUwNTRaIi8+JiN4YTs8L2c+JiN4YTs8ZGVmcz4mI3hhOzxsaW5lYXJHcmFkaWVudCBncmFkaWVudFVuaXRzPSJ1c2VyU3BhY2VPblVzZSIgeTI9IjQ0LjI5MzQiIHgyPSI0MS4wNjQ1IiB5MT0iNi44NjE5MSIgeDE9IjQuMzUyODciIGlkPSJwYWludDBfbGluZWFyXzI2MjFfMjkyMDIiPiYjeGE7PHN0b3Agc3RvcC1jb2xvcj0id2hpdGUiLz4mI3hhOzxzdG9wIHN0b3AtY29sb3I9IiNFQUVDRUUiIG9mZnNldD0iMSIvPiYjeGE7PC9saW5lYXJHcmFkaWVudD4mI3hhOzxyYWRpYWxHcmFkaWVudCBncmFkaWVudFRyYW5zZm9ybT0idHJhbnNsYXRlKDE2LjUyMTQgMTMuNTU4NSkgcm90YXRlKDUzLjQxMjYpIHNjYWxlKDIzLjQ5NDggNDIuNDkzOSkiIGdyYWRpZW50VW5pdHM9InVzZXJTcGFjZU9uVXNlIiByPSIxIiBjeT0iMCIgY3g9IjAiIGlkPSJwYWludDFfcmFkaWFsXzI2MjFfMjkyMDIiPiYjeGE7PHN0b3Agc3RvcC1jb2xvcj0iIzAxOTVGRiIvPiYjeGE7PHN0b3Agc3RvcC1jb2xvcj0iIzExNDdFOSIgb2Zmc2V0PSIxIi8+JiN4YTs8L3JhZGlhbEdyYWRpZW50PiYjeGE7PHJhZGlhbEdyYWRpZW50IGdyYWRpZW50VHJhbnNmb3JtPSJ0cmFuc2xhdGUoMjguMzAzOCAyNC42MTMyKSByb3RhdGUoMzQuMjQ2MSkgc2NhbGUoMTIuMTQxMyAxMC4yOTM1KSIgZ3JhZGllbnRVbml0cz0idXNlclNwYWNlT25Vc2UiIHI9IjEiIGN5PSIwIiBjeD0iMCIgaWQ9InBhaW50Ml9yYWRpYWxfMjYyMV8yOTIwMiI+JiN4YTs8c3RvcCBzdG9wLWNvbG9yPSIjMTM0OEZGIi8+JiN4YTs8c3RvcCBzdG9wLWNvbG9yPSIjMDYyMzhEIiBvZmZzZXQ9IjEiLz4mI3hhOzwvcmFkaWFsR3JhZGllbnQ+JiN4YTs8cmFkaWFsR3JhZGllbnQgZ3JhZGllbnRUcmFuc2Zvcm09InRyYW5zbGF0ZSgxNi4xMTExIDEyLjMwNDkpIHJvdGF0ZSg0NSkgc2NhbGUoNS4xOTM3NyA0LjczMjg5KSIgZ3JhZGllbnRVbml0cz0idXNlclNwYWNlT25Vc2UiIHI9IjEiIGN5PSIwIiBjeD0iMCIgaWQ9InBhaW50M19yYWRpYWxfMjYyMV8yOTIwMiI+JiN4YTs8c3RvcCBzdG9wLWNvbG9yPSIjMTM0OEZGIi8+JiN4YTs8c3RvcCBzdG9wLWNvbG9yPSIjMDYyMzhEIiBvZmZzZXQ9IjEiLz4mI3hhOzwvcmFkaWFsR3JhZGllbnQ+JiN4YTs8Y2xpcFBhdGggaWQ9ImNsaXAwXzI2MjFfMjkyMDIiPiYjeGE7PHJlY3QgdHJhbnNmb3JtPSJ0cmFuc2xhdGUoMTMuNSA5LjU0OTA3KSIgZmlsbD0id2hpdGUiIGhlaWdodD0iMjciIHdpZHRoPSIyNyIvPiYjeGE7PC9jbGlwUGF0aD4mI3hhOzwvZGVmcz4mI3hhOzwvc3ZnPg==;points=[[0,0,0,0,0],[0,0.25,0,0,0],[0,0.5,0,0,0],[0,0.75,0,0,0],[0.25,0,0,0,0],[0.5,0,0,0,0],[0.75,0,0,0,0],[1,0,0,0,0],[1,0.25,0,0,0],[1,0.5,0,0,0],[1,0.75,0,0,0]];" parent="1" vertex="1">
          <mxGeometry x="-1529.3399999999995" y="-1369.9788732394366" width="31.34" height="32" as="geometry" />
        </mxCell>
        <mxCell id="MNoCtDz5ZO1DFXrK31TN-37" value="" style="endArrow=blockThin;html=1;strokeColor=#475e75;bendable=1;rounded=0;endFill=1;endSize=4;strokeWidth=1.5;startSize=4;startArrow=none;startFill=0;exitX=1;exitY=0.5;exitDx=0;exitDy=0;exitPerimeter=0;entryX=0;entryY=0.5;entryDx=0;entryDy=0;" parent="1" source="MNoCtDz5ZO1DFXrK31TN-34" target="dRn98VZPlsFJSJt_BaqV-36" edge="1">
          <mxGeometry width="50" height="50" relative="1" as="geometry">
            <mxPoint x="-1681" y="-1232" as="sourcePoint" />
            <mxPoint x="-1380" y="-1354" as="targetPoint" />
            <Array as="points" />
          </mxGeometry>
        </mxCell>
        <mxCell id="MNoCtDz5ZO1DFXrK31TN-31" value="&lt;p style=&quot;line-height: 114%;&quot;&gt;&lt;font size=&quot;1&quot;&gt;&lt;b style=&quot;&quot;&gt;HTTPS&lt;/b&gt;&lt;/font&gt;&lt;/p&gt;" style="rounded=1;whiteSpace=wrap;html=1;arcSize=50;strokeColor=#475E75;fillColor=#f5f6f7;fontColor=#475E75;strokeWidth=1.5;" parent="1" vertex="1">
          <mxGeometry x="-1479.995" y="-1361.9788732394366" width="51.99" height="16" as="geometry" />
        </mxCell>
        <mxCell id="MNoCtDz5ZO1DFXrK31TN-39" value="&lt;p style=&quot;line-height: 100%; font-size: 12px;&quot;&gt;&lt;font face=&quot;arial black&quot; color=&quot;#ffffff&quot;&gt;&lt;b&gt;8&lt;/b&gt;&lt;/font&gt;&lt;/p&gt;" style="ellipse;whiteSpace=wrap;html=1;aspect=fixed;rotation=0;gradientColor=#0057D2;strokeColor=none;gradientDirection=east;fillColor=#2395FF;rounded=0;pointerEvents=0;fontFamily=Helvetica;fontSize=12;fontColor=default;spacingTop=4;spacingBottom=4;spacingLeft=4;spacingRight=4;verticalAlign=middle;container=0;" parent="1" vertex="1">
          <mxGeometry x="-1114" y="-1042.86" width="22" height="22" as="geometry" />
        </mxCell>
        <mxCell id="Hb62N5CwICuIh9y2tBJK-1" value="&lt;p style=&quot;line-height: 100%; font-size: 16px;&quot;&gt;&lt;b style=&quot;font-size: 16px;&quot;&gt;&lt;font color=&quot;#ffffff&quot; style=&quot;font-size: 16px;&quot; face=&quot;arial black&quot;&gt;3&lt;/font&gt;&lt;/b&gt;&lt;/p&gt;" style="ellipse;whiteSpace=wrap;html=1;aspect=fixed;rotation=0;gradientColor=#0057D2;strokeColor=none;gradientDirection=east;fillColor=#2395FF;rounded=0;pointerEvents=0;fontFamily=Helvetica;fontSize=16;fontColor=default;spacingTop=4;spacingBottom=4;spacingLeft=4;spacingRight=4;verticalAlign=middle;container=0;" parent="1" vertex="1">
          <mxGeometry x="-1779" y="-1404" width="29.92" height="29.9212" as="geometry" />
        </mxCell>
        <mxCell id="zLkr8Fda_o7fLGSxankt-243" value="SAP Business Accelerator Hub" style="shape=image;verticalLabelPosition=bottom;labelBackgroundColor=#EBF8FF;verticalAlign=top;aspect=fixed;imageAspect=0;image=data:image/svg+xml,PHN2ZyB4bWxucz0iaHR0cDovL3d3dy53My5vcmcvMjAwMC9zdmciIGZpbGw9Im5vbmUiIHZpZXdCb3g9IjAgMCAxNiAxNiIgaGVpZ2h0PSIxNiIgd2lkdGg9IjE2Ij4mI3hhOzxjaXJjbGUgc3Ryb2tlLXdpZHRoPSIwLjI4NTcwOCIgc3Ryb2tlPSIjRDVEQUREIiBmaWxsPSJ1cmwoI3BhaW50MF9saW5lYXJfMzg5MF8yMTU0MCkiIHI9IjcuODU2OTYiIGN5PSI3Ljk5NzM4IiBjeD0iNy45OTU0MiIvPiYjeGE7PGcgY2xpcC1wYXRoPSJ1cmwoI2NsaXAwXzM4OTBfMjE1NDApIj4mI3hhOzxwYXRoIGZpbGw9InVybCgjcGFpbnQxX2xpbmVhcl8zODkwXzIxNTQwKSIgZD0iTTguNjgxMyA4LjA1MjczTDcuODcwNzQgOC4wNTI3M0M3Ljg0NTk4IDguMDUyNzMgNy44MjEyNiA4LjA1MzM4IDcuNzk2NiA4LjA1NDY3TDcuNDU2NzcgNi41OTk4N0w4LjIzMTg5IDYuMTYyNDlMOC42ODEzIDguMDUyNzNaIi8+JiN4YTs8cGF0aCBmaWxsPSJ1cmwoI3BhaW50Ml9saW5lYXJfMzg5MF8yMTU0MCkiIGQ9Ik02LjAyMTM5IDkuNjg2MTFINC4zNDUzMkMzLjkwNTg2IDkuNjg2MTEgMy41MzY4IDkuMzM4ODYgMy40ODg3NSA4Ljg4MDE3TDIuOTk4ODUgNC4zNDM0OEwyLjk5NzIxIDQuMzI2MzRDMi45NDU5MiAzLjczMjkyIDMuMzg4NCAzLjIxNzA0IDMuOTY1NDcgMy4yMTcwNEw4LjE5MzAyIDMuMjE3MDdDOC40NDI5IDMuMjE3MDcgOC42NDU0NiAzLjQxOTY0IDguNjQ1NDYgMy42Njk1MUM4LjY0NTQ2IDMuOTE5MzkgOC40NDI5IDQuMTIxOTYgOC4xOTMwMiA0LjEyMTk1TDMuOTY1NDcgNC4xMjE5MkMzLjg5NjM4IDQuMTIxOTIgMy44NDk4MSA0LjE3OTY0IDMuODU1NDIgNC4yNDQ1NEw0LjM0NTMyIDguNzgxMjNINi40NjY4N0M2LjI0MjYgOS4wNDk5MiA2LjA4MjM1IDkuMzY2OTkgNi4wMjEzOSA5LjY4NjExWiIvPiYjeGE7PHBhdGggZmlsbD0idXJsKCNwYWludDNfbGluZWFyXzM4OTBfMjE1NDApIiBkPSJNNC42MjczIDUuOTkwODZDNC42MTQ0NiA2LjAwODM1IDQuNjAyMTQgNi4wMjYyNiA0LjU5MDM3IDYuMDQ0NTZDNC41NTg1MyA2LjA5NDA2IDQuNTMxNjYgNi4xNDM3NyA0LjUwOTE0IDYuMTkyMTdMNC41MDE0OCA2LjIwODk5TDMuNTk4MjEgOC4yMzk2MUMzLjUyMTU2IDguNDExOTQgMy40OTA1IDguNjAyNzcgMy41MDgzIDguNzkyMDVDMy41MTM3OSA4Ljg1MDQxIDMuNTIzMzUgOC45MDc5OSAzLjUzNjY3IDguOTY0MUMzLjY1ODU4IDkuNDc3MjggNC4wOTk5MSA5Ljg2OTQzIDQuNjM2OTIgOS44Njk0M0g2LjA1NzU3QzYuMjc5MTIgOS4xMDA3MSA3LjA1MDcxIDguMzg2OTUgNy44NzA3NCA4LjM4Njk1TDEyLjEwNTIgOC4zODY5MkMxMi4xMzA0IDguMzg2NDIgMTIuMTU1NCA4LjM4NjU0IDEyLjE4MDQgOC4zODcyNkwxMi45NDI0IDYuMDc1MjlDMTIuOTkwMSA1LjkzMDQ2IDEzLjAwNzMgNS43NzY0OSAxMi45OTI5IDUuNjI0QzEyLjkzNDQgNS4wMDYwNyAxMi40NTAzIDQuNTcyNzQgMTEuOTAxIDQuNTUzNDVDMTEuODYxOCA0LjU0ODU5IDExLjgyMjMgNC41NDYxNCAxMS43ODI3IDQuNTQ2MTRIMTAuMTUyOUM5Ljg4Nzc1IDQuNTQ2MTQgOS42MzMyMSA0LjY1NTggOS40NDQ0MiA0Ljg1MTM4TDguNzk5NTYgNS41MTk0M0g1LjUzMjI4QzUuNTEyNjMgNS41MTk0MyA1LjQ5Mjc3IDUuNTE5OTYgNS40NzI3MyA1LjUyMTA0QzUuMzQ2NDYgNS41Mjc5IDUuMjIyNjIgNS41NTk2MSA1LjEwNzYzIDUuNjE0NDZDNC45ODQ2MiA1LjY2NTYyIDQuODY3ODYgNS43Mzg5NyA0Ljc2NTExIDUuODM1MzVDNC43MTg1NSA1Ljg3OTAzIDQuNjcxNiA1LjkzMDUgNC42MjczIDUuOTkwODZaIi8+JiN4YTs8cGF0aCBmaWxsPSJ1cmwoI3BhaW50NF9saW5lYXJfMzg5MF8yMTU0MCkiIGQ9Ik04LjExNzgxIDkuMzg2NzJDNy41MjYwOCA5LjM4NjcyIDcuMDQ2MzkgOS44NjY0MSA3LjA0NjM5IDEwLjQ1ODFWMTIuMTA2NUM3LjA0NjM5IDEyLjY5ODIgNy41MjYwOCAxMy4xNzc5IDguMTE3ODEgMTMuMTc3OUgxMS45MjY1QzEyLjUxODMgMTMuMTc3OSAxMi45OTc5IDEyLjY5ODIgMTIuOTk3OSAxMi4xMDY1VjEwLjQ1ODFDMTIuOTk3OSA5Ljg2NjQxIDEyLjUxODMgOS4zODY3MiAxMS45MjY1IDkuMzg2NzJIOC4xMTc4MVpNMTEuMTgxMyAxMi4zNTM4QzExLjExMzYgMTIuMzUzOCAxMS4wNDU5IDEyLjMyNzUgMTAuOTkzNCAxMi4yNzY0QzEwLjg4OTggMTIuMTcyOCAxMC44ODk4IDEyLjAwNDMgMTAuOTkzNCAxMS45MDA3TDExLjYxMDkgMTEuMjgzMkwxMC45OTM0IDEwLjY2NDNDMTAuODg5OCAxMC41NjA3IDEwLjg4OTggMTAuMzkyMiAxMC45OTM0IDEwLjI4ODZDMTEuMDk3IDEwLjE4NSAxMS4yNjU2IDEwLjE4NSAxMS4zNjkyIDEwLjI4ODZMMTIuMTc0NSAxMS4wOTM5QzEyLjIyNDIgMTEuMTQzNyAxMi4yNTE5IDExLjIxMTQgMTIuMjUxOSAxMS4yODE4QzEyLjI1MTkgMTEuMzUyMyAxMi4yMjQyIDExLjQyIDEyLjE3NDUgMTEuNDY5N0wxMS4zNjkyIDEyLjI3NUMxMS4zMTY3IDEyLjMyNzUgMTEuMjQ5IDEyLjM1MzggMTEuMTgxMyAxMi4zNTM4Wk04Ljg2MzM3IDEyLjM1MzhDOC43OTU2OSAxMi4zNTM4IDguNzI4IDEyLjMyNzUgOC42NzU1MSAxMi4yNzY0TDcuODcwMTcgMTEuNDcxMUM3Ljc2NjU3IDExLjM2NzUgNy43NjY1NyAxMS4xOTg5IDcuODcwMTcgMTEuMDk1M0w4LjY3NTUxIDEwLjI5QzguNzc5MTEgMTAuMTg2NCA4Ljk0NzY0IDEwLjE4NjQgOS4wNTEyNCAxMC4yOUM5LjE1NDg0IDEwLjM5MzYgOS4xNTQ4NCAxMC41NjIxIDkuMDUxMjQgMTAuNjY1N0w4LjQzMjM5IDExLjI4MzJMOS4wNDk4NiAxMS45MDA3QzkuMTUzNDYgMTIuMDA0MyA5LjE1MzQ2IDEyLjE3MjggOS4wNDk4NiAxMi4yNzY0QzguOTk4NzUgMTIuMzI3NSA4LjkzMTA2IDEyLjM1MzggOC44NjMzNyAxMi4zNTM4Wk05LjU2OTI1IDEyLjMwNjhDOS42MDUxNyAxMi4zMjIgOS42NDEwOCAxMi4zMjg5IDkuNjc3IDEyLjMyODlDOS43NzkyMiAxMi4zMjg5IDkuODc1OTIgMTIuMjY5NSA5LjkxODc0IDEyLjE3MTRMMTAuNjA5NCAxMC42MTA1QzEwLjY2ODggMTAuNDc2NSAxMC42MDggMTAuMzIwNCAxMC40NzQgMTAuMjYxQzEwLjM0MDEgMTAuMjAxNiAxMC4xODQgMTAuMjYyNCAxMC4xMjQ2IDEwLjM5NjRMOS40MzM4OCAxMS45NTczQzkuMzc0NDggMTIuMDkxMyA5LjQzNTI2IDEyLjI0NzQgOS41NjkyNSAxMi4zMDY4WiIgY2xpcC1ydWxlPSJldmVub2RkIiBmaWxsLXJ1bGU9ImV2ZW5vZGQiLz4mI3hhOzwvZz4mI3hhOzxkZWZzPiYjeGE7PGxpbmVhckdyYWRpZW50IGdyYWRpZW50VW5pdHM9InVzZXJTcGFjZU9uVXNlIiB5Mj0iMTQuNzQ1MyIgeDI9IjEzLjY4MzUiIHkxPSIyLjI2ODQ1IiB4MT0iMS40NDY1MyIgaWQ9InBhaW50MF9saW5lYXJfMzg5MF8yMTU0MCI+JiN4YTs8c3RvcCBzdG9wLWNvbG9yPSJ3aGl0ZSIvPiYjeGE7PHN0b3Agc3RvcC1jb2xvcj0iI0VBRUNFRSIgb2Zmc2V0PSIxIi8+JiN4YTs8L2xpbmVhckdyYWRpZW50PiYjeGE7PGxpbmVhckdyYWRpZW50IGdyYWRpZW50VW5pdHM9InVzZXJTcGFjZU9uVXNlIiB5Mj0iOC4xMzYwOCIgeDI9IjguMzM4NDMiIHkxPSI0LjE4NDQ1IiB4MT0iMy44NDU4NCIgaWQ9InBhaW50MV9saW5lYXJfMzg5MF8yMTU0MCI+JiN4YTs8c3RvcCBzdG9wLWNvbG9yPSIjMDE5NUZGIi8+JiN4YTs8c3RvcCBzdG9wLWNvbG9yPSIjMTE0N0U5IiBvZmZzZXQ9IjAuOTkxMDI4Ii8+JiN4YTs8L2xpbmVhckdyYWRpZW50PiYjeGE7PGxpbmVhckdyYWRpZW50IGdyYWRpZW50VW5pdHM9InVzZXJTcGFjZU9uVXNlIiB5Mj0iOC4xMzYwOCIgeDI9IjguMzM4NDMiIHkxPSI0LjE4NDQ1IiB4MT0iMy44NDU4NCIgaWQ9InBhaW50Ml9saW5lYXJfMzg5MF8yMTU0MCI+JiN4YTs8c3RvcCBzdG9wLWNvbG9yPSIjMDE5NUZGIi8+JiN4YTs8c3RvcCBzdG9wLWNvbG9yPSIjMTE0N0U5IiBvZmZzZXQ9IjAuOTkxMDI4Ii8+JiN4YTs8L2xpbmVhckdyYWRpZW50PiYjeGE7PGxpbmVhckdyYWRpZW50IGdyYWRpZW50VW5pdHM9InVzZXJTcGFjZU9uVXNlIiB5Mj0iMTEuMDE0OSIgeDI9IjguMTA2MDkiIHkxPSI1LjM0MjIxIiB4MT0iNC45MjY2NyIgaWQ9InBhaW50M19saW5lYXJfMzg5MF8yMTU0MCI+JiN4YTs8c3RvcCBzdG9wLWNvbG9yPSIjMDE5NUZGIi8+JiN4YTs8c3RvcCBzdG9wLWNvbG9yPSIjMTE0N0U5IiBvZmZzZXQ9IjAuOTkxMDI4Ii8+JiN4YTs8L2xpbmVhckdyYWRpZW50PiYjeGE7PGxpbmVhckdyYWRpZW50IGdyYWRpZW50VW5pdHM9InVzZXJTcGFjZU9uVXNlIiB5Mj0iMTMuNzI4NiIgeDI9IjEwLjMyNjQiIHkxPSI5Ljk0NDQ4IiB4MT0iNy45MjYyOSIgaWQ9InBhaW50NF9saW5lYXJfMzg5MF8yMTU0MCI+JiN4YTs8c3RvcCBzdG9wLWNvbG9yPSIjMTM0OEZGIi8+JiN4YTs8c3RvcCBzdG9wLWNvbG9yPSIjMDYyMzhEIiBvZmZzZXQ9IjEiLz4mI3hhOzwvbGluZWFyR3JhZGllbnQ+JiN4YTs8Y2xpcFBhdGggaWQ9ImNsaXAwXzM4OTBfMjE1NDAiPiYjeGE7PHJlY3QgdHJhbnNmb3JtPSJ0cmFuc2xhdGUoMi45OTU2MSAzLjE5NzUxKSIgZmlsbD0id2hpdGUiIGhlaWdodD0iMTAiIHdpZHRoPSIxMCIvPiYjeGE7PC9jbGlwUGF0aD4mI3hhOzwvZGVmcz4mI3hhOzwvc3ZnPg==;points=[[0,0,0,0,0],[0,0.25,0,0,0],[0,0.5,0,0,0],[0,0.75,0,0,0],[0.25,0,0,0,0],[0.5,0,0,0,0],[0.75,0,0,0,0],[1,0,0,0,0],[1,0.25,0,0,0],[1,0.5,0,0,0],[1,0.75,0,0,0]];" parent="1" vertex="1">
          <mxGeometry x="-1804.3300000000002" y="-1594" width="32" height="32" as="geometry" />
        </mxCell>
        <mxCell id="yGMx_qY083cAlSpav9dm-2" value="" style="endArrow=blockThin;html=1;strokeColor=#475E75;bendable=1;rounded=0;endFill=1;endSize=4;startArrow=none;startFill=0;startSize=4;jumpStyle=none;jumpSize=0;targetPerimeterSpacing=15;strokeWidth=1.5;exitX=1;exitY=0.5;exitDx=0;exitDy=0;entryX=0;entryY=0.5;entryDx=0;entryDy=0;entryPerimeter=0;exitPerimeter=0;" parent="1" source="dRn98VZPlsFJSJt_BaqV-52" target="MNoCtDz5ZO1DFXrK31TN-34" edge="1">
          <mxGeometry width="50" height="50" relative="1" as="geometry">
            <mxPoint x="-1552.2551048951045" y="-1353.9788732394366" as="sourcePoint" />
            <mxPoint x="-1582" y="-947" as="targetPoint" />
          </mxGeometry>
        </mxCell>
        <mxCell id="yGMx_qY083cAlSpav9dm-3" value="" style="endArrow=blockThin;html=1;strokeColor=#475E75;bendable=1;rounded=0;endFill=1;endSize=4;startArrow=none;startFill=0;startSize=4;jumpStyle=none;jumpSize=0;targetPerimeterSpacing=15;strokeWidth=1.5;exitX=0.5;exitY=0;exitDx=0;exitDy=0;entryX=0;entryY=0.5;entryDx=0;entryDy=0;exitPerimeter=0;edgeStyle=orthogonalEdgeStyle;" parent="1" source="MNoCtDz5ZO1DFXrK31TN-34" target="MNoCtDz5ZO1DFXrK31TN-30" edge="1">
          <mxGeometry width="50" height="50" relative="1" as="geometry">
            <mxPoint x="-1682" y="-1344" as="sourcePoint" />
            <mxPoint x="-1519" y="-1344" as="targetPoint" />
          </mxGeometry>
        </mxCell>
        <mxCell id="yGMx_qY083cAlSpav9dm-4" value="" style="endArrow=blockThin;html=1;strokeColor=#475E75;bendable=1;rounded=0;endFill=1;endSize=4;startArrow=none;startFill=0;startSize=4;jumpStyle=none;jumpSize=0;targetPerimeterSpacing=15;strokeWidth=1.5;exitX=1;exitY=0.5;exitDx=0;exitDy=0;entryX=0;entryY=0.5;entryDx=0;entryDy=0;" parent="1" source="MNoCtDz5ZO1DFXrK31TN-30" target="dRn98VZPlsFJSJt_BaqV-30" edge="1">
          <mxGeometry width="50" height="50" relative="1" as="geometry">
            <mxPoint x="-1504" y="-1360" as="sourcePoint" />
            <mxPoint x="-1470" y="-1437" as="targetPoint" />
          </mxGeometry>
        </mxCell>
        <mxCell id="MNoCtDz5ZO1DFXrK31TN-16" value="&lt;p style=&quot;line-height: 100%; font-size: 16px;&quot;&gt;&lt;b style=&quot;font-size: 16px;&quot;&gt;&lt;font color=&quot;#ffffff&quot; style=&quot;font-size: 16px;&quot; face=&quot;arial black&quot;&gt;4&lt;/font&gt;&lt;/b&gt;&lt;/p&gt;" style="ellipse;whiteSpace=wrap;html=1;aspect=fixed;rotation=0;gradientColor=#0057D2;strokeColor=none;gradientDirection=east;fillColor=#2395FF;rounded=0;pointerEvents=0;fontFamily=Helvetica;fontSize=16;fontColor=default;spacingTop=4;spacingBottom=4;spacingLeft=4;spacingRight=4;verticalAlign=middle;container=0;" parent="1" vertex="1">
          <mxGeometry x="-1663" y="-1369" width="29.92" height="29.9212" as="geometry" />
        </mxCell>
        <mxCell id="koZoVzPdQoJ2Ifl0AIc6-2" value="" style="endArrow=blockThin;html=1;strokeColor=#475E75;bendable=1;rounded=0;endFill=1;endSize=4;startArrow=none;startFill=0;startSize=4;jumpStyle=none;jumpSize=0;targetPerimeterSpacing=15;strokeWidth=1.5;exitX=1;exitY=0.5;exitDx=0;exitDy=0;entryX=0;entryY=0.5;entryDx=0;entryDy=0;" parent="1" source="dRn98VZPlsFJSJt_BaqV-19" target="hYUSkcnEFoUa8Ber-fzS-78" edge="1">
          <mxGeometry width="50" height="50" relative="1" as="geometry">
            <mxPoint x="-1772" y="-945" as="sourcePoint" />
            <mxPoint x="-1959" y="-958" as="targetPoint" />
          </mxGeometry>
        </mxCell>
        <mxCell id="DMnXaM8c1wDCKZaSVBvl-1" value="&lt;font face=&quot;arial&quot; color=&quot;#475e75&quot;&gt;This BTP Solution Diagram depicts implementation options for A&lt;/font&gt;&lt;span style=&quot;background-color: initial; color: rgb(71, 94, 117); font-family: arial;&quot;&gt;PI managed integration&amp;nbsp;&lt;/span&gt;&lt;span style=&quot;background-color: initial; color: rgb(71, 94, 117); font-family: arial;&quot;&gt;covering all integration&lt;/span&gt;&lt;div&gt;&lt;span style=&quot;color: rgb(71, 94, 117); font-family: arial; background-color: initial;&quot;&gt;domains with focus on the runtime perspective.&lt;/span&gt;&lt;/div&gt;" style="text;html=1;align=left;verticalAlign=middle;resizable=0;points=[];autosize=1;strokeColor=none;fillColor=none;fontSize=12;fontColor=#1D2D3E;fontFamily=Helvetica;container=0;" parent="1" vertex="1">
          <mxGeometry x="-2313" y="-876.5" width="606" height="41" as="geometry" />
        </mxCell>
        <mxCell id="DMnXaM8c1wDCKZaSVBvl-2" value="&lt;font face=&quot;arial&quot; color=&quot;#475e75&quot;&gt;&lt;b&gt;Diagram Level: L2&lt;/b&gt;&lt;/font&gt;" style="text;html=1;align=left;verticalAlign=middle;resizable=0;points=[];autosize=1;strokeColor=none;fillColor=none;fontSize=12;fontColor=#1D2D3E;fontFamily=Helvetica;container=0;" parent="1" vertex="1">
          <mxGeometry x="-2314" y="-899" width="121" height="26" as="geometry" />
        </mxCell>
        <mxCell id="V25RwjR1GB1ZiLahEEfb-1" value="Integration flows &amp; API policies" style="shape=image;verticalLabelPosition=bottom;verticalAlign=top;imageAspect=0;aspect=fixed;image=data:image/svg+xml,PHN2ZyB4bWxucz0iaHR0cDovL3d3dy53My5vcmcvMjAwMC9zdmciIGZpbGw9Im5vbmUiIHZpZXdCb3g9IjAgMCAxNyAxNyIgaGVpZ2h0PSIxNyIgd2lkdGg9IjE3Ij4mI3hhOzxwYXRoIGZpbGw9InVybCgjcGFpbnQwX2xpbmVhcl8yXzI4ODA5KSIgZD0iTTE0Ljk2MzkgNS4wNTI3M0MxNS4xOTMgNS4xOTg1NyAxNS4zMDc2IDUuMzg2MDcgMTUuMzA3NiA1LjYxNTIzQzE1LjMwNzYgNS42Nzc3MyAxNS4yOTcyIDUuNzI5ODIgMTUuMjc2NCA1Ljc3MTQ4VjEyLjE0NjVDMTUuMjc2NCAxMi40NTkgMTUuMTQxIDEyLjY5ODYgMTQuODcwMSAxMi44NjUyTDguNTI2MzcgMTYuODM0QzguMzgwNTMgMTYuOTE3MyA4LjIyNDI4IDE2Ljk1OSA4LjA1NzYyIDE2Ljk1OUM3Ljg3MDEyIDE2Ljk1OSA3LjczNDcgMTYuOTE3MyA3LjY1MTM3IDE2LjgzNEwxLjI3NjM3IDEyLjg2NTJDMS4xNTEzNyAxMi43ODE5IDEuMDQ3MiAxMi42NjczIDAuOTYzODY3IDEyLjUyMTVDMC45MDEzNjcgMTIuMzc1NyAwLjg3MDExNyAxMi4yNTA3IDAuODcwMTE3IDEyLjE0NjVWNS43NzE0OEMwLjg3MDExNyA1LjQ1ODk4IDEuMDA1NTMgNS4yMTk0IDEuMjc2MzcgNS4wNTI3M0w0LjQ2Mzg3IDMuMDUyNzNDNC42MzA1MyAyLjk5MDIzIDQuNzg2NzggMi45NTg5OCA0LjkzMjYyIDIuOTU4OThDNS4wNzg0NSAyLjk1ODk4IDUuMjEzODcgMi45OTAyMyA1LjMzODg3IDMuMDUyNzNMMTEuNzEzOSA3LjA1MjczQzExLjgxOCA3LjA5NDQgMTEuOTAxNCA3LjE4ODE1IDExLjk2MzkgNy4zMzM5OEMxMi4wNDcyIDcuNDU4OTggMTIuMDg4OSA3LjU3MzU3IDEyLjA4ODkgNy42Nzc3M1YxMC40NTlDMTIuMDg4OSAxMS4wMDA3IDExLjgyODUgMTEuMjcxNSAxMS4zMDc2IDExLjI3MTVDMTEuMDc4NSAxMS4yNzE1IDEwLjg4MDUgMTEuMTk4NiAxMC43MTM5IDExLjA1MjdDMTAuNTY4IDEwLjkwNjkgMTAuNDk1MSAxMC43MDkgMTAuNDk1MSAxMC40NTlWOC4xNDY0OEw0LjkzMjYyIDQuNjQ2NDhMMi41NTc2MiA2LjE3NzczVjExLjY3NzdMOC4xMjAxMiAxNS4xNzc3TDEzLjY4MjYgMTEuNjc3N1Y2LjE3NzczTDcuNzEzODcgMi40Mjc3M0M3LjQ2Mzg3IDIuMjYxMDcgNy4zMzg4NyAyLjA0MjMyIDcuMzM4ODcgMS43NzE0OEM3LjMzODg3IDEuNjY3MzIgNy4zODA1MyAxLjUxMTA3IDcuNDYzODcgMS4zMDI3M0M3LjY1MTM3IDEuMDczNTcgNy44OTA5NSAwLjk1ODk4NCA4LjE4MjYyIDAuOTU4OTg0QzguMzQ5MjggMC45NTg5ODQgOC40ODQ3IDEuMDAwNjUgOC41ODg4NyAxLjA4Mzk4TDE0Ljk2MzkgNS4wNTI3M1pNNy4wMjYzNyAxMS4xNzc3QzcuMjc2MzcgMTEuMzIzNiA3LjQwMTM3IDExLjU0MjMgNy40MDEzNyAxMS44MzRDNy40MDEzNyAxMi4wMDA3IDcuMzU5NyAxMi4xNTY5IDcuMjc2MzcgMTIuMzAyN0M3LjEwOTcgMTIuNTMxOSA2Ljg3MDEyIDEyLjY0NjUgNi41NTc2MiAxMi42NDY1QzYuNDExNzggMTIuNjQ2NSA2LjI3NjM3IDEyLjYxNTIgNi4xNTEzNyAxMi41NTI3TDQuNTU3NjIgMTEuNTg0QzQuMzA3NjIgMTEuNDE3MyA0LjE4MjYyIDExLjIwOSA0LjE4MjYyIDEwLjk1OUM0LjE4MjYyIDEwLjc5MjMgNC4yMzQ3IDEwLjYyNTcgNC4zMzg4NyAxMC40NTlDNC41MjYzNyAxMC4yMjk4IDQuNzU1NTMgMTAuMTE1MiA1LjAyNjM3IDEwLjExNTJDNS4xOTMwMyAxMC4xMTUyIDUuMzI4NDUgMTAuMTU2OSA1LjQzMjYyIDEwLjI0MDJMNy4wMjYzNyAxMS4xNzc3WiIvPiYjeGE7PGRlZnM+JiN4YTs8bGluZWFyR3JhZGllbnQgZ3JhZGllbnRVbml0cz0idXNlclNwYWNlT25Vc2UiIHkyPSI5LjU0NDQ0IiB4Mj0iMTYuMTIwNCIgeTE9IjIuNDY0MDciIHgxPSIyLjczNjAzIiBpZD0icGFpbnQwX2xpbmVhcl8yXzI4ODA5Ij4mI3hhOzxzdG9wIHN0b3AtY29sb3I9IiMyMzk1RkYiLz4mI3hhOzxzdG9wIHN0b3AtY29sb3I9IiMwMDU3RDIiIG9mZnNldD0iMSIvPiYjeGE7PC9saW5lYXJHcmFkaWVudD4mI3hhOzwvZGVmcz4mI3hhOzwvc3ZnPg==;container=0;" vertex="1" parent="1">
          <mxGeometry x="-1799.4007237097378" y="-982.0037500000001" width="20.801447419475533" height="20.80345686162339" as="geometry" />
        </mxCell>
      </root>
    </mxGraphModel>
  </diagram>
</mxfile>
